<?xml version="1.0" encoding="UTF-8"?>
<svg xmlns="http://www.w3.org/2000/svg" xmlns:xlink="http://www.w3.org/1999/xlink" width="600" height="480" viewBox="0 0 600 480">
<defs>
<g>
<g id="glyph-0-0-36c164a2">
<path d="M 7.796875 -2.578125 C 7.796875 -2.75 7.578125 -2.75 7.53125 -2.75 C 7.3125 -2.75 7.296875 -2.703125 7.21875 -2.46875 C 6.890625 -1.5625 6.03125 -0.953125 5.25 -0.953125 C 4.890625 -0.953125 4.609375 -1.078125 4.25 -1.234375 C 3.703125 -1.46875 3.484375 -1.546875 3.125 -1.546875 C 3.046875 -1.546875 2.890625 -1.546875 2.8125 -1.53125 C 2.9375 -1.671875 3.3125 -2.125 3.8125 -2.625 L 6.421875 -5.203125 C 7.484375 -6.25 8.359375 -7.609375 8.359375 -7.78125 C 8.359375 -7.953125 8.203125 -7.953125 8.09375 -7.953125 C 7.890625 -7.953125 7.859375 -7.9375 7.765625 -7.71875 C 7.15625 -6.703125 6.9375 -6.609375 6.640625 -6.609375 C 6.3125 -6.609375 6.140625 -6.78125 5.796875 -7.25 C 5.578125 -7.546875 5.28125 -7.953125 4.703125 -7.953125 C 3.359375 -7.953125 2.59375 -6.265625 2.59375 -5.90625 C 2.59375 -5.734375 2.71875 -5.703125 2.859375 -5.703125 C 3.078125 -5.703125 3.09375 -5.734375 3.1875 -5.953125 C 3.328125 -6.359375 3.859375 -6.796875 4.515625 -6.796875 C 4.875 -6.796875 5.203125 -6.65625 5.59375 -6.484375 C 6.1875 -6.203125 6.390625 -6.203125 6.65625 -6.203125 C 6.390625 -5.90625 6.234375 -5.703125 5.9375 -5.421875 L 2.984375 -2.484375 C 1.984375 -1.5 1.109375 -0.15625 1.109375 0.015625 C 1.109375 0.203125 1.28125 0.203125 1.390625 0.203125 C 1.578125 0.203125 1.609375 0.15625 1.671875 0.03125 C 1.921875 -0.34375 2.40625 -1.15625 3.09375 -1.15625 C 3.484375 -1.15625 3.640625 -0.953125 3.953125 -0.5 C 4.25 -0.140625 4.515625 0.203125 5.078125 0.203125 C 6.828125 0.203125 7.796875 -2.140625 7.796875 -2.578125 Z M 7.796875 -2.578125 "/>
</g>
<g id="glyph-1-0-36c164a2">
<path d="M 13 -4.5 C 13 -4.703125 12.828125 -4.859375 12.640625 -4.859375 L 1.375 -4.859375 C 1.171875 -4.859375 1.015625 -4.703125 1.015625 -4.5 C 1.015625 -4.296875 1.171875 -4.140625 1.375 -4.140625 L 12.640625 -4.140625 C 12.828125 -4.140625 13 -4.296875 13 -4.5 Z M 13 -4.5 "/>
</g>
<g id="glyph-1-1-36c164a2">
<path d="M 8.078125 -3.625 C 8.078125 -5.765625 6.609375 -7.5625 4.65625 -7.5625 C 3.796875 -7.5625 3.03125 -7.265625 2.375 -6.640625 L 2.375 -10.15625 C 2.734375 -10.046875 3.328125 -9.921875 3.90625 -9.921875 C 6.125 -9.921875 7.375 -11.5625 7.375 -11.796875 C 7.375 -11.890625 7.328125 -11.984375 7.203125 -11.984375 C 7.203125 -11.984375 7.140625 -11.984375 7.0625 -11.9375 C 6.703125 -11.765625 5.8125 -11.40625 4.609375 -11.40625 C 3.890625 -11.40625 3.0625 -11.53125 2.21875 -11.921875 C 2.0625 -11.96875 2 -11.96875 2 -11.96875 C 1.8125 -11.96875 1.8125 -11.828125 1.8125 -11.53125 L 1.8125 -6.203125 C 1.8125 -5.890625 1.8125 -5.734375 2.0625 -5.734375 C 2.203125 -5.734375 2.234375 -5.796875 2.296875 -5.90625 C 2.5 -6.1875 3.171875 -7.15625 4.625 -7.15625 C 5.5625 -7.15625 6.015625 -6.34375 6.15625 -6.015625 C 6.4375 -5.34375 6.484375 -4.640625 6.484375 -3.75 C 6.484375 -3.109375 6.484375 -2.03125 6.046875 -1.28125 C 5.609375 -0.578125 4.953125 -0.109375 4.125 -0.109375 C 2.8125 -0.109375 1.78125 -1.0625 1.46875 -2.125 C 1.53125 -2.109375 1.578125 -2.09375 1.78125 -2.09375 C 2.375 -2.09375 2.6875 -2.53125 2.6875 -2.96875 C 2.6875 -3.40625 2.375 -3.859375 1.78125 -3.859375 C 1.53125 -3.859375 0.90625 -3.71875 0.90625 -2.890625 C 0.90625 -1.34375 2.140625 0.390625 4.15625 0.390625 C 6.25 0.390625 8.078125 -1.328125 8.078125 -3.625 Z M 8.078125 -3.625 "/>
</g>
<g id="glyph-1-2-36c164a2">
<path d="M 8.28125 -5.765625 C 8.28125 -7.203125 8.1875 -8.640625 7.5625 -9.96875 C 6.734375 -11.703125 5.25 -11.984375 4.5 -11.984375 C 3.421875 -11.984375 2.109375 -11.515625 1.375 -9.84375 C 0.796875 -8.609375 0.703125 -7.203125 0.703125 -5.765625 C 0.703125 -4.40625 0.78125 -2.796875 1.515625 -1.421875 C 2.28125 0.03125 3.59375 0.390625 4.484375 0.390625 C 5.453125 0.390625 6.828125 0.015625 7.609375 -1.6875 C 8.1875 -2.9375 8.28125 -4.34375 8.28125 -5.765625 Z M 6.78125 -5.96875 C 6.78125 -4.625 6.78125 -3.40625 6.59375 -2.25 C 6.3125 -0.546875 5.296875 0 4.484375 0 C 3.78125 0 2.71875 -0.453125 2.390625 -2.171875 C 2.203125 -3.265625 2.203125 -4.90625 2.203125 -5.96875 C 2.203125 -7.125 2.203125 -8.3125 2.34375 -9.28125 C 2.6875 -11.4375 4.03125 -11.59375 4.484375 -11.59375 C 5.078125 -11.59375 6.265625 -11.265625 6.609375 -9.484375 C 6.78125 -8.484375 6.78125 -7.109375 6.78125 -5.96875 Z M 6.78125 -5.96875 "/>
</g>
<g id="glyph-1-3-36c164a2">
<path d="M 8.078125 -3.125 L 7.625 -3.125 C 7.546875 -2.59375 7.421875 -1.796875 7.234375 -1.53125 C 7.109375 -1.390625 5.921875 -1.390625 5.53125 -1.390625 L 2.28125 -1.390625 L 4.1875 -3.234375 C 7 -5.71875 8.078125 -6.703125 8.078125 -8.5 C 8.078125 -10.546875 6.46875 -11.984375 4.265625 -11.984375 C 2.234375 -11.984375 0.90625 -10.328125 0.90625 -8.734375 C 0.90625 -7.71875 1.796875 -7.71875 1.859375 -7.71875 C 2.15625 -7.71875 2.796875 -7.9375 2.796875 -8.671875 C 2.796875 -9.140625 2.46875 -9.609375 1.84375 -9.609375 C 1.6875 -9.609375 1.65625 -9.609375 1.609375 -9.59375 C 2.015625 -10.765625 2.984375 -11.4375 4.03125 -11.4375 C 5.671875 -11.4375 6.4375 -9.96875 6.4375 -8.5 C 6.4375 -7.0625 5.546875 -5.640625 4.546875 -4.515625 L 1.09375 -0.671875 C 0.90625 -0.46875 0.90625 -0.4375 0.90625 0 L 7.578125 0 Z M 8.078125 -3.125 "/>
</g>
<g id="glyph-1-4-36c164a2">
<path d="M 9.484375 0 L 9.484375 -0.5625 C 8.21875 -0.5625 8.078125 -0.6875 8.078125 -1.5625 L 8.078125 -12.484375 L 5.484375 -12.296875 L 5.484375 -11.734375 C 6.75 -11.734375 6.890625 -11.609375 6.890625 -10.734375 L 6.890625 -6.84375 C 6.375 -7.484375 5.59375 -7.953125 4.625 -7.953125 C 2.5 -7.953125 0.609375 -6.1875 0.609375 -3.875 C 0.609375 -1.578125 2.375 0.203125 4.421875 0.203125 C 5.578125 0.203125 6.390625 -0.40625 6.84375 -0.984375 L 6.84375 0.203125 Z M 6.84375 -2.125 C 6.84375 -1.796875 6.84375 -1.765625 6.640625 -1.453125 C 6.109375 -0.59375 5.296875 -0.203125 4.515625 -0.203125 C 3.703125 -0.203125 3.0625 -0.671875 2.625 -1.34375 C 2.15625 -2.09375 2.109375 -3.109375 2.109375 -3.859375 C 2.109375 -4.515625 2.140625 -5.59375 2.65625 -6.40625 C 3.046875 -6.96875 3.71875 -7.5625 4.703125 -7.5625 C 5.328125 -7.5625 6.078125 -7.296875 6.640625 -6.484375 C 6.84375 -6.171875 6.84375 -6.140625 6.84375 -5.8125 Z M 6.84375 -2.125 "/>
</g>
<g id="glyph-1-5-36c164a2">
<path d="M 7.46875 -2.140625 C 7.46875 -2.328125 7.328125 -2.359375 7.234375 -2.359375 C 7.078125 -2.359375 7.03125 -2.25 7 -2.109375 C 6.375 -0.25 4.75 -0.25 4.578125 -0.25 C 3.671875 -0.25 2.953125 -0.796875 2.53125 -1.453125 C 2 -2.328125 2 -3.515625 2 -4.15625 L 7.015625 -4.15625 C 7.421875 -4.15625 7.46875 -4.15625 7.46875 -4.53125 C 7.46875 -6.3125 6.5 -8.0625 4.25 -8.0625 C 2.15625 -8.0625 0.5 -6.203125 0.5 -3.953125 C 0.5 -1.546875 2.390625 0.203125 4.46875 0.203125 C 6.65625 0.203125 7.46875 -1.796875 7.46875 -2.140625 Z M 6.28125 -4.53125 L 2.015625 -4.53125 C 2.125 -7.21875 3.640625 -7.671875 4.25 -7.671875 C 6.109375 -7.671875 6.28125 -5.234375 6.28125 -4.53125 Z M 6.28125 -4.53125 "/>
</g>
<g id="glyph-1-6-36c164a2">
<path d="M 8.734375 -7.265625 C 8.734375 -7.578125 8.515625 -8.15625 7.8125 -8.15625 C 7.453125 -8.15625 6.65625 -8.046875 5.90625 -7.3125 C 5.140625 -7.90625 4.390625 -7.953125 4 -7.953125 C 2.328125 -7.953125 1.078125 -6.71875 1.078125 -5.328125 C 1.078125 -4.53125 1.46875 -3.859375 1.921875 -3.46875 C 1.6875 -3.203125 1.375 -2.609375 1.375 -1.984375 C 1.375 -1.421875 1.609375 -0.734375 2.15625 -0.375 C 1.078125 -0.078125 0.5 0.703125 0.5 1.421875 C 0.5 2.71875 2.28125 3.703125 4.484375 3.703125 C 6.609375 3.703125 8.484375 2.796875 8.484375 1.390625 C 8.484375 0.75 8.21875 -0.15625 7.3125 -0.671875 C 6.359375 -1.171875 5.3125 -1.171875 4.21875 -1.171875 C 3.765625 -1.171875 2.984375 -1.171875 2.859375 -1.1875 C 2.28125 -1.265625 1.90625 -1.8125 1.90625 -2.390625 C 1.90625 -2.46875 1.90625 -2.875 2.21875 -3.234375 C 2.921875 -2.734375 3.65625 -2.6875 4 -2.6875 C 5.671875 -2.6875 6.90625 -3.921875 6.90625 -5.3125 C 6.90625 -5.96875 6.625 -6.640625 6.171875 -7.0625 C 6.828125 -7.671875 7.46875 -7.765625 7.796875 -7.765625 C 7.796875 -7.765625 7.921875 -7.765625 7.96875 -7.734375 C 7.78125 -7.671875 7.6875 -7.46875 7.6875 -7.25 C 7.6875 -6.953125 7.921875 -6.734375 8.203125 -6.734375 C 8.390625 -6.734375 8.734375 -6.859375 8.734375 -7.265625 Z M 5.5625 -5.328125 C 5.5625 -4.84375 5.546875 -4.265625 5.28125 -3.8125 C 5.125 -3.59375 4.71875 -3.09375 4 -3.09375 C 2.4375 -3.09375 2.4375 -4.890625 2.4375 -5.3125 C 2.4375 -5.796875 2.453125 -6.375 2.71875 -6.828125 C 2.859375 -7.03125 3.28125 -7.546875 4 -7.546875 C 5.5625 -7.546875 5.5625 -5.734375 5.5625 -5.328125 Z M 7.546875 1.421875 C 7.546875 2.390625 6.265625 3.296875 4.5 3.296875 C 2.6875 3.296875 1.4375 2.375 1.4375 1.421875 C 1.4375 0.59375 2.125 -0.078125 2.921875 -0.125 L 3.984375 -0.125 C 5.53125 -0.125 7.546875 -0.125 7.546875 1.421875 Z M 7.546875 1.421875 "/>
</g>
<g id="glyph-1-7-36c164a2">
<path d="M 6.546875 -6.859375 C 6.546875 -7.4375 6 -7.953125 5.21875 -7.953125 C 3.90625 -7.953125 3.265625 -6.75 3 -5.96875 L 3 -7.953125 L 0.5 -7.765625 L 0.5 -7.203125 C 1.765625 -7.203125 1.90625 -7.078125 1.90625 -6.1875 L 1.90625 -1.375 C 1.90625 -0.5625 1.703125 -0.5625 0.5 -0.5625 L 0.5 0 L 2.5625 -0.046875 C 3.28125 -0.046875 4.125 -0.046875 4.84375 0 L 4.84375 -0.5625 L 4.46875 -0.5625 C 3.125 -0.5625 3.09375 -0.75 3.09375 -1.40625 L 3.09375 -4.171875 C 3.09375 -5.953125 3.859375 -7.5625 5.21875 -7.5625 C 5.34375 -7.5625 5.375 -7.5625 5.421875 -7.546875 C 5.359375 -7.53125 5 -7.3125 5 -6.84375 C 5 -6.34375 5.375 -6.0625 5.78125 -6.0625 C 6.109375 -6.0625 6.546875 -6.28125 6.546875 -6.859375 Z M 6.546875 -6.859375 "/>
</g>
<g id="glyph-1-8-36c164a2">
<path d="M 13 -6.25 C 13 -6.4375 12.828125 -6.609375 12.640625 -6.609375 L 1.375 -6.609375 C 1.171875 -6.609375 1.015625 -6.4375 1.015625 -6.25 C 1.015625 -6.046875 1.171875 -5.890625 1.375 -5.890625 L 12.640625 -5.890625 C 12.828125 -5.890625 13 -6.046875 13 -6.25 Z M 13 -2.75 C 13 -2.953125 12.828125 -3.109375 12.640625 -3.109375 L 1.375 -3.109375 C 1.171875 -3.109375 1.015625 -2.953125 1.015625 -2.75 C 1.015625 -2.5625 1.171875 -2.390625 1.375 -2.390625 L 12.640625 -2.390625 C 12.828125 -2.390625 13 -2.5625 13 -2.75 Z M 13 -2.75 "/>
</g>
<g id="glyph-1-9-36c164a2">
<path d="M 8.21875 -3.078125 C 8.21875 -4.546875 7.09375 -5.953125 5.21875 -6.34375 C 6.703125 -6.828125 7.734375 -8.078125 7.734375 -9.5 C 7.734375 -10.984375 6.15625 -11.984375 4.421875 -11.984375 C 2.609375 -11.984375 1.234375 -10.90625 1.234375 -9.546875 C 1.234375 -8.953125 1.640625 -8.609375 2.15625 -8.609375 C 2.71875 -8.609375 3.078125 -9 3.078125 -9.515625 C 3.078125 -10.421875 2.234375 -10.421875 1.96875 -10.421875 C 2.515625 -11.296875 3.703125 -11.53125 4.359375 -11.53125 C 5.09375 -11.53125 6.078125 -11.140625 6.078125 -9.515625 C 6.078125 -9.3125 6.046875 -8.265625 5.578125 -7.46875 C 5.046875 -6.609375 4.421875 -6.546875 3.984375 -6.53125 C 3.828125 -6.515625 3.40625 -6.484375 3.28125 -6.484375 C 3.125 -6.46875 3 -6.4375 3 -6.265625 C 3 -6.0625 3.125 -6.0625 3.4375 -6.0625 L 4.234375 -6.0625 C 5.703125 -6.0625 6.375 -4.84375 6.375 -3.078125 C 6.375 -0.625 5.125 -0.109375 4.34375 -0.109375 C 3.5625 -0.109375 2.21875 -0.40625 1.578125 -1.46875 C 2.21875 -1.390625 2.765625 -1.78125 2.765625 -2.46875 C 2.765625 -3.109375 2.28125 -3.46875 1.765625 -3.46875 C 1.328125 -3.46875 0.75 -3.21875 0.75 -2.4375 C 0.75 -0.796875 2.4375 0.390625 4.390625 0.390625 C 6.59375 0.390625 8.21875 -1.234375 8.21875 -3.078125 Z M 8.21875 -3.078125 "/>
</g>
<g id="glyph-2-0-36c164a2">
<path d="M -3.296875 -11.71875 C -4.859375 -11.71875 -6.203125 -10.234375 -6.421875 -8.25 C -6.765625 -9.984375 -7.921875 -11.234375 -9.25 -11.234375 C -10.8125 -11.234375 -12.296875 -9.578125 -12.296875 -7.234375 L -12.296875 -0.640625 L -11.734375 -0.640625 L -11.734375 -1.078125 C -11.734375 -2.46875 -11.53125 -2.5 -10.890625 -2.5 L -1.40625 -2.5 C -0.75 -2.5 -0.5625 -2.46875 -0.5625 -1.078125 L -0.5625 -0.640625 L 0 -0.640625 L 0 -7.703125 C 0 -10.09375 -1.609375 -11.71875 -3.296875 -11.71875 Z M -9.25 -9.484375 C -8.09375 -9.484375 -6.59375 -8.609375 -6.59375 -6.609375 L -6.59375 -4 L -11.015625 -4 C -11.609375 -4 -11.734375 -4.03125 -11.734375 -4.875 L -11.734375 -7.109375 C -11.734375 -8.859375 -10.203125 -9.484375 -9.25 -9.484375 Z M -3.3125 -9.921875 C -2.03125 -9.921875 -0.5625 -8.984375 -0.5625 -7.125 L -0.5625 -4.875 C -0.5625 -4.03125 -0.6875 -4 -1.28125 -4 L -6.1875 -4 L -6.1875 -7.375 C -6.1875 -9.15625 -4.515625 -9.921875 -3.3125 -9.921875 Z M -3.3125 -9.921875 "/>
</g>
<g id="glyph-2-1-36c164a2">
<path d="M 0 -9.625 L -0.5625 -9.625 C -0.5625 -8.6875 -0.5625 -8.25 -1.09375 -8.21875 L -4.53125 -8.21875 C -6.078125 -8.21875 -6.640625 -8.21875 -7.296875 -7.671875 C -7.59375 -7.421875 -7.953125 -6.828125 -7.953125 -5.78125 C -7.953125 -4.46875 -7.1875 -3.625 -6.0625 -3.109375 L -7.953125 -3.109375 L -7.765625 -0.578125 L -7.203125 -0.578125 C -7.203125 -1.84375 -7.078125 -1.984375 -6.1875 -1.984375 L -1.375 -1.984375 C -0.5625 -1.984375 -0.5625 -1.78125 -0.5625 -0.578125 L 0 -0.578125 L -0.046875 -2.609375 L 0 -4.625 L -0.5625 -4.625 C -0.5625 -3.421875 -0.5625 -3.21875 -1.375 -3.21875 L -4.6875 -3.21875 C -6.546875 -3.21875 -7.5625 -4.5 -7.5625 -5.65625 C -7.5625 -6.78125 -6.59375 -6.984375 -5.5625 -6.984375 L -1.375 -6.984375 C -0.5625 -6.984375 -0.5625 -6.78125 -0.5625 -5.578125 L 0 -5.578125 L -0.046875 -7.609375 Z M 0 -9.625 "/>
</g>
<g id="glyph-3-0-36c164a2">
<path d="M -1.609375 -8.6875 L -2.609375 -8.6875 L -2.609375 -8.25 L -1.609375 -8.25 C -0.5625 -8.25 -0.453125 -7.796875 -0.453125 -7.59375 C -0.453125 -7 -1.265625 -6.9375 -1.34375 -6.9375 L -4.953125 -6.9375 C -5.703125 -6.9375 -6.40625 -6.9375 -7.078125 -6.28125 C -7.78125 -5.578125 -8.0625 -4.6875 -8.0625 -3.8125 C -8.0625 -2.34375 -7.21875 -1.09375 -6.03125 -1.09375 C -5.484375 -1.09375 -5.1875 -1.453125 -5.1875 -1.921875 C -5.1875 -2.4375 -5.546875 -2.75 -6.015625 -2.75 C -6.234375 -2.75 -6.828125 -2.65625 -6.84375 -1.84375 C -7.46875 -2.328125 -7.671875 -3.203125 -7.671875 -3.78125 C -7.671875 -4.65625 -6.96875 -5.6875 -5.359375 -5.6875 L -4.703125 -5.6875 C -4.640625 -4.765625 -4.59375 -3.515625 -4.046875 -2.375 C -3.4375 -1.03125 -2.5 -0.578125 -1.703125 -0.578125 C -0.25 -0.578125 0.203125 -2.328125 0.203125 -3.453125 C 0.203125 -4.640625 -0.515625 -5.46875 -1.375 -5.8125 C -0.640625 -5.890625 0.109375 -6.375 0.109375 -7.21875 C 0.109375 -7.59375 -0.140625 -8.6875 -1.609375 -8.6875 Z M -2.515625 -5.6875 C -0.8125 -5.6875 -0.203125 -4.390625 -0.203125 -3.578125 C -0.203125 -2.703125 -0.828125 -1.96875 -1.734375 -1.96875 C -2.71875 -1.96875 -4.21875 -2.71875 -4.3125 -5.6875 Z M -2.515625 -5.6875 "/>
</g>
<g id="glyph-3-1-36c164a2">
<path d="M -2.296875 -6.484375 C -3.265625 -6.484375 -3.796875 -5.9375 -4.015625 -5.71875 C -4.59375 -5.125 -4.734375 -4.421875 -4.875 -3.671875 C -5.078125 -2.65625 -5.3125 -1.453125 -6.359375 -1.453125 C -6.984375 -1.453125 -7.71875 -1.921875 -7.71875 -3.46875 C -7.71875 -5.453125 -6.109375 -5.546875 -5.546875 -5.578125 C -5.375 -5.59375 -5.375 -5.796875 -5.375 -5.796875 C -5.375 -6.03125 -5.46875 -6.03125 -5.8125 -6.03125 L -7.625 -6.03125 C -7.9375 -6.03125 -8.0625 -6.03125 -8.0625 -5.828125 C -8.0625 -5.734375 -8.0625 -5.703125 -7.84375 -5.46875 C -7.78125 -5.421875 -7.609375 -5.234375 -7.5625 -5.171875 C -8.0625 -4.484375 -8.0625 -3.75 -8.0625 -3.46875 C -8.0625 -1.28125 -6.859375 -0.59375 -5.84375 -0.59375 C -5.21875 -0.59375 -4.71875 -0.875 -4.3125 -1.375 C -3.859375 -1.9375 -3.75 -2.453125 -3.484375 -3.75 C -3.421875 -4.140625 -3.125 -5.609375 -1.84375 -5.609375 C -0.921875 -5.609375 -0.203125 -4.984375 -0.203125 -3.578125 C -0.203125 -2.0625 -1.21875 -1.421875 -2.75 -1.078125 C -2.984375 -1.03125 -3.0625 -1.015625 -3.0625 -0.828125 C -3.0625 -0.59375 -2.9375 -0.59375 -2.609375 -0.59375 L -0.234375 -0.59375 C 0.078125 -0.59375 0.203125 -0.59375 0.203125 -0.796875 C 0.203125 -0.875 0.1875 -0.90625 -0.15625 -1.234375 C -0.203125 -1.28125 -0.234375 -1.28125 -0.578125 -1.609375 C 0.1875 -2.390625 0.203125 -3.203125 0.203125 -3.578125 C 0.203125 -5.65625 -1.015625 -6.484375 -2.296875 -6.484375 Z M -2.296875 -6.484375 "/>
</g>
<g id="glyph-4-0-36c164a2">
<path d="M -2.296875 -6.484375 C -3.265625 -6.484375 -3.796875 -5.9375 -4.015625 -5.71875 C -4.59375 -5.125 -4.734375 -4.421875 -4.875 -3.671875 C -5.078125 -2.65625 -5.3125 -1.453125 -6.359375 -1.453125 C -6.984375 -1.453125 -7.71875 -1.921875 -7.71875 -3.46875 C -7.71875 -5.453125 -6.109375 -5.546875 -5.546875 -5.578125 C -5.375 -5.59375 -5.375 -5.796875 -5.375 -5.796875 C -5.375 -6.03125 -5.46875 -6.03125 -5.8125 -6.03125 L -7.625 -6.03125 C -7.9375 -6.03125 -8.0625 -6.03125 -8.0625 -5.828125 C -8.0625 -5.734375 -8.0625 -5.703125 -7.84375 -5.46875 C -7.78125 -5.421875 -7.609375 -5.234375 -7.5625 -5.171875 C -8.0625 -4.484375 -8.0625 -3.75 -8.0625 -3.46875 C -8.0625 -1.28125 -6.859375 -0.59375 -5.84375 -0.59375 C -5.21875 -0.59375 -4.71875 -0.875 -4.3125 -1.375 C -3.859375 -1.9375 -3.75 -2.453125 -3.484375 -3.75 C -3.421875 -4.140625 -3.125 -5.609375 -1.84375 -5.609375 C -0.921875 -5.609375 -0.203125 -4.984375 -0.203125 -3.578125 C -0.203125 -2.0625 -1.21875 -1.421875 -2.75 -1.078125 C -2.984375 -1.03125 -3.0625 -1.015625 -3.0625 -0.828125 C -3.0625 -0.59375 -2.9375 -0.59375 -2.609375 -0.59375 L -0.234375 -0.59375 C 0.078125 -0.59375 0.203125 -0.59375 0.203125 -0.796875 C 0.203125 -0.875 0.1875 -0.90625 -0.15625 -1.234375 C -0.203125 -1.28125 -0.234375 -1.28125 -0.578125 -1.609375 C 0.1875 -2.390625 0.203125 -3.203125 0.203125 -3.578125 C 0.203125 -5.65625 -1.015625 -6.484375 -2.296875 -6.484375 Z M -2.296875 -6.484375 "/>
</g>
<g id="glyph-5-0-36c164a2">
<path d="M 0 -4.453125 L -0.5625 -4.453125 C -0.5625 -3.265625 -0.640625 -3.1875 -1.34375 -3.1875 L -7.953125 -3.1875 L -7.765625 -0.671875 L -7.203125 -0.671875 C -7.203125 -1.84375 -7.09375 -2 -6.203125 -2 L -1.375 -2 C -0.5625 -2 -0.5625 -1.796875 -0.5625 -0.59375 L 0 -0.59375 L -0.046875 -2.578125 C -0.046875 -3.203125 -0.015625 -3.828125 0 -4.453125 Z M -10.875 -3.453125 C -11.359375 -3.453125 -11.828125 -3.046875 -11.828125 -2.5 C -11.828125 -1.890625 -11.328125 -1.53125 -10.875 -1.53125 C -10.390625 -1.53125 -9.921875 -1.9375 -9.921875 -2.484375 C -9.921875 -3.09375 -10.421875 -3.453125 -10.875 -3.453125 Z M -10.875 -3.453125 "/>
</g>
<g id="glyph-6-0-36c164a2">
</g>
<g id="glyph-7-0-36c164a2">
<path d="M -11.4375 -6.421875 C -12.09375 -6.421875 -12.6875 -5.765625 -12.6875 -4.8125 C -12.6875 -3.546875 -11.734375 -2.015625 -9.828125 -2.015625 L -7.765625 -2.015625 L -7.765625 -0.59375 L -7.203125 -0.59375 L -7.203125 -2.015625 L -1.375 -2.015625 C -0.5625 -2.015625 -0.5625 -1.8125 -0.5625 -0.609375 L 0 -0.609375 L -0.046875 -2.65625 C -0.046875 -3.390625 -0.046875 -4.234375 0 -4.953125 L -0.5625 -4.953125 L -0.5625 -4.578125 C -0.5625 -3.234375 -0.75 -3.203125 -1.40625 -3.203125 L -7.203125 -3.203125 L -7.203125 -5.25 L -7.765625 -5.25 L -7.765625 -3.15625 L -9.84375 -3.15625 C -11.4375 -3.15625 -12.296875 -4.015625 -12.296875 -4.8125 C -12.296875 -4.859375 -12.296875 -5.125 -12.171875 -5.40625 C -12.09375 -5.1875 -11.859375 -4.859375 -11.40625 -4.859375 C -11 -4.859375 -10.640625 -5.140625 -10.640625 -5.640625 C -10.640625 -6.15625 -11 -6.421875 -11.4375 -6.421875 Z M -11.4375 -6.421875 "/>
</g>
<g id="glyph-8-0-36c164a2">
<path d="M 0 -9.625 L -0.5625 -9.625 C -0.5625 -8.375 -0.6875 -8.21875 -1.5625 -8.21875 L -7.953125 -8.21875 L -7.765625 -5.578125 L -7.203125 -5.578125 C -7.203125 -6.84375 -7.078125 -6.984375 -6.1875 -6.984375 L -2.984375 -6.984375 C -1.421875 -6.984375 -0.203125 -6.125 -0.203125 -4.8125 C -0.203125 -3.296875 -1.046875 -3.21875 -1.984375 -3.21875 L -7.953125 -3.21875 L -7.765625 -0.578125 L -7.203125 -0.578125 C -7.203125 -1.984375 -7.140625 -1.984375 -5.546875 -1.984375 L -2.84375 -1.984375 C -1.4375 -1.984375 0.203125 -1.984375 0.203125 -4.71875 C 0.203125 -5.71875 -0.3125 -6.515625 -1.421875 -7.03125 L 0.203125 -7.03125 Z M 0 -9.625 "/>
</g>
<g id="glyph-9-0-36c164a2">
<path d="M -2.140625 -7.46875 C -2.328125 -7.46875 -2.328125 -7.296875 -2.328125 -7.234375 C -2.328125 -7.078125 -2.25 -7.03125 -2.140625 -7 C -0.46875 -6.484375 -0.25 -5.3125 -0.25 -4.640625 C -0.25 -3.6875 -1.03125 -2.109375 -3.921875 -2.109375 C -6.859375 -2.109375 -7.609375 -3.578125 -7.609375 -4.53125 C -7.609375 -4.703125 -7.59375 -5.828125 -6.953125 -6.46875 C -6.890625 -5.71875 -6.359375 -5.609375 -6.125 -5.609375 C -5.65625 -5.609375 -5.296875 -5.9375 -5.296875 -6.4375 C -5.296875 -6.90625 -5.59375 -7.265625 -6.140625 -7.265625 C -7.359375 -7.265625 -8.0625 -5.90625 -8.0625 -4.515625 C -8.0625 -2.265625 -6.125 -0.609375 -3.890625 -0.609375 C -1.578125 -0.609375 0.203125 -2.390625 0.203125 -4.484375 C 0.203125 -6.890625 -1.96875 -7.46875 -2.140625 -7.46875 Z M -2.140625 -7.46875 "/>
</g>
<g id="glyph-10-0-36c164a2">
<path d="M -2.234375 -5.96875 L -3.265625 -5.96875 L -3.265625 -5.53125 L -2.265625 -5.53125 C -0.9375 -5.53125 -0.25 -4.984375 -0.25 -4.3125 C -0.25 -3.109375 -1.890625 -3.109375 -2.203125 -3.109375 L -7.203125 -3.109375 L -7.203125 -5.6875 L -7.765625 -5.6875 L -7.765625 -3.109375 L -11.0625 -3.109375 L -11.0625 -2.65625 C -9.59375 -2.640625 -7.671875 -2.109375 -7.59375 -0.34375 L -7.203125 -0.34375 L -7.203125 -1.875 L -2.234375 -1.875 C -0.015625 -1.875 0.203125 -3.546875 0.203125 -4.1875 C 0.203125 -5.46875 -1.078125 -5.96875 -2.234375 -5.96875 Z M -2.234375 -5.96875 "/>
</g>
<g id="glyph-11-0-36c164a2">
<path d="M 0 -4.453125 L -0.5625 -4.453125 C -0.5625 -3.265625 -0.640625 -3.1875 -1.34375 -3.1875 L -7.953125 -3.1875 L -7.765625 -0.671875 L -7.203125 -0.671875 C -7.203125 -1.84375 -7.09375 -2 -6.203125 -2 L -1.375 -2 C -0.5625 -2 -0.5625 -1.796875 -0.5625 -0.59375 L 0 -0.59375 L -0.046875 -2.578125 C -0.046875 -3.203125 -0.015625 -3.828125 0 -4.453125 Z M -10.875 -3.453125 C -11.359375 -3.453125 -11.828125 -3.046875 -11.828125 -2.5 C -11.828125 -1.890625 -11.328125 -1.53125 -10.875 -1.53125 C -10.390625 -1.53125 -9.921875 -1.9375 -9.921875 -2.484375 C -9.921875 -3.09375 -10.421875 -3.453125 -10.875 -3.453125 Z M -10.875 -3.453125 "/>
</g>
<g id="glyph-12-0-36c164a2">
<path d="M -3.859375 -8.484375 C -6.15625 -8.484375 -8.0625 -6.671875 -8.0625 -4.5 C -8.0625 -2.25 -6.109375 -0.5 -3.859375 -0.5 C -1.53125 -0.5 0.203125 -2.375 0.203125 -4.484375 C 0.203125 -6.65625 -1.5625 -8.484375 -3.859375 -8.484375 Z M -4 -6.984375 C -3.34375 -6.984375 -2.375 -6.984375 -1.578125 -6.59375 C -0.78125 -6.1875 -0.25 -5.40625 -0.25 -4.5 C -0.25 -3.71875 -0.625 -2.9375 -1.453125 -2.453125 C -2.25 -2 -3.34375 -2 -4 -2 C -4.703125 -2 -5.671875 -2 -6.46875 -2.4375 C -7.296875 -2.921875 -7.671875 -3.765625 -7.671875 -4.484375 C -7.671875 -5.28125 -7.265625 -6.046875 -6.5 -6.515625 C -5.71875 -6.984375 -4.6875 -6.984375 -4 -6.984375 Z M -4 -6.984375 "/>
</g>
<g id="glyph-13-0-36c164a2">
<path d="M 0 -9.625 L -0.5625 -9.625 C -0.5625 -8.6875 -0.5625 -8.25 -1.09375 -8.21875 L -4.53125 -8.21875 C -6.078125 -8.21875 -6.640625 -8.21875 -7.296875 -7.671875 C -7.59375 -7.421875 -7.953125 -6.828125 -7.953125 -5.78125 C -7.953125 -4.46875 -7.1875 -3.625 -6.0625 -3.109375 L -7.953125 -3.109375 L -7.765625 -0.578125 L -7.203125 -0.578125 C -7.203125 -1.84375 -7.078125 -1.984375 -6.1875 -1.984375 L -1.375 -1.984375 C -0.5625 -1.984375 -0.5625 -1.78125 -0.5625 -0.578125 L 0 -0.578125 L -0.046875 -2.609375 L 0 -4.625 L -0.5625 -4.625 C -0.5625 -3.421875 -0.5625 -3.21875 -1.375 -3.21875 L -4.6875 -3.21875 C -6.546875 -3.21875 -7.5625 -4.5 -7.5625 -5.65625 C -7.5625 -6.78125 -6.59375 -6.984375 -5.5625 -6.984375 L -1.375 -6.984375 C -0.5625 -6.984375 -0.5625 -6.78125 -0.5625 -5.578125 L 0 -5.578125 L -0.046875 -7.609375 Z M 0 -9.625 "/>
</g>
<g id="glyph-14-0-36c164a2">
<path d="M 8.28125 -5.765625 C 8.28125 -7.203125 8.1875 -8.640625 7.5625 -9.96875 C 6.734375 -11.703125 5.25 -11.984375 4.5 -11.984375 C 3.421875 -11.984375 2.109375 -11.515625 1.375 -9.84375 C 0.796875 -8.609375 0.703125 -7.203125 0.703125 -5.765625 C 0.703125 -4.40625 0.78125 -2.796875 1.515625 -1.421875 C 2.28125 0.03125 3.59375 0.390625 4.484375 0.390625 C 5.453125 0.390625 6.828125 0.015625 7.609375 -1.6875 C 8.1875 -2.9375 8.28125 -4.34375 8.28125 -5.765625 Z M 6.78125 -5.96875 C 6.78125 -4.625 6.78125 -3.40625 6.59375 -2.25 C 6.3125 -0.546875 5.296875 0 4.484375 0 C 3.78125 0 2.71875 -0.453125 2.390625 -2.171875 C 2.203125 -3.265625 2.203125 -4.90625 2.203125 -5.96875 C 2.203125 -7.125 2.203125 -8.3125 2.34375 -9.28125 C 2.6875 -11.4375 4.03125 -11.59375 4.484375 -11.59375 C 5.078125 -11.59375 6.265625 -11.265625 6.609375 -9.484375 C 6.78125 -8.484375 6.78125 -7.109375 6.78125 -5.96875 Z M 6.78125 -5.96875 "/>
</g>
<g id="glyph-14-1-36c164a2">
<path d="M 7.546875 0 L 7.546875 -0.5625 L 6.96875 -0.5625 C 5.34375 -0.5625 5.296875 -0.75 5.296875 -1.421875 L 5.296875 -11.515625 C 5.296875 -11.953125 5.296875 -11.984375 4.875 -11.984375 C 3.765625 -10.828125 2.171875 -10.828125 1.609375 -10.828125 L 1.609375 -10.28125 C 1.96875 -10.28125 3.03125 -10.28125 3.953125 -10.75 L 3.953125 -1.421875 C 3.953125 -0.78125 3.90625 -0.5625 2.28125 -0.5625 L 1.703125 -0.5625 L 1.703125 0 C 2.34375 -0.046875 3.90625 -0.046875 4.625 -0.046875 C 5.34375 -0.046875 6.90625 -0.046875 7.546875 0 Z M 7.546875 0 "/>
</g>
<g id="glyph-15-0-36c164a2">
<path d="M 8.484375 -2.96875 L 8.484375 -3.53125 L 6.671875 -3.53125 L 6.671875 -11.71875 C 6.671875 -12.078125 6.671875 -12.1875 6.390625 -12.1875 C 6.234375 -12.1875 6.171875 -12.1875 6.03125 -11.96875 L 0.5 -3.53125 L 0.5 -2.96875 L 5.296875 -2.96875 L 5.296875 -1.40625 C 5.296875 -0.75 5.25 -0.5625 3.921875 -0.5625 L 3.546875 -0.5625 L 3.546875 0 C 4.28125 -0.046875 5.21875 -0.046875 5.96875 -0.046875 C 6.734375 -0.046875 7.6875 -0.046875 8.421875 0 L 8.421875 -0.5625 L 8.046875 -0.5625 C 6.71875 -0.5625 6.671875 -0.75 6.671875 -1.40625 L 6.671875 -2.96875 Z M 5.40625 -3.53125 L 1.015625 -3.53125 L 5.40625 -10.234375 Z M 5.40625 -3.53125 "/>
</g>
</g>
</defs>
<rect x="-60" y="-48" width="720" height="576" fill="rgb(100%, 100%, 100%)" fill-opacity="1"/>
<path fill-rule="nonzero" fill="rgb(92.156863%, 92.156863%, 92.156863%)" fill-opacity="1" d="M 77 358 L 584 358 L 584 16 L 77 16 Z M 77 358 "/>
<path fill="none" stroke-width="1.5" stroke-linecap="butt" stroke-linejoin="miter" stroke="rgb(100%, 100%, 100%)" stroke-opacity="1" stroke-miterlimit="1.154701" d="M 165.890625 358 L 165.890625 16 "/>
<path fill="none" stroke-width="1.5" stroke-linecap="butt" stroke-linejoin="miter" stroke="rgb(100%, 100%, 100%)" stroke-opacity="1" stroke-miterlimit="1.154701" d="M 330.5 358 L 330.5 16 "/>
<path fill="none" stroke-width="1.5" stroke-linecap="butt" stroke-linejoin="miter" stroke="rgb(100%, 100%, 100%)" stroke-opacity="1" stroke-miterlimit="1.154701" d="M 495.109375 358 L 495.109375 16 "/>
<path fill="none" stroke-width="1" stroke-linecap="butt" stroke-linejoin="miter" stroke="rgb(100%, 100%, 100%)" stroke-opacity="0.5" stroke-miterlimit="1.154701" d="M 83.585938 358 L 83.585938 16 "/>
<path fill="none" stroke-width="1" stroke-linecap="butt" stroke-linejoin="miter" stroke="rgb(100%, 100%, 100%)" stroke-opacity="0.5" stroke-miterlimit="1.154701" d="M 248.195312 358 L 248.195312 16 "/>
<path fill="none" stroke-width="1" stroke-linecap="butt" stroke-linejoin="miter" stroke="rgb(100%, 100%, 100%)" stroke-opacity="0.5" stroke-miterlimit="1.154701" d="M 412.804688 358 L 412.804688 16 "/>
<path fill="none" stroke-width="1" stroke-linecap="butt" stroke-linejoin="miter" stroke="rgb(100%, 100%, 100%)" stroke-opacity="0.5" stroke-miterlimit="1.154701" d="M 577.414062 358 L 577.414062 16 "/>
<path fill="none" stroke-width="1.5" stroke-linecap="butt" stroke-linejoin="miter" stroke="rgb(100%, 100%, 100%)" stroke-opacity="1" stroke-miterlimit="1.154701" d="M 77 299.875 L 584 299.875 "/>
<path fill="none" stroke-width="1.5" stroke-linecap="butt" stroke-linejoin="miter" stroke="rgb(100%, 100%, 100%)" stroke-opacity="1" stroke-miterlimit="1.154701" d="M 77 187 L 584 187 "/>
<path fill="none" stroke-width="1.5" stroke-linecap="butt" stroke-linejoin="miter" stroke="rgb(100%, 100%, 100%)" stroke-opacity="1" stroke-miterlimit="1.154701" d="M 77 74.125 L 584 74.125 "/>
<path fill="none" stroke-width="1" stroke-linecap="butt" stroke-linejoin="miter" stroke="rgb(100%, 100%, 100%)" stroke-opacity="0.5" stroke-miterlimit="1.154701" d="M 77 356.3125 L 584 356.3125 "/>
<path fill="none" stroke-width="1" stroke-linecap="butt" stroke-linejoin="miter" stroke="rgb(100%, 100%, 100%)" stroke-opacity="0.5" stroke-miterlimit="1.154701" d="M 77 243.4375 L 584 243.4375 "/>
<path fill="none" stroke-width="1" stroke-linecap="butt" stroke-linejoin="miter" stroke="rgb(100%, 100%, 100%)" stroke-opacity="0.5" stroke-miterlimit="1.154701" d="M 77 130.5625 L 584 130.5625 "/>
<path fill="none" stroke-width="1" stroke-linecap="butt" stroke-linejoin="miter" stroke="rgb(100%, 100%, 100%)" stroke-opacity="0.5" stroke-miterlimit="1.154701" d="M 77 17.6875 L 584 17.6875 "/>
<g fill="rgb(0%, 0%, 0%)" fill-opacity="1">
<use xlink:href="#glyph-0-0-36c164a2" x="326.819008" y="399.507995"/>
</g>
<g fill="rgb(30.980393%, 30.980393%, 30.980393%)" fill-opacity="1">
<use xlink:href="#glyph-1-0-36c164a2" x="154.387622" y="378.507994"/>
<use xlink:href="#glyph-1-1-36c164a2" x="168.391622" y="378.507994"/>
</g>
<g fill="rgb(30.980393%, 30.980393%, 30.980393%)" fill-opacity="1">
<use xlink:href="#glyph-1-2-36c164a2" x="326.000008" y="378.507994"/>
</g>
<g fill="rgb(30.980393%, 30.980393%, 30.980393%)" fill-opacity="1">
<use xlink:href="#glyph-1-1-36c164a2" x="490.610394" y="378.507994"/>
</g>
<g fill="rgb(0%, 0%, 0%)" fill-opacity="1">
<use xlink:href="#glyph-2-0-36c164a2" x="30.504" y="242.718978"/>
</g>
<g fill="rgb(0%, 0%, 0%)" fill-opacity="1">
<use xlink:href="#glyph-3-0-36c164a2" x="30.504" y="229.974978"/>
</g>
<g fill="rgb(0%, 0%, 0%)" fill-opacity="1">
<use xlink:href="#glyph-4-0-36c164a2" x="30.504001" y="220.974977"/>
</g>
<g fill="rgb(0%, 0%, 0%)" fill-opacity="1">
<use xlink:href="#glyph-5-0-36c164a2" x="30.504001" y="213.88298"/>
</g>
<g fill="rgb(0%, 0%, 0%)" fill-opacity="1">
<use xlink:href="#glyph-3-1-36c164a2" x="30.504002" y="208.878982"/>
</g>
<g fill="rgb(0%, 0%, 0%)" fill-opacity="1">
<use xlink:href="#glyph-6-0-36c164a2" x="30.504002" y="201.786983"/>
</g>
<g fill="rgb(0%, 0%, 0%)" fill-opacity="1">
<use xlink:href="#glyph-7-0-36c164a2" x="30.504003" y="195.810981"/>
</g>
<g fill="rgb(0%, 0%, 0%)" fill-opacity="1">
<use xlink:href="#glyph-8-0-36c164a2" x="30.504003" y="190.302982"/>
</g>
<g fill="rgb(0%, 0%, 0%)" fill-opacity="1">
<use xlink:href="#glyph-2-1-36c164a2" x="30.504004" y="180.294983"/>
</g>
<g fill="rgb(0%, 0%, 0%)" fill-opacity="1">
<use xlink:href="#glyph-9-0-36c164a2" x="30.504004" y="170.286988"/>
</g>
<g fill="rgb(0%, 0%, 0%)" fill-opacity="1">
<use xlink:href="#glyph-10-0-36c164a2" x="30.504005" y="162.294991"/>
</g>
<g fill="rgb(0%, 0%, 0%)" fill-opacity="1">
<use xlink:href="#glyph-11-0-36c164a2" x="30.504005" y="155.292992"/>
</g>
<g fill="rgb(0%, 0%, 0%)" fill-opacity="1">
<use xlink:href="#glyph-12-0-36c164a2" x="30.504005" y="150.288996"/>
</g>
<g fill="rgb(0%, 0%, 0%)" fill-opacity="1">
<use xlink:href="#glyph-13-0-36c164a2" x="30.504006" y="141.288995"/>
</g>
<g fill="rgb(30.980393%, 30.980393%, 30.980393%)" fill-opacity="1">
<use xlink:href="#glyph-1-0-36c164a2" x="36.996003" y="305.383326"/>
<use xlink:href="#glyph-1-3-36c164a2" x="51.000003" y="305.383326"/>
<use xlink:href="#glyph-1-2-36c164a2" x="60.000003" y="305.383326"/>
</g>
<g fill="rgb(30.980393%, 30.980393%, 30.980393%)" fill-opacity="1">
<use xlink:href="#glyph-1-2-36c164a2" x="60.000001" y="192.507984"/>
</g>
<g fill="rgb(30.980393%, 30.980393%, 30.980393%)" fill-opacity="1">
<use xlink:href="#glyph-1-3-36c164a2" x="51.000001" y="79.632643"/>
<use xlink:href="#glyph-1-2-36c164a2" x="60.000001" y="79.632643"/>
</g>
<path fill="none" stroke-width="1.5" stroke-linecap="butt" stroke-linejoin="miter" stroke="rgb(0%, 44.705883%, 69.803923%)" stroke-opacity="1" stroke-miterlimit="2" d="M 100.046875 181.355469 L 560.953125 181.355469 "/>
<path fill="none" stroke-width="1.5" stroke-linecap="butt" stroke-linejoin="miter" stroke="rgb(90.196079%, 62.352943%, 0%)" stroke-opacity="1" stroke-miterlimit="2" d="M 100.046875 214.933594 L 103.335938 214.535156 L 116.507812 212.941406 L 119.796875 212.539062 L 132.96875 210.945312 L 136.257812 210.546875 L 139.550781 210.144531 L 152.722656 208.550781 L 156.011719 208.152344 L 159.304688 207.75 L 169.183594 206.554688 L 172.472656 206.15625 L 179.058594 205.359375 L 182.351562 204.957031 L 185.644531 204.558594 L 188.933594 204.160156 L 198.8125 202.964844 L 202.105469 202.5625 L 205.394531 202.164062 L 218.566406 200.570312 L 221.855469 200.167969 L 235.027344 198.574219 L 238.316406 198.175781 L 241.609375 197.773438 L 251.488281 196.578125 L 254.777344 196.179688 L 258.070312 195.78125 L 261.363281 195.378906 L 271.242188 194.183594 L 274.53125 193.785156 L 277.824219 193.386719 L 281.117188 192.984375 L 287.703125 192.1875 L 290.992188 191.789062 L 297.578125 190.992188 L 300.871094 190.589844 L 304.164062 190.191406 L 307.453125 189.792969 L 317.332031 188.597656 L 320.625 188.195312 L 323.914062 187.796875 L 337.085938 186.203125 L 340.375 185.804688 L 343.667969 185.402344 L 353.546875 184.207031 L 356.835938 183.808594 L 360.128906 183.410156 L 363.421875 183.007812 L 370.007812 182.210938 L 373.296875 181.8125 L 379.882812 181.015625 L 383.175781 180.613281 L 386.46875 180.214844 L 389.757812 179.816406 L 399.636719 178.621094 L 402.929688 178.21875 L 406.222656 177.820312 L 409.511719 177.421875 L 419.390625 176.226562 L 422.683594 175.824219 L 425.972656 175.425781 L 439.144531 173.832031 L 442.433594 173.429688 L 455.605469 171.835938 L 458.894531 171.4375 L 462.1875 171.035156 L 472.066406 169.839844 L 475.355469 169.441406 L 478.648438 169.042969 L 481.941406 168.640625 L 488.527344 167.84375 L 491.816406 167.445312 L 501.695312 166.25 L 504.988281 165.847656 L 508.277344 165.449219 L 521.449219 163.855469 L 524.742188 163.453125 L 528.03125 163.054688 L 541.203125 161.460938 L 544.492188 161.058594 L 557.664062 159.464844 L 560.953125 159.066406 "/>
<path fill="none" stroke-width="1.5" stroke-linecap="butt" stroke-linejoin="miter" stroke="rgb(0%, 61.960787%, 45.09804%)" stroke-opacity="1" stroke-miterlimit="2" d="M 100.046875 82.613281 L 103.335938 84.472656 L 109.921875 88.183594 L 113.214844 90.042969 L 116.507812 91.898438 L 119.796875 93.753906 L 123.089844 95.613281 L 129.675781 99.324219 L 132.96875 101.183594 L 136.257812 103.039062 L 139.550781 104.894531 L 142.84375 106.753906 L 149.429688 110.464844 L 152.722656 112.324219 L 156.011719 114.179688 L 159.304688 116.035156 L 162.597656 117.894531 L 169.183594 121.605469 L 172.472656 123.464844 L 179.058594 127.175781 L 182.351562 129.035156 L 185.644531 130.890625 L 188.933594 132.746094 L 192.226562 134.605469 L 198.8125 138.316406 L 202.105469 140.175781 L 205.394531 142.03125 L 208.6875 143.886719 L 211.980469 145.746094 L 218.566406 149.457031 L 221.855469 151.316406 L 228.441406 155.027344 L 231.734375 156.886719 L 235.027344 158.742188 L 238.316406 160.597656 L 241.609375 162.457031 L 248.195312 166.167969 L 251.488281 168.027344 L 254.777344 169.878906 L 258.070312 171.675781 L 261.363281 173.390625 L 264.65625 175.027344 L 267.949219 176.585938 L 271.242188 178.0625 L 274.53125 179.457031 L 277.824219 180.773438 L 281.117188 182.011719 L 284.410156 183.167969 L 287.703125 184.246094 L 290.992188 185.242188 L 294.285156 186.160156 L 297.578125 187 L 300.871094 187.757812 L 304.164062 188.4375 L 307.453125 189.035156 L 310.746094 189.554688 L 314.039062 189.992188 L 317.332031 190.351562 L 320.625 190.632812 L 323.914062 190.832031 L 327.207031 190.949219 L 330.5 190.992188 L 333.792969 190.949219 L 337.085938 190.832031 L 340.375 190.632812 L 343.667969 190.351562 L 346.960938 189.992188 L 350.253906 189.554688 L 353.546875 189.035156 L 356.835938 188.4375 L 360.128906 187.757812 L 363.421875 187 L 366.714844 186.160156 L 370.007812 185.242188 L 373.296875 184.246094 L 376.589844 183.167969 L 379.882812 182.011719 L 383.175781 180.773438 L 386.46875 179.457031 L 389.757812 178.0625 L 393.050781 176.585938 L 396.34375 175.027344 L 399.636719 173.390625 L 402.929688 171.675781 L 406.222656 169.878906 L 409.511719 168.027344 L 412.804688 166.167969 L 419.390625 162.457031 L 422.683594 160.597656 L 425.972656 158.742188 L 429.265625 156.886719 L 432.558594 155.027344 L 439.144531 151.316406 L 442.433594 149.457031 L 449.019531 145.746094 L 452.3125 143.886719 L 455.605469 142.03125 L 458.894531 140.175781 L 462.1875 138.316406 L 468.773438 134.605469 L 472.066406 132.746094 L 475.355469 130.890625 L 478.648438 129.035156 L 481.941406 127.175781 L 488.527344 123.464844 L 491.816406 121.605469 L 498.402344 117.894531 L 501.695312 116.035156 L 504.988281 114.179688 L 508.277344 112.324219 L 511.570312 110.464844 L 518.15625 106.753906 L 521.449219 104.894531 L 524.742188 103.039062 L 528.03125 101.183594 L 531.324219 99.324219 L 537.910156 95.613281 L 541.203125 93.753906 L 544.492188 91.898438 L 547.785156 90.042969 L 551.078125 88.183594 L 557.664062 84.472656 L 560.953125 82.613281 "/>
<path fill="none" stroke-width="1.5" stroke-linecap="butt" stroke-linejoin="miter" stroke="rgb(80.000001%, 47.450981%, 65.490198%)" stroke-opacity="1" stroke-miterlimit="2" d="M 100.046875 342.453125 L 103.335938 339.40625 L 109.921875 333.304688 L 113.214844 330.257812 L 116.507812 327.207031 L 119.796875 324.15625 L 123.089844 321.109375 L 132.96875 311.957031 L 136.257812 308.910156 L 142.84375 302.808594 L 146.136719 299.761719 L 152.722656 293.660156 L 156.011719 290.613281 L 162.597656 284.511719 L 165.890625 281.464844 L 169.183594 278.414062 L 172.472656 275.363281 L 175.765625 272.3125 L 179.058594 269.265625 L 185.644531 263.164062 L 188.933594 260.117188 L 195.519531 254.015625 L 198.8125 250.96875 L 202.105469 247.917969 L 205.394531 244.867188 L 208.6875 241.820312 L 218.566406 232.667969 L 221.855469 229.621094 L 228.441406 223.519531 L 231.734375 220.472656 L 235.027344 217.421875 L 238.316406 214.371094 L 241.609375 211.324219 L 248.195312 205.222656 L 251.488281 202.175781 L 254.777344 199.136719 L 258.070312 196.328125 L 261.363281 193.824219 L 264.65625 191.609375 L 267.949219 189.671875 L 271.242188 187.996094 L 274.53125 186.570312 L 277.824219 185.378906 L 281.117188 184.40625 L 284.410156 183.644531 L 287.703125 183.078125 L 290.992188 182.6875 L 294.285156 182.464844 L 297.578125 182.390625 L 300.871094 182.457031 L 304.164062 182.648438 L 307.453125 182.953125 L 310.746094 183.351562 L 314.039062 183.832031 L 317.332031 184.382812 L 320.625 184.988281 L 323.914062 185.636719 L 327.207031 186.3125 L 333.792969 187.6875 L 337.085938 188.363281 L 340.375 189.011719 L 343.667969 189.617188 L 346.960938 190.167969 L 350.253906 190.648438 L 353.546875 191.046875 L 356.835938 191.351562 L 360.128906 191.542969 L 363.421875 191.609375 L 366.714844 191.535156 L 370.007812 191.3125 L 373.296875 190.921875 L 376.589844 190.355469 L 379.882812 189.59375 L 383.175781 188.621094 L 386.46875 187.429688 L 389.757812 186.003906 L 393.050781 184.328125 L 396.34375 182.390625 L 399.636719 180.175781 L 402.929688 177.671875 L 406.222656 174.863281 L 409.511719 171.824219 L 412.804688 168.777344 L 419.390625 162.675781 L 422.683594 159.628906 L 425.972656 156.578125 L 429.265625 153.527344 L 432.558594 150.480469 L 439.144531 144.378906 L 442.433594 141.332031 L 452.3125 132.179688 L 455.605469 129.132812 L 458.894531 126.082031 L 462.1875 123.03125 L 465.480469 119.984375 L 472.066406 113.882812 L 475.355469 110.835938 L 481.941406 104.734375 L 485.234375 101.6875 L 488.527344 98.636719 L 491.816406 95.585938 L 495.109375 92.535156 L 498.402344 89.488281 L 504.988281 83.386719 L 508.277344 80.339844 L 514.863281 74.238281 L 518.15625 71.191406 L 524.742188 65.089844 L 528.03125 62.042969 L 537.910156 52.890625 L 541.203125 49.84375 L 544.492188 46.792969 L 547.785156 43.742188 L 551.078125 40.695312 L 557.664062 34.59375 L 560.953125 31.546875 "/>
<path fill="none" stroke-width="1.5" stroke-linecap="butt" stroke-linejoin="miter" stroke="rgb(33.725491%, 70.588237%, 91.37255%)" stroke-opacity="1" stroke-miterlimit="2" d="M 100.046875 66.371094 L 103.335938 68.957031 L 106.628906 71.542969 L 109.921875 74.125 L 116.507812 79.296875 L 119.796875 81.882812 L 132.96875 92.226562 L 136.257812 94.8125 L 139.550781 97.398438 L 142.84375 99.980469 L 152.722656 107.738281 L 156.011719 110.324219 L 169.183594 120.667969 L 172.472656 123.253906 L 175.765625 125.839844 L 179.058594 128.421875 L 185.644531 133.59375 L 188.933594 136.179688 L 202.105469 146.523438 L 205.394531 149.109375 L 211.980469 154.28125 L 215.273438 156.863281 L 218.566406 159.449219 L 221.855469 162.035156 L 235.027344 172.378906 L 238.316406 174.964844 L 244.902344 180.136719 L 248.195312 182.71875 L 251.488281 185.304688 L 254.777344 187.871094 L 258.070312 190.011719 L 261.363281 191.621094 L 264.65625 192.761719 L 267.949219 193.484375 L 271.242188 193.847656 L 274.53125 193.898438 L 277.824219 193.6875 L 281.117188 193.265625 L 284.410156 192.667969 L 287.703125 191.933594 L 290.992188 191.109375 L 294.285156 190.222656 L 300.871094 188.386719 L 304.164062 187.496094 L 307.453125 186.652344 L 310.746094 185.882812 L 314.039062 185.199219 L 317.332031 184.621094 L 320.625 184.15625 L 323.914062 183.820312 L 327.207031 183.613281 L 330.5 183.542969 L 333.792969 183.613281 L 337.085938 183.820312 L 340.375 184.15625 L 343.667969 184.621094 L 346.960938 185.199219 L 350.253906 185.882812 L 353.546875 186.652344 L 356.835938 187.496094 L 360.128906 188.386719 L 366.714844 190.222656 L 370.007812 191.109375 L 373.296875 191.933594 L 376.589844 192.667969 L 379.882812 193.265625 L 383.175781 193.6875 L 386.46875 193.898438 L 389.757812 193.847656 L 393.050781 193.484375 L 396.34375 192.761719 L 399.636719 191.621094 L 402.929688 190.011719 L 406.222656 187.871094 L 409.511719 185.304688 L 412.804688 182.71875 L 416.097656 180.136719 L 422.683594 174.964844 L 425.972656 172.378906 L 439.144531 162.035156 L 442.433594 159.449219 L 445.726562 156.863281 L 449.019531 154.28125 L 455.605469 149.109375 L 458.894531 146.523438 L 472.066406 136.179688 L 475.355469 133.59375 L 481.941406 128.421875 L 485.234375 125.839844 L 488.527344 123.253906 L 491.816406 120.667969 L 504.988281 110.324219 L 508.277344 107.738281 L 518.15625 99.980469 L 521.449219 97.398438 L 524.742188 94.8125 L 528.03125 92.226562 L 541.203125 81.882812 L 544.492188 79.296875 L 551.078125 74.125 L 554.371094 71.542969 L 557.664062 68.957031 L 560.953125 66.371094 "/>
<path fill-rule="nonzero" fill="rgb(92.156863%, 92.156863%, 92.156863%)" fill-opacity="1" d="M 176.632812 421 L 156.632812 421 L 156.632812 441 L 176.632812 441 Z M 176.632812 421 "/>
<path fill-rule="nonzero" fill="rgb(92.156863%, 92.156863%, 92.156863%)" fill-opacity="1" d="M 176.632812 444 L 156.632812 444 L 156.632812 464 L 176.632812 464 Z M 176.632812 444 "/>
<path fill-rule="nonzero" fill="rgb(92.156863%, 92.156863%, 92.156863%)" fill-opacity="1" d="M 297.878906 421 L 277.878906 421 L 277.878906 441 L 297.878906 441 Z M 297.878906 421 "/>
<path fill-rule="nonzero" fill="rgb(92.156863%, 92.156863%, 92.156863%)" fill-opacity="1" d="M 297.878906 444 L 277.878906 444 L 277.878906 464 L 297.878906 464 Z M 297.878906 444 "/>
<path fill-rule="nonzero" fill="rgb(92.156863%, 92.156863%, 92.156863%)" fill-opacity="1" d="M 419.121094 421 L 399.121094 421 L 399.121094 441 L 419.121094 441 Z M 419.121094 421 "/>
<path fill="none" stroke-width="1.5" stroke-linecap="butt" stroke-linejoin="miter" stroke="rgb(21.176471%, 21.176471%, 21.176471%)" stroke-opacity="1" stroke-miterlimit="1.154701" d="M 165.890625 358 L 165.890625 362 "/>
<path fill="none" stroke-width="1.5" stroke-linecap="butt" stroke-linejoin="miter" stroke="rgb(21.176471%, 21.176471%, 21.176471%)" stroke-opacity="1" stroke-miterlimit="1.154701" d="M 330.5 358 L 330.5 362 "/>
<path fill="none" stroke-width="1.5" stroke-linecap="butt" stroke-linejoin="miter" stroke="rgb(21.176471%, 21.176471%, 21.176471%)" stroke-opacity="1" stroke-miterlimit="1.154701" d="M 495.109375 358 L 495.109375 362 "/>
<path fill="none" stroke-width="1.5" stroke-linecap="butt" stroke-linejoin="miter" stroke="rgb(21.176471%, 21.176471%, 21.176471%)" stroke-opacity="1" stroke-miterlimit="1.154701" d="M 77 299.875 L 73 299.875 "/>
<path fill="none" stroke-width="1.5" stroke-linecap="butt" stroke-linejoin="miter" stroke="rgb(21.176471%, 21.176471%, 21.176471%)" stroke-opacity="1" stroke-miterlimit="1.154701" d="M 77 187 L 73 187 "/>
<path fill="none" stroke-width="1.5" stroke-linecap="butt" stroke-linejoin="miter" stroke="rgb(21.176471%, 21.176471%, 21.176471%)" stroke-opacity="1" stroke-miterlimit="1.154701" d="M 77 74.125 L 73 74.125 "/>
<path fill="none" stroke-width="1.5" stroke-linecap="butt" stroke-linejoin="miter" stroke="rgb(0%, 44.705883%, 69.803923%)" stroke-opacity="1" stroke-miterlimit="2" d="M 156.632812 431 L 176.632812 431 "/>
<path fill="none" stroke-width="1.5" stroke-linecap="butt" stroke-linejoin="miter" stroke="rgb(90.196079%, 62.352943%, 0%)" stroke-opacity="1" stroke-miterlimit="2" d="M 156.632812 454 L 176.632812 454 "/>
<path fill="none" stroke-width="1.5" stroke-linecap="butt" stroke-linejoin="miter" stroke="rgb(0%, 61.960787%, 45.09804%)" stroke-opacity="1" stroke-miterlimit="2" d="M 277.878906 431 L 297.878906 431 "/>
<path fill="none" stroke-width="1.5" stroke-linecap="butt" stroke-linejoin="miter" stroke="rgb(80.000001%, 47.450981%, 65.490198%)" stroke-opacity="1" stroke-miterlimit="2" d="M 277.878906 454 L 297.878906 454 "/>
<path fill="none" stroke-width="1.5" stroke-linecap="butt" stroke-linejoin="miter" stroke="rgb(33.725491%, 70.588237%, 91.37255%)" stroke-opacity="1" stroke-miterlimit="2" d="M 399.121094 431 L 419.121094 431 "/>
<g fill="rgb(0%, 0%, 0%)" fill-opacity="1">
<use xlink:href="#glyph-1-4-36c164a2" x="181.634003" y="436.399998"/>
<use xlink:href="#glyph-1-5-36c164a2" x="191.642003" y="436.399998"/>
<use xlink:href="#glyph-1-6-36c164a2" x="199.634004" y="436.399998"/>
<use xlink:href="#glyph-1-7-36c164a2" x="208.634004" y="436.399998"/>
<use xlink:href="#glyph-1-5-36c164a2" x="215.690004" y="436.399998"/>
<use xlink:href="#glyph-1-5-36c164a2" x="223.682005" y="436.399998"/>
<use xlink:href="#glyph-1-8-36c164a2" x="235.274004" y="436.399998"/>
</g>
<g fill="rgb(0%, 0%, 0%)" fill-opacity="1">
<use xlink:href="#glyph-14-0-36c164a2" x="252.878001" y="436.399998"/>
</g>
<g fill="rgb(0%, 0%, 0%)" fill-opacity="1">
<use xlink:href="#glyph-1-4-36c164a2" x="181.634003" y="459.399999"/>
<use xlink:href="#glyph-1-5-36c164a2" x="191.642003" y="459.399999"/>
<use xlink:href="#glyph-1-6-36c164a2" x="199.634004" y="459.399999"/>
<use xlink:href="#glyph-1-7-36c164a2" x="208.634004" y="459.399999"/>
<use xlink:href="#glyph-1-5-36c164a2" x="215.690004" y="459.399999"/>
<use xlink:href="#glyph-1-5-36c164a2" x="223.682005" y="459.399999"/>
<use xlink:href="#glyph-1-8-36c164a2" x="235.274004" y="459.399999"/>
</g>
<g fill="rgb(0%, 0%, 0%)" fill-opacity="1">
<use xlink:href="#glyph-14-1-36c164a2" x="252.878001" y="459.399999"/>
</g>
<g fill="rgb(0%, 0%, 0%)" fill-opacity="1">
<use xlink:href="#glyph-1-4-36c164a2" x="302.87801" y="436.399998"/>
<use xlink:href="#glyph-1-5-36c164a2" x="312.886009" y="436.399998"/>
<use xlink:href="#glyph-1-6-36c164a2" x="320.87801" y="436.399998"/>
<use xlink:href="#glyph-1-7-36c164a2" x="329.87801" y="436.399998"/>
<use xlink:href="#glyph-1-5-36c164a2" x="336.93401" y="436.399998"/>
<use xlink:href="#glyph-1-5-36c164a2" x="344.926011" y="436.399998"/>
<use xlink:href="#glyph-1-8-36c164a2" x="356.51801" y="436.399998"/>
<use xlink:href="#glyph-1-3-36c164a2" x="374.122007" y="436.399998"/>
</g>
<g fill="rgb(0%, 0%, 0%)" fill-opacity="1">
<use xlink:href="#glyph-1-4-36c164a2" x="302.87801" y="459.399999"/>
<use xlink:href="#glyph-1-5-36c164a2" x="312.886009" y="459.399999"/>
<use xlink:href="#glyph-1-6-36c164a2" x="320.87801" y="459.399999"/>
<use xlink:href="#glyph-1-7-36c164a2" x="329.87801" y="459.399999"/>
<use xlink:href="#glyph-1-5-36c164a2" x="336.93401" y="459.399999"/>
<use xlink:href="#glyph-1-5-36c164a2" x="344.926011" y="459.399999"/>
<use xlink:href="#glyph-1-8-36c164a2" x="356.51801" y="459.399999"/>
<use xlink:href="#glyph-1-9-36c164a2" x="374.122007" y="459.399999"/>
</g>
<g fill="rgb(0%, 0%, 0%)" fill-opacity="1">
<use xlink:href="#glyph-1-4-36c164a2" x="424.122031" y="436.399998"/>
<use xlink:href="#glyph-1-5-36c164a2" x="434.130031" y="436.399998"/>
<use xlink:href="#glyph-1-6-36c164a2" x="442.122031" y="436.399998"/>
<use xlink:href="#glyph-1-7-36c164a2" x="451.122032" y="436.399998"/>
<use xlink:href="#glyph-1-5-36c164a2" x="458.178032" y="436.399998"/>
<use xlink:href="#glyph-1-5-36c164a2" x="466.170032" y="436.399998"/>
<use xlink:href="#glyph-1-8-36c164a2" x="477.762032" y="436.399998"/>
</g>
<g fill="rgb(0%, 0%, 0%)" fill-opacity="1">
<use xlink:href="#glyph-15-0-36c164a2" x="495.366028" y="436.399998"/>
</g>
</svg>
