<?xml version="1.0" encoding="utf-8"?>
<svg xmlns="http://www.w3.org/2000/svg" xmlns:xlink="http://www.w3.org/1999/xlink" width="600" height="400" viewBox="0 0 2400 1600">
<defs>
  <clipPath id="clip590">
    <rect x="0" y="0" width="2400" height="1600"/>
  </clipPath>
</defs>
<path clip-path="url(#clip590)" d="M0 1600 L2400 1600 L2400 0 L0 0  Z" fill="#ffffff" fill-rule="evenodd" fill-opacity="1"/>
<defs>
  <clipPath id="clip591">
    <rect x="257" y="123" width="2097" height="1301"/>
  </clipPath>
</defs>
<path clip-path="url(#clip590)" d="M210.746 1423.18 L2352.76 1423.18 L2352.76 123.472 L210.746 123.472  Z" fill="#ffffff" fill-rule="evenodd" fill-opacity="1"/>
<defs>
  <clipPath id="clip592">
    <rect x="210" y="123" width="2143" height="1301"/>
  </clipPath>
</defs>
<polyline clip-path="url(#clip592)" style="stroke:#000000; stroke-linecap:round; stroke-linejoin:round; stroke-width:2; stroke-opacity:0.1; fill:none" points="271.369,1423.18 271.369,123.472 "/>
<polyline clip-path="url(#clip592)" style="stroke:#000000; stroke-linecap:round; stroke-linejoin:round; stroke-width:2; stroke-opacity:0.1; fill:none" points="776.56,1423.18 776.56,123.472 "/>
<polyline clip-path="url(#clip592)" style="stroke:#000000; stroke-linecap:round; stroke-linejoin:round; stroke-width:2; stroke-opacity:0.1; fill:none" points="1281.75,1423.18 1281.75,123.472 "/>
<polyline clip-path="url(#clip592)" style="stroke:#000000; stroke-linecap:round; stroke-linejoin:round; stroke-width:2; stroke-opacity:0.1; fill:none" points="1786.94,1423.18 1786.94,123.472 "/>
<polyline clip-path="url(#clip592)" style="stroke:#000000; stroke-linecap:round; stroke-linejoin:round; stroke-width:2; stroke-opacity:0.1; fill:none" points="2292.13,1423.18 2292.13,123.472 "/>
<polyline clip-path="url(#clip592)" style="stroke:#000000; stroke-linecap:round; stroke-linejoin:round; stroke-width:2; stroke-opacity:0.1; fill:none" points="210.746,1246.15 2352.76,1246.15 "/>
<polyline clip-path="url(#clip592)" style="stroke:#000000; stroke-linecap:round; stroke-linejoin:round; stroke-width:2; stroke-opacity:0.1; fill:none" points="210.746,1028.97 2352.76,1028.97 "/>
<polyline clip-path="url(#clip592)" style="stroke:#000000; stroke-linecap:round; stroke-linejoin:round; stroke-width:2; stroke-opacity:0.1; fill:none" points="210.746,811.794 2352.76,811.794 "/>
<polyline clip-path="url(#clip592)" style="stroke:#000000; stroke-linecap:round; stroke-linejoin:round; stroke-width:2; stroke-opacity:0.1; fill:none" points="210.746,594.615 2352.76,594.615 "/>
<polyline clip-path="url(#clip592)" style="stroke:#000000; stroke-linecap:round; stroke-linejoin:round; stroke-width:2; stroke-opacity:0.1; fill:none" points="210.746,377.435 2352.76,377.435 "/>
<polyline clip-path="url(#clip592)" style="stroke:#000000; stroke-linecap:round; stroke-linejoin:round; stroke-width:2; stroke-opacity:0.1; fill:none" points="210.746,160.256 2352.76,160.256 "/>
<polyline clip-path="url(#clip590)" style="stroke:#000000; stroke-linecap:round; stroke-linejoin:round; stroke-width:4; stroke-opacity:1; fill:none" points="210.746,1423.18 2352.76,1423.18 "/>
<polyline clip-path="url(#clip590)" style="stroke:#000000; stroke-linecap:round; stroke-linejoin:round; stroke-width:4; stroke-opacity:1; fill:none" points="271.369,1423.18 271.369,1404.28 "/>
<polyline clip-path="url(#clip590)" style="stroke:#000000; stroke-linecap:round; stroke-linejoin:round; stroke-width:4; stroke-opacity:1; fill:none" points="776.56,1423.18 776.56,1404.28 "/>
<polyline clip-path="url(#clip590)" style="stroke:#000000; stroke-linecap:round; stroke-linejoin:round; stroke-width:4; stroke-opacity:1; fill:none" points="1281.75,1423.18 1281.75,1404.28 "/>
<polyline clip-path="url(#clip590)" style="stroke:#000000; stroke-linecap:round; stroke-linejoin:round; stroke-width:4; stroke-opacity:1; fill:none" points="1786.94,1423.18 1786.94,1404.28 "/>
<polyline clip-path="url(#clip590)" style="stroke:#000000; stroke-linecap:round; stroke-linejoin:round; stroke-width:4; stroke-opacity:1; fill:none" points="2292.13,1423.18 2292.13,1404.28 "/>
<path clip-path="url(#clip590)" d="M233.672 1454.1 Q230.061 1454.1 228.233 1457.66 Q226.427 1461.2 226.427 1468.33 Q226.427 1475.44 228.233 1479.01 Q230.061 1482.55 233.672 1482.55 Q237.307 1482.55 239.112 1479.01 Q240.941 1475.44 240.941 1468.33 Q240.941 1461.2 239.112 1457.66 Q237.307 1454.1 233.672 1454.1 M233.672 1450.39 Q239.482 1450.39 242.538 1455 Q245.617 1459.58 245.617 1468.33 Q245.617 1477.06 242.538 1481.67 Q239.482 1486.25 233.672 1486.25 Q227.862 1486.25 224.783 1481.67 Q221.728 1477.06 221.728 1468.33 Q221.728 1459.58 224.783 1455 Q227.862 1450.39 233.672 1450.39 Z" fill="#000000" fill-rule="nonzero" fill-opacity="1" /><path clip-path="url(#clip590)" d="M253.834 1479.7 L258.718 1479.7 L258.718 1485.58 L253.834 1485.58 L253.834 1479.7 Z" fill="#000000" fill-rule="nonzero" fill-opacity="1" /><path clip-path="url(#clip590)" d="M278.904 1454.1 Q275.292 1454.1 273.464 1457.66 Q271.658 1461.2 271.658 1468.33 Q271.658 1475.44 273.464 1479.01 Q275.292 1482.55 278.904 1482.55 Q282.538 1482.55 284.343 1479.01 Q286.172 1475.44 286.172 1468.33 Q286.172 1461.2 284.343 1457.66 Q282.538 1454.1 278.904 1454.1 M278.904 1450.39 Q284.714 1450.39 287.769 1455 Q290.848 1459.58 290.848 1468.33 Q290.848 1477.06 287.769 1481.67 Q284.714 1486.25 278.904 1486.25 Q273.093 1486.25 270.015 1481.67 Q266.959 1477.06 266.959 1468.33 Q266.959 1459.58 270.015 1455 Q273.093 1450.39 278.904 1450.39 Z" fill="#000000" fill-rule="nonzero" fill-opacity="1" /><path clip-path="url(#clip590)" d="M309.065 1454.1 Q305.454 1454.1 303.626 1457.66 Q301.82 1461.2 301.82 1468.33 Q301.82 1475.44 303.626 1479.01 Q305.454 1482.55 309.065 1482.55 Q312.7 1482.55 314.505 1479.01 Q316.334 1475.44 316.334 1468.33 Q316.334 1461.2 314.505 1457.66 Q312.7 1454.1 309.065 1454.1 M309.065 1450.39 Q314.876 1450.39 317.931 1455 Q321.01 1459.58 321.01 1468.33 Q321.01 1477.06 317.931 1481.67 Q314.876 1486.25 309.065 1486.25 Q303.255 1486.25 300.177 1481.67 Q297.121 1477.06 297.121 1468.33 Q297.121 1459.58 300.177 1455 Q303.255 1450.39 309.065 1450.39 Z" fill="#000000" fill-rule="nonzero" fill-opacity="1" /><path clip-path="url(#clip590)" d="M739.361 1454.1 Q735.75 1454.1 733.921 1457.66 Q732.116 1461.2 732.116 1468.33 Q732.116 1475.44 733.921 1479.01 Q735.75 1482.55 739.361 1482.55 Q742.995 1482.55 744.801 1479.01 Q746.63 1475.44 746.63 1468.33 Q746.63 1461.2 744.801 1457.66 Q742.995 1454.1 739.361 1454.1 M739.361 1450.39 Q745.171 1450.39 748.227 1455 Q751.305 1459.58 751.305 1468.33 Q751.305 1477.06 748.227 1481.67 Q745.171 1486.25 739.361 1486.25 Q733.551 1486.25 730.472 1481.67 Q727.417 1477.06 727.417 1468.33 Q727.417 1459.58 730.472 1455 Q733.551 1450.39 739.361 1450.39 Z" fill="#000000" fill-rule="nonzero" fill-opacity="1" /><path clip-path="url(#clip590)" d="M759.523 1479.7 L764.407 1479.7 L764.407 1485.58 L759.523 1485.58 L759.523 1479.7 Z" fill="#000000" fill-rule="nonzero" fill-opacity="1" /><path clip-path="url(#clip590)" d="M778.62 1481.64 L794.939 1481.64 L794.939 1485.58 L772.995 1485.58 L772.995 1481.64 Q775.657 1478.89 780.24 1474.26 Q784.847 1469.61 786.027 1468.27 Q788.273 1465.74 789.152 1464.01 Q790.055 1462.25 790.055 1460.56 Q790.055 1457.8 788.111 1456.07 Q786.189 1454.33 783.088 1454.33 Q780.889 1454.33 778.435 1455.09 Q776.004 1455.86 773.227 1457.41 L773.227 1452.69 Q776.051 1451.55 778.504 1450.97 Q780.958 1450.39 782.995 1450.39 Q788.365 1450.39 791.56 1453.08 Q794.754 1455.77 794.754 1460.26 Q794.754 1462.39 793.944 1464.31 Q793.157 1466.2 791.051 1468.8 Q790.472 1469.47 787.37 1472.69 Q784.268 1475.88 778.62 1481.64 Z" fill="#000000" fill-rule="nonzero" fill-opacity="1" /><path clip-path="url(#clip590)" d="M804.8 1451.02 L823.157 1451.02 L823.157 1454.96 L809.083 1454.96 L809.083 1463.43 Q810.101 1463.08 811.12 1462.92 Q812.138 1462.73 813.157 1462.73 Q818.944 1462.73 822.324 1465.9 Q825.703 1469.08 825.703 1474.49 Q825.703 1480.07 822.231 1483.17 Q818.759 1486.25 812.439 1486.25 Q810.263 1486.25 807.995 1485.88 Q805.75 1485.51 803.342 1484.77 L803.342 1480.07 Q805.425 1481.2 807.648 1481.76 Q809.87 1482.32 812.347 1482.32 Q816.351 1482.32 818.689 1480.21 Q821.027 1478.1 821.027 1474.49 Q821.027 1470.88 818.689 1468.77 Q816.351 1466.67 812.347 1466.67 Q810.472 1466.67 808.597 1467.08 Q806.745 1467.5 804.8 1468.38 L804.8 1451.02 Z" fill="#000000" fill-rule="nonzero" fill-opacity="1" /><path clip-path="url(#clip590)" d="M1244.05 1454.1 Q1240.44 1454.1 1238.61 1457.66 Q1236.81 1461.2 1236.81 1468.33 Q1236.81 1475.44 1238.61 1479.01 Q1240.44 1482.55 1244.05 1482.55 Q1247.69 1482.55 1249.49 1479.01 Q1251.32 1475.44 1251.32 1468.33 Q1251.32 1461.2 1249.49 1457.66 Q1247.69 1454.1 1244.05 1454.1 M1244.05 1450.39 Q1249.86 1450.39 1252.92 1455 Q1256 1459.58 1256 1468.33 Q1256 1477.06 1252.92 1481.67 Q1249.86 1486.25 1244.05 1486.25 Q1238.24 1486.25 1235.17 1481.67 Q1232.11 1477.06 1232.11 1468.33 Q1232.11 1459.58 1235.17 1455 Q1238.24 1450.39 1244.05 1450.39 Z" fill="#000000" fill-rule="nonzero" fill-opacity="1" /><path clip-path="url(#clip590)" d="M1264.22 1479.7 L1269.1 1479.7 L1269.1 1485.58 L1264.22 1485.58 L1264.22 1479.7 Z" fill="#000000" fill-rule="nonzero" fill-opacity="1" /><path clip-path="url(#clip590)" d="M1279.33 1451.02 L1297.69 1451.02 L1297.69 1454.96 L1283.61 1454.96 L1283.61 1463.43 Q1284.63 1463.08 1285.65 1462.92 Q1286.67 1462.73 1287.69 1462.73 Q1293.48 1462.73 1296.86 1465.9 Q1300.23 1469.08 1300.23 1474.49 Q1300.23 1480.07 1296.76 1483.17 Q1293.29 1486.25 1286.97 1486.25 Q1284.79 1486.25 1282.53 1485.88 Q1280.28 1485.51 1277.87 1484.77 L1277.87 1480.07 Q1279.96 1481.2 1282.18 1481.76 Q1284.4 1482.32 1286.88 1482.32 Q1290.88 1482.32 1293.22 1480.21 Q1295.56 1478.1 1295.56 1474.49 Q1295.56 1470.88 1293.22 1468.77 Q1290.88 1466.67 1286.88 1466.67 Q1285 1466.67 1283.13 1467.08 Q1281.28 1467.5 1279.33 1468.38 L1279.33 1451.02 Z" fill="#000000" fill-rule="nonzero" fill-opacity="1" /><path clip-path="url(#clip590)" d="M1319.45 1454.1 Q1315.84 1454.1 1314.01 1457.66 Q1312.2 1461.2 1312.2 1468.33 Q1312.2 1475.44 1314.01 1479.01 Q1315.84 1482.55 1319.45 1482.55 Q1323.08 1482.55 1324.89 1479.01 Q1326.72 1475.44 1326.72 1468.33 Q1326.72 1461.2 1324.89 1457.66 Q1323.08 1454.1 1319.45 1454.1 M1319.45 1450.39 Q1325.26 1450.39 1328.31 1455 Q1331.39 1459.58 1331.39 1468.33 Q1331.39 1477.06 1328.31 1481.67 Q1325.26 1486.25 1319.45 1486.25 Q1313.64 1486.25 1310.56 1481.67 Q1307.5 1477.06 1307.5 1468.33 Q1307.5 1459.58 1310.56 1455 Q1313.64 1450.39 1319.45 1450.39 Z" fill="#000000" fill-rule="nonzero" fill-opacity="1" /><path clip-path="url(#clip590)" d="M1749.74 1454.1 Q1746.13 1454.1 1744.3 1457.66 Q1742.5 1461.2 1742.5 1468.33 Q1742.5 1475.44 1744.3 1479.01 Q1746.13 1482.55 1749.74 1482.55 Q1753.38 1482.55 1755.18 1479.01 Q1757.01 1475.44 1757.01 1468.33 Q1757.01 1461.2 1755.18 1457.66 Q1753.38 1454.1 1749.74 1454.1 M1749.74 1450.39 Q1755.55 1450.39 1758.61 1455 Q1761.69 1459.58 1761.69 1468.33 Q1761.69 1477.06 1758.61 1481.67 Q1755.55 1486.25 1749.74 1486.25 Q1743.93 1486.25 1740.85 1481.67 Q1737.8 1477.06 1737.8 1468.33 Q1737.8 1459.58 1740.85 1455 Q1743.93 1450.39 1749.74 1450.39 Z" fill="#000000" fill-rule="nonzero" fill-opacity="1" /><path clip-path="url(#clip590)" d="M1769.91 1479.7 L1774.79 1479.7 L1774.79 1485.58 L1769.91 1485.58 L1769.91 1479.7 Z" fill="#000000" fill-rule="nonzero" fill-opacity="1" /><path clip-path="url(#clip590)" d="M1783.79 1451.02 L1806.02 1451.02 L1806.02 1453.01 L1793.47 1485.58 L1788.59 1485.58 L1800.39 1454.96 L1783.79 1454.96 L1783.79 1451.02 Z" fill="#000000" fill-rule="nonzero" fill-opacity="1" /><path clip-path="url(#clip590)" d="M1815.18 1451.02 L1833.54 1451.02 L1833.54 1454.96 L1819.46 1454.96 L1819.46 1463.43 Q1820.48 1463.08 1821.5 1462.92 Q1822.52 1462.73 1823.54 1462.73 Q1829.33 1462.73 1832.71 1465.9 Q1836.09 1469.08 1836.09 1474.49 Q1836.09 1480.07 1832.61 1483.17 Q1829.14 1486.25 1822.82 1486.25 Q1820.65 1486.25 1818.38 1485.88 Q1816.13 1485.51 1813.72 1484.77 L1813.72 1480.07 Q1815.81 1481.2 1818.03 1481.76 Q1820.25 1482.32 1822.73 1482.32 Q1826.73 1482.32 1829.07 1480.21 Q1831.41 1478.1 1831.41 1474.49 Q1831.41 1470.88 1829.07 1468.77 Q1826.73 1466.67 1822.73 1466.67 Q1820.85 1466.67 1818.98 1467.08 Q1817.13 1467.5 1815.18 1468.38 L1815.18 1451.02 Z" fill="#000000" fill-rule="nonzero" fill-opacity="1" /><path clip-path="url(#clip590)" d="M2244.2 1481.64 L2251.84 1481.64 L2251.84 1455.28 L2243.53 1456.95 L2243.53 1452.69 L2251.8 1451.02 L2256.47 1451.02 L2256.47 1481.64 L2264.11 1481.64 L2264.11 1485.58 L2244.2 1485.58 L2244.2 1481.64 Z" fill="#000000" fill-rule="nonzero" fill-opacity="1" /><path clip-path="url(#clip590)" d="M2273.56 1479.7 L2278.44 1479.7 L2278.44 1485.58 L2273.56 1485.58 L2273.56 1479.7 Z" fill="#000000" fill-rule="nonzero" fill-opacity="1" /><path clip-path="url(#clip590)" d="M2298.63 1454.1 Q2295.01 1454.1 2293.19 1457.66 Q2291.38 1461.2 2291.38 1468.33 Q2291.38 1475.44 2293.19 1479.01 Q2295.01 1482.55 2298.63 1482.55 Q2302.26 1482.55 2304.07 1479.01 Q2305.89 1475.44 2305.89 1468.33 Q2305.89 1461.2 2304.07 1457.66 Q2302.26 1454.1 2298.63 1454.1 M2298.63 1450.39 Q2304.44 1450.39 2307.49 1455 Q2310.57 1459.58 2310.57 1468.33 Q2310.57 1477.06 2307.49 1481.67 Q2304.44 1486.25 2298.63 1486.25 Q2292.82 1486.25 2289.74 1481.67 Q2286.68 1477.06 2286.68 1468.33 Q2286.68 1459.58 2289.74 1455 Q2292.82 1450.39 2298.63 1450.39 Z" fill="#000000" fill-rule="nonzero" fill-opacity="1" /><path clip-path="url(#clip590)" d="M2328.79 1454.1 Q2325.18 1454.1 2323.35 1457.66 Q2321.54 1461.2 2321.54 1468.33 Q2321.54 1475.44 2323.35 1479.01 Q2325.18 1482.55 2328.79 1482.55 Q2332.42 1482.55 2334.23 1479.01 Q2336.06 1475.44 2336.06 1468.33 Q2336.06 1461.2 2334.23 1457.66 Q2332.42 1454.1 2328.79 1454.1 M2328.79 1450.39 Q2334.6 1450.39 2337.65 1455 Q2340.73 1459.58 2340.73 1468.33 Q2340.73 1477.06 2337.65 1481.67 Q2334.6 1486.25 2328.79 1486.25 Q2322.98 1486.25 2319.9 1481.67 Q2316.84 1477.06 2316.84 1468.33 Q2316.84 1459.58 2319.9 1455 Q2322.98 1450.39 2328.79 1450.39 Z" fill="#000000" fill-rule="nonzero" fill-opacity="1" /><path clip-path="url(#clip590)" d="M1268.24 1532.4 L1296.06 1532.4 L1296.06 1537.74 L1274.03 1563.37 L1296.06 1563.37 L1296.06 1568.04 L1267.44 1568.04 L1267.44 1562.7 L1289.47 1537.07 L1268.24 1537.07 L1268.24 1532.4 Z" fill="#000000" fill-rule="nonzero" fill-opacity="1" /><polyline clip-path="url(#clip590)" style="stroke:#000000; stroke-linecap:round; stroke-linejoin:round; stroke-width:4; stroke-opacity:1; fill:none" points="210.746,1423.18 210.746,123.472 "/>
<polyline clip-path="url(#clip590)" style="stroke:#000000; stroke-linecap:round; stroke-linejoin:round; stroke-width:4; stroke-opacity:1; fill:none" points="210.746,1246.15 229.644,1246.15 "/>
<polyline clip-path="url(#clip590)" style="stroke:#000000; stroke-linecap:round; stroke-linejoin:round; stroke-width:4; stroke-opacity:1; fill:none" points="210.746,1028.97 229.644,1028.97 "/>
<polyline clip-path="url(#clip590)" style="stroke:#000000; stroke-linecap:round; stroke-linejoin:round; stroke-width:4; stroke-opacity:1; fill:none" points="210.746,811.794 229.644,811.794 "/>
<polyline clip-path="url(#clip590)" style="stroke:#000000; stroke-linecap:round; stroke-linejoin:round; stroke-width:4; stroke-opacity:1; fill:none" points="210.746,594.615 229.644,594.615 "/>
<polyline clip-path="url(#clip590)" style="stroke:#000000; stroke-linecap:round; stroke-linejoin:round; stroke-width:4; stroke-opacity:1; fill:none" points="210.746,377.435 229.644,377.435 "/>
<polyline clip-path="url(#clip590)" style="stroke:#000000; stroke-linecap:round; stroke-linejoin:round; stroke-width:4; stroke-opacity:1; fill:none" points="210.746,160.256 229.644,160.256 "/>
<path clip-path="url(#clip590)" d="M114.631 1246.6 L144.306 1246.6 L144.306 1250.54 L114.631 1250.54 L114.631 1246.6 Z" fill="#000000" fill-rule="nonzero" fill-opacity="1" /><path clip-path="url(#clip590)" d="M158.427 1259.5 L174.746 1259.5 L174.746 1263.43 L152.802 1263.43 L152.802 1259.5 Q155.464 1256.74 160.047 1252.11 Q164.653 1247.46 165.834 1246.12 Q168.079 1243.59 168.959 1241.86 Q169.862 1240.1 169.862 1238.41 Q169.862 1235.65 167.917 1233.92 Q165.996 1232.18 162.894 1232.18 Q160.695 1232.18 158.241 1232.95 Q155.811 1233.71 153.033 1235.26 L153.033 1230.54 Q155.857 1229.4 158.311 1228.83 Q160.765 1228.25 162.802 1228.25 Q168.172 1228.25 171.366 1230.93 Q174.561 1233.62 174.561 1238.11 Q174.561 1240.24 173.751 1242.16 Q172.964 1244.06 170.857 1246.65 Q170.278 1247.32 167.177 1250.54 Q164.075 1253.73 158.427 1259.5 Z" fill="#000000" fill-rule="nonzero" fill-opacity="1" /><path clip-path="url(#clip590)" d="M114.26 1029.42 L143.936 1029.42 L143.936 1033.36 L114.26 1033.36 L114.26 1029.42 Z" fill="#000000" fill-rule="nonzero" fill-opacity="1" /><path clip-path="url(#clip590)" d="M154.839 1042.32 L162.477 1042.32 L162.477 1015.95 L154.167 1017.62 L154.167 1013.36 L162.431 1011.69 L167.107 1011.69 L167.107 1042.32 L174.746 1042.32 L174.746 1046.25 L154.839 1046.25 L154.839 1042.32 Z" fill="#000000" fill-rule="nonzero" fill-opacity="1" /><path clip-path="url(#clip590)" d="M162.802 797.592 Q159.19 797.592 157.362 801.157 Q155.556 804.699 155.556 811.828 Q155.556 818.935 157.362 822.5 Q159.19 826.041 162.802 826.041 Q166.436 826.041 168.241 822.5 Q170.07 818.935 170.07 811.828 Q170.07 804.699 168.241 801.157 Q166.436 797.592 162.802 797.592 M162.802 793.889 Q168.612 793.889 171.667 798.495 Q174.746 803.078 174.746 811.828 Q174.746 820.555 171.667 825.162 Q168.612 829.745 162.802 829.745 Q156.991 829.745 153.913 825.162 Q150.857 820.555 150.857 811.828 Q150.857 803.078 153.913 798.495 Q156.991 793.889 162.802 793.889 Z" fill="#000000" fill-rule="nonzero" fill-opacity="1" /><path clip-path="url(#clip590)" d="M154.839 607.959 L162.477 607.959 L162.477 581.594 L154.167 583.26 L154.167 579.001 L162.431 577.335 L167.107 577.335 L167.107 607.959 L174.746 607.959 L174.746 611.895 L154.839 611.895 L154.839 607.959 Z" fill="#000000" fill-rule="nonzero" fill-opacity="1" /><path clip-path="url(#clip590)" d="M158.427 390.78 L174.746 390.78 L174.746 394.715 L152.802 394.715 L152.802 390.78 Q155.464 388.026 160.047 383.396 Q164.653 378.743 165.834 377.401 Q168.079 374.878 168.959 373.141 Q169.862 371.382 169.862 369.692 Q169.862 366.938 167.917 365.202 Q165.996 363.466 162.894 363.466 Q160.695 363.466 158.241 364.229 Q155.811 364.993 153.033 366.544 L153.033 361.822 Q155.857 360.688 158.311 360.109 Q160.765 359.53 162.802 359.53 Q168.172 359.53 171.366 362.216 Q174.561 364.901 174.561 369.391 Q174.561 371.521 173.751 373.442 Q172.964 375.341 170.857 377.933 Q170.278 378.604 167.177 381.822 Q164.075 385.016 158.427 390.78 Z" fill="#000000" fill-rule="nonzero" fill-opacity="1" /><path clip-path="url(#clip590)" d="M167.616 158.902 Q170.973 159.62 172.848 161.888 Q174.746 164.157 174.746 167.49 Q174.746 172.606 171.227 175.407 Q167.709 178.208 161.227 178.208 Q159.052 178.208 156.737 177.768 Q154.445 177.351 151.991 176.495 L151.991 171.981 Q153.936 173.115 156.251 173.694 Q158.565 174.272 161.089 174.272 Q165.487 174.272 167.778 172.536 Q170.093 170.8 170.093 167.49 Q170.093 164.435 167.94 162.722 Q165.811 160.985 161.991 160.985 L157.964 160.985 L157.964 157.143 L162.177 157.143 Q165.626 157.143 167.454 155.777 Q169.283 154.388 169.283 151.796 Q169.283 149.134 167.385 147.722 Q165.51 146.286 161.991 146.286 Q160.07 146.286 157.871 146.703 Q155.672 147.12 153.033 147.999 L153.033 143.833 Q155.695 143.092 158.01 142.722 Q160.348 142.351 162.408 142.351 Q167.732 142.351 170.834 144.782 Q173.936 147.189 173.936 151.31 Q173.936 154.18 172.292 156.171 Q170.649 158.138 167.616 158.902 Z" fill="#000000" fill-rule="nonzero" fill-opacity="1" /><path clip-path="url(#clip590)" d="M41.3104 989.776 L58.7206 989.776 L58.7206 979.463 Q58.7206 974.275 56.5881 971.793 Q54.4238 969.278 49.9996 969.278 Q45.5436 969.278 43.4429 971.793 Q41.3104 974.275 41.3104 979.463 L41.3104 989.776 M21.7677 989.776 L36.0905 989.776 L36.0905 980.259 Q36.0905 975.549 34.34 973.257 Q32.5576 970.933 28.9291 970.933 Q25.3325 970.933 23.5501 973.257 Q21.7677 975.549 21.7677 980.259 L21.7677 989.776 M16.4842 996.205 L16.4842 979.782 Q16.4842 972.429 19.5397 968.451 Q22.5952 964.472 28.2289 964.472 Q32.5894 964.472 35.1675 966.509 Q37.7456 968.546 38.3822 972.493 Q39.4007 967.751 42.6472 965.141 Q45.8619 962.499 50.6998 962.499 Q57.0655 962.499 60.5348 966.828 Q64.0042 971.156 64.0042 979.145 L64.0042 996.205 L16.4842 996.205 Z" fill="#000000" fill-rule="nonzero" fill-opacity="1" /><path clip-path="url(#clip590)" d="M46.0847 935.54 Q46.0847 942.638 47.7079 945.375 Q49.3312 948.112 53.2461 948.112 Q56.3653 948.112 58.2114 946.075 Q60.0256 944.006 60.0256 940.474 Q60.0256 935.604 56.5881 932.676 Q53.1188 929.715 47.3897 929.715 L46.0847 929.715 L46.0847 935.54 M43.6657 923.859 L64.0042 923.859 L64.0042 929.715 L58.5933 929.715 Q61.8398 931.721 63.3994 934.713 Q64.9272 937.704 64.9272 942.033 Q64.9272 947.508 61.8716 950.754 Q58.7843 953.969 53.6281 953.969 Q47.6125 953.969 44.5569 949.958 Q41.5014 945.916 41.5014 937.927 L41.5014 929.715 L40.9285 929.715 Q36.8862 929.715 34.6901 932.389 Q32.4621 935.031 32.4621 939.837 Q32.4621 942.892 33.1941 945.789 Q33.9262 948.685 35.3903 951.359 L29.9795 951.359 Q28.7381 948.144 28.1334 945.12 Q27.4968 942.097 27.4968 939.232 Q27.4968 931.498 31.5072 927.678 Q35.5176 923.859 43.6657 923.859 Z" fill="#000000" fill-rule="nonzero" fill-opacity="1" /><path clip-path="url(#clip590)" d="M29.4065 889.07 L34.9447 889.07 Q33.6716 891.553 33.035 894.227 Q32.3984 896.9 32.3984 899.765 Q32.3984 904.125 33.7352 906.322 Q35.072 908.486 37.7456 908.486 Q39.7826 908.486 40.9603 906.926 Q42.1061 905.367 43.1565 900.656 L43.6021 898.651 Q44.9389 892.412 47.3897 889.803 Q49.8086 887.161 54.1691 887.161 Q59.1344 887.161 62.0308 891.107 Q64.9272 895.022 64.9272 901.897 Q64.9272 904.762 64.3543 907.881 Q63.8132 910.968 62.6992 914.406 L56.6518 914.406 Q58.3387 911.159 59.198 908.008 Q60.0256 904.857 60.0256 901.77 Q60.0256 897.632 58.6251 895.404 Q57.1929 893.176 54.6147 893.176 Q52.2276 893.176 50.9545 894.8 Q49.6813 896.391 48.5037 901.834 L48.0262 903.871 Q46.8804 909.313 44.5251 911.732 Q42.138 914.151 38.0002 914.151 Q32.9713 914.151 30.2341 910.587 Q27.4968 907.022 27.4968 900.465 Q27.4968 897.219 27.9743 894.354 Q28.4517 891.489 29.4065 889.07 Z" fill="#000000" fill-rule="nonzero" fill-opacity="1" /><path clip-path="url(#clip590)" d="M28.3562 877.835 L28.3562 871.979 L64.0042 871.979 L64.0042 877.835 L28.3562 877.835 M14.479 877.835 L14.479 871.979 L21.895 871.979 L21.895 877.835 L14.479 877.835 Z" fill="#000000" fill-rule="nonzero" fill-opacity="1" /><path clip-path="url(#clip590)" d="M29.4065 836.999 L34.9447 836.999 Q33.6716 839.482 33.035 842.155 Q32.3984 844.829 32.3984 847.693 Q32.3984 852.054 33.7352 854.25 Q35.072 856.414 37.7456 856.414 Q39.7826 856.414 40.9603 854.855 Q42.1061 853.295 43.1565 848.585 L43.6021 846.579 Q44.9389 840.341 47.3897 837.731 Q49.8086 835.089 54.1691 835.089 Q59.1344 835.089 62.0308 839.036 Q64.9272 842.951 64.9272 849.826 Q64.9272 852.69 64.3543 855.81 Q63.8132 858.897 62.6992 862.334 L56.6518 862.334 Q58.3387 859.088 59.198 855.937 Q60.0256 852.786 60.0256 849.699 Q60.0256 845.561 58.6251 843.333 Q57.1929 841.105 54.6147 841.105 Q52.2276 841.105 50.9545 842.728 Q49.6813 844.32 48.5037 849.762 L48.0262 851.799 Q46.8804 857.242 44.5251 859.661 Q42.138 862.08 38.0002 862.08 Q32.9713 862.08 30.2341 858.515 Q27.4968 854.95 27.4968 848.394 Q27.4968 845.147 27.9743 842.283 Q28.4517 839.418 29.4065 836.999 Z" fill="#000000" fill-rule="nonzero" fill-opacity="1" /><path clip-path="url(#clip590)" d="M14.479 786.996 L19.3487 786.996 L19.3487 792.598 Q19.3487 795.749 20.6219 796.99 Q21.895 798.2 25.2052 798.2 L28.3562 798.2 L28.3562 788.556 L32.9077 788.556 L32.9077 798.2 L64.0042 798.2 L64.0042 804.088 L32.9077 804.088 L32.9077 809.69 L28.3562 809.69 L28.3562 804.088 L25.8736 804.088 Q19.9216 804.088 17.2162 801.319 Q14.479 798.55 14.479 792.535 L14.479 786.996 Z" fill="#000000" fill-rule="nonzero" fill-opacity="1" /><path clip-path="url(#clip590)" d="M49.9359 782.699 L28.3562 782.699 L28.3562 776.843 L49.7131 776.843 Q54.7739 776.843 57.3202 774.87 Q59.8346 772.896 59.8346 768.95 Q59.8346 764.207 56.8109 761.47 Q53.7872 758.701 48.5673 758.701 L28.3562 758.701 L28.3562 752.844 L64.0042 752.844 L64.0042 758.701 L58.5296 758.701 Q61.7762 760.833 63.3676 763.666 Q64.9272 766.467 64.9272 770.191 Q64.9272 776.334 61.1078 779.517 Q57.2883 782.699 49.9359 782.699 M27.4968 767.963 L27.4968 767.963 Z" fill="#000000" fill-rule="nonzero" fill-opacity="1" /><path clip-path="url(#clip590)" d="M42.4881 711.149 L64.0042 711.149 L64.0042 717.005 L42.679 717.005 Q37.6183 717.005 35.1038 718.979 Q32.5894 720.952 32.5894 724.899 Q32.5894 729.641 35.6131 732.379 Q38.6368 735.116 43.8567 735.116 L64.0042 735.116 L64.0042 741.004 L28.3562 741.004 L28.3562 735.116 L33.8944 735.116 Q30.6797 733.015 29.0883 730.182 Q27.4968 727.318 27.4968 723.594 Q27.4968 717.451 31.3163 714.3 Q35.1038 711.149 42.4881 711.149 Z" fill="#000000" fill-rule="nonzero" fill-opacity="1" /><path clip-path="url(#clip590)" d="M29.7248 673.814 L35.1993 673.814 Q33.8307 676.297 33.1623 678.811 Q32.4621 681.294 32.4621 683.84 Q32.4621 689.537 36.0905 692.688 Q39.6872 695.839 46.212 695.839 Q52.7369 695.839 56.3653 692.688 Q59.9619 689.537 59.9619 683.84 Q59.9619 681.294 59.2935 678.811 Q58.5933 676.297 57.2247 673.814 L62.6355 673.814 Q63.7814 676.265 64.3543 678.907 Q64.9272 681.517 64.9272 684.477 Q64.9272 692.529 59.8664 697.272 Q54.8057 702.014 46.212 702.014 Q37.491 702.014 32.4939 697.24 Q27.4968 692.434 27.4968 684.095 Q27.4968 681.389 28.0697 678.811 Q28.6108 676.233 29.7248 673.814 Z" fill="#000000" fill-rule="nonzero" fill-opacity="1" /><path clip-path="url(#clip590)" d="M18.2347 657.836 L28.3562 657.836 L28.3562 645.773 L32.9077 645.773 L32.9077 657.836 L52.2594 657.836 Q56.6199 657.836 57.8613 656.658 Q59.1026 655.449 59.1026 651.789 L59.1026 645.773 L64.0042 645.773 L64.0042 651.789 Q64.0042 658.568 61.4897 661.146 Q58.9434 663.724 52.2594 663.724 L32.9077 663.724 L32.9077 668.021 L28.3562 668.021 L28.3562 663.724 L18.2347 663.724 L18.2347 657.836 Z" fill="#000000" fill-rule="nonzero" fill-opacity="1" /><path clip-path="url(#clip590)" d="M28.3562 638.071 L28.3562 632.214 L64.0042 632.214 L64.0042 638.071 L28.3562 638.071 M14.479 638.071 L14.479 632.214 L21.895 632.214 L21.895 638.071 L14.479 638.071 Z" fill="#000000" fill-rule="nonzero" fill-opacity="1" /><path clip-path="url(#clip590)" d="M32.4621 606.147 Q32.4621 610.857 36.1542 613.594 Q39.8145 616.332 46.212 616.332 Q52.6095 616.332 56.3017 613.626 Q59.9619 610.889 59.9619 606.147 Q59.9619 601.468 56.2698 598.731 Q52.5777 595.993 46.212 595.993 Q39.8781 595.993 36.186 598.731 Q32.4621 601.468 32.4621 606.147 M27.4968 606.147 Q27.4968 598.508 32.4621 594.147 Q37.4273 589.787 46.212 589.787 Q54.9649 589.787 59.9619 594.147 Q64.9272 598.508 64.9272 606.147 Q64.9272 613.817 59.9619 618.178 Q54.9649 622.506 46.212 622.506 Q37.4273 622.506 32.4621 618.178 Q27.4968 613.817 27.4968 606.147 Z" fill="#000000" fill-rule="nonzero" fill-opacity="1" /><path clip-path="url(#clip590)" d="M42.4881 550.447 L64.0042 550.447 L64.0042 556.303 L42.679 556.303 Q37.6183 556.303 35.1038 558.276 Q32.5894 560.25 32.5894 564.197 Q32.5894 568.939 35.6131 571.676 Q38.6368 574.414 43.8567 574.414 L64.0042 574.414 L64.0042 580.302 L28.3562 580.302 L28.3562 574.414 L33.8944 574.414 Q30.6797 572.313 29.0883 569.48 Q27.4968 566.616 27.4968 562.892 Q27.4968 556.749 31.3163 553.598 Q35.1038 550.447 42.4881 550.447 Z" fill="#000000" fill-rule="nonzero" fill-opacity="1" /><path clip-path="url(#clip590)" d="M662.246 14.0809 L662.246 22.0612 Q657.588 19.8332 653.456 18.7395 Q649.324 17.6457 645.475 17.6457 Q638.791 17.6457 635.146 20.2383 Q631.54 22.8309 631.54 27.611 Q631.54 31.6214 633.93 33.6873 Q636.361 35.7128 643.085 36.9686 L648.027 37.9813 Q657.183 39.7232 661.517 44.1387 Q665.892 48.5136 665.892 55.8863 Q665.892 64.6767 659.978 69.2137 Q654.104 73.7508 642.721 73.7508 Q638.427 73.7508 633.566 72.7785 Q628.745 71.8063 623.56 69.9024 L623.56 61.4765 Q628.543 64.2716 633.323 65.6895 Q638.103 67.1073 642.721 67.1073 Q649.729 67.1073 653.537 64.3527 Q657.345 61.598 657.345 56.4939 Q657.345 52.0379 654.59 49.5264 Q651.876 47.0148 645.637 45.759 L640.655 44.7868 Q631.5 42.9639 627.408 39.075 Q623.317 35.1862 623.317 28.2591 Q623.317 20.2383 628.948 15.6203 Q634.619 11.0023 644.544 11.0023 Q648.797 11.0023 653.213 11.7719 Q657.628 12.5416 662.246 14.0809 Z" fill="#000000" fill-rule="nonzero" fill-opacity="1" /><path clip-path="url(#clip590)" d="M716.042 45.1919 L716.042 72.576 L708.588 72.576 L708.588 45.4349 Q708.588 38.994 706.077 35.7938 Q703.565 32.5936 698.542 32.5936 Q692.506 32.5936 689.023 36.4419 Q685.539 40.2903 685.539 46.9338 L685.539 72.576 L678.045 72.576 L678.045 9.54393 L685.539 9.54393 L685.539 34.2544 Q688.212 30.163 691.818 28.1376 Q695.464 26.1121 700.203 26.1121 Q708.021 26.1121 712.032 30.9732 Q716.042 35.7938 716.042 45.1919 Z" fill="#000000" fill-rule="nonzero" fill-opacity="1" /><path clip-path="url(#clip590)" d="M730.909 27.2059 L738.363 27.2059 L738.363 72.576 L730.909 72.576 L730.909 27.2059 M730.909 9.54393 L738.363 9.54393 L738.363 18.9825 L730.909 18.9825 L730.909 9.54393 Z" fill="#000000" fill-rule="nonzero" fill-opacity="1" /><path clip-path="url(#clip590)" d="M776.927 9.54393 L776.927 15.7418 L769.798 15.7418 Q765.787 15.7418 764.207 17.3622 Q762.668 18.9825 762.668 23.1955 L762.668 27.2059 L774.942 27.2059 L774.942 32.9987 L762.668 32.9987 L762.668 72.576 L755.174 72.576 L755.174 32.9987 L748.044 32.9987 L748.044 27.2059 L755.174 27.2059 L755.174 24.0462 Q755.174 16.471 758.698 13.0277 Q762.222 9.54393 769.879 9.54393 L776.927 9.54393 Z" fill="#000000" fill-rule="nonzero" fill-opacity="1" /><path clip-path="url(#clip590)" d="M789.08 14.324 L789.08 27.2059 L804.433 27.2059 L804.433 32.9987 L789.08 32.9987 L789.08 57.6282 Q789.08 63.1779 790.579 64.7578 Q792.118 66.3376 796.777 66.3376 L804.433 66.3376 L804.433 72.576 L796.777 72.576 Q788.148 72.576 784.867 69.3758 Q781.586 66.1351 781.586 57.6282 L781.586 32.9987 L776.117 32.9987 L776.117 27.2059 L781.586 27.2059 L781.586 14.324 L789.08 14.324 Z" fill="#000000" fill-rule="nonzero" fill-opacity="1" /><path clip-path="url(#clip590)" d="M853.044 48.0275 L853.044 51.6733 L818.773 51.6733 Q819.259 59.3701 823.391 63.421 Q827.564 67.4314 834.977 67.4314 Q839.271 67.4314 843.281 66.3781 Q847.332 65.3249 851.302 63.2184 L851.302 70.267 Q847.291 71.9684 843.079 72.8596 Q838.866 73.7508 834.531 73.7508 Q823.675 73.7508 817.315 67.4314 Q810.995 61.1119 810.995 50.3365 Q810.995 39.1965 816.991 32.6746 Q823.027 26.1121 833.235 26.1121 Q842.39 26.1121 847.697 32.0264 Q853.044 37.9003 853.044 48.0275 M845.59 45.84 Q845.509 39.7232 842.147 36.0774 Q838.825 32.4315 833.316 32.4315 Q827.077 32.4315 823.31 35.9558 Q819.583 39.4801 819.016 45.8805 L845.59 45.84 Z" fill="#000000" fill-rule="nonzero" fill-opacity="1" /><path clip-path="url(#clip590)" d="M895.133 34.0924 L895.133 9.54393 L902.586 9.54393 L902.586 72.576 L895.133 72.576 L895.133 65.7705 Q892.783 69.8214 889.178 71.8063 Q885.613 73.7508 880.59 73.7508 Q872.367 73.7508 867.181 67.1883 Q862.037 60.6258 862.037 49.9314 Q862.037 39.2371 867.181 32.6746 Q872.367 26.1121 880.59 26.1121 Q885.613 26.1121 889.178 28.0971 Q892.783 30.0415 895.133 34.0924 M869.733 49.9314 Q869.733 58.1548 873.096 62.8538 Q876.498 67.5124 882.413 67.5124 Q888.327 67.5124 891.73 62.8538 Q895.133 58.1548 895.133 49.9314 Q895.133 41.7081 891.73 37.0496 Q888.327 32.3505 882.413 32.3505 Q876.498 32.3505 873.096 37.0496 Q869.733 41.7081 869.733 49.9314 Z" fill="#000000" fill-rule="nonzero" fill-opacity="1" /><path clip-path="url(#clip590)" d="M944.635 12.096 L952.818 12.096 L952.818 65.6895 L982.268 65.6895 L982.268 72.576 L944.635 72.576 L944.635 12.096 Z" fill="#000000" fill-rule="nonzero" fill-opacity="1" /><path clip-path="url(#clip590)" d="M1027.88 48.0275 L1027.88 51.6733 L993.61 51.6733 Q994.096 59.3701 998.228 63.421 Q1002.4 67.4314 1009.81 67.4314 Q1014.11 67.4314 1018.12 66.3781 Q1022.17 65.3249 1026.14 63.2184 L1026.14 70.267 Q1022.13 71.9684 1017.92 72.8596 Q1013.7 73.7508 1009.37 73.7508 Q998.512 73.7508 992.152 67.4314 Q985.832 61.1119 985.832 50.3365 Q985.832 39.1965 991.828 32.6746 Q997.864 26.1121 1008.07 26.1121 Q1017.23 26.1121 1022.53 32.0264 Q1027.88 37.9003 1027.88 48.0275 M1020.43 45.84 Q1020.35 39.7232 1016.98 36.0774 Q1013.66 32.4315 1008.15 32.4315 Q1001.91 32.4315 998.147 35.9558 Q994.42 39.4801 993.853 45.8805 L1020.43 45.84 Z" fill="#000000" fill-rule="nonzero" fill-opacity="1" /><path clip-path="url(#clip590)" d="M1069.97 49.3643 Q1069.97 41.2625 1066.61 36.8065 Q1063.29 32.3505 1057.25 32.3505 Q1051.25 32.3505 1047.89 36.8065 Q1044.57 41.2625 1044.57 49.3643 Q1044.57 57.4256 1047.89 61.8816 Q1051.25 66.3376 1057.25 66.3376 Q1063.29 66.3376 1066.61 61.8816 Q1069.97 57.4256 1069.97 49.3643 M1077.42 66.9452 Q1077.42 78.5308 1072.28 84.1616 Q1067.13 89.8329 1056.52 89.8329 Q1052.59 89.8329 1049.11 89.2252 Q1045.62 88.6581 1042.34 87.4428 L1042.34 80.1917 Q1045.62 81.9741 1048.82 82.8248 Q1052.02 83.6755 1055.35 83.6755 Q1062.68 83.6755 1066.32 79.8271 Q1069.97 76.0193 1069.97 68.282 L1069.97 64.5957 Q1067.66 68.6061 1064.06 70.5911 Q1060.45 72.576 1055.43 72.576 Q1047.08 72.576 1041.98 66.2161 Q1036.87 59.8562 1036.87 49.3643 Q1036.87 38.832 1041.98 32.472 Q1047.08 26.1121 1055.43 26.1121 Q1060.45 26.1121 1064.06 28.0971 Q1067.66 30.082 1069.97 34.0924 L1069.97 27.2059 L1077.42 27.2059 L1077.42 66.9452 Z" fill="#000000" fill-rule="nonzero" fill-opacity="1" /><path clip-path="url(#clip590)" d="M1131.58 48.0275 L1131.58 51.6733 L1097.31 51.6733 Q1097.8 59.3701 1101.93 63.421 Q1106.1 67.4314 1113.52 67.4314 Q1117.81 67.4314 1121.82 66.3781 Q1125.87 65.3249 1129.84 63.2184 L1129.84 70.267 Q1125.83 71.9684 1121.62 72.8596 Q1117.41 73.7508 1113.07 73.7508 Q1102.21 73.7508 1095.85 67.4314 Q1089.54 61.1119 1089.54 50.3365 Q1089.54 39.1965 1095.53 32.6746 Q1101.57 26.1121 1111.77 26.1121 Q1120.93 26.1121 1126.24 32.0264 Q1131.58 37.9003 1131.58 48.0275 M1124.13 45.84 Q1124.05 39.7232 1120.69 36.0774 Q1117.37 32.4315 1111.86 32.4315 Q1105.62 32.4315 1101.85 35.9558 Q1098.12 39.4801 1097.56 45.8805 L1124.13 45.84 Z" fill="#000000" fill-rule="nonzero" fill-opacity="1" /><path clip-path="url(#clip590)" d="M1181.53 45.1919 L1181.53 72.576 L1174.08 72.576 L1174.08 45.4349 Q1174.08 38.994 1171.57 35.7938 Q1169.05 32.5936 1164.03 32.5936 Q1158 32.5936 1154.51 36.4419 Q1151.03 40.2903 1151.03 46.9338 L1151.03 72.576 L1143.53 72.576 L1143.53 27.2059 L1151.03 27.2059 L1151.03 34.2544 Q1153.7 30.163 1157.31 28.1376 Q1160.95 26.1121 1165.69 26.1121 Q1173.51 26.1121 1177.52 30.9732 Q1181.53 35.7938 1181.53 45.1919 Z" fill="#000000" fill-rule="nonzero" fill-opacity="1" /><path clip-path="url(#clip590)" d="M1226.25 34.0924 L1226.25 9.54393 L1233.71 9.54393 L1233.71 72.576 L1226.25 72.576 L1226.25 65.7705 Q1223.9 69.8214 1220.3 71.8063 Q1216.73 73.7508 1211.71 73.7508 Q1203.49 73.7508 1198.3 67.1883 Q1193.16 60.6258 1193.16 49.9314 Q1193.16 39.2371 1198.3 32.6746 Q1203.49 26.1121 1211.71 26.1121 Q1216.73 26.1121 1220.3 28.0971 Q1223.9 30.0415 1226.25 34.0924 M1200.85 49.9314 Q1200.85 58.1548 1204.22 62.8538 Q1207.62 67.5124 1213.53 67.5124 Q1219.45 67.5124 1222.85 62.8538 Q1226.25 58.1548 1226.25 49.9314 Q1226.25 41.7081 1222.85 37.0496 Q1219.45 32.3505 1213.53 32.3505 Q1207.62 32.3505 1204.22 37.0496 Q1200.85 41.7081 1200.85 49.9314 Z" fill="#000000" fill-rule="nonzero" fill-opacity="1" /><path clip-path="url(#clip590)" d="M1275.35 34.1734 Q1274.09 33.4443 1272.6 33.1202 Q1271.14 32.7556 1269.36 32.7556 Q1263.04 32.7556 1259.63 36.8875 Q1256.27 40.9789 1256.27 48.6757 L1256.27 72.576 L1248.78 72.576 L1248.78 27.2059 L1256.27 27.2059 L1256.27 34.2544 Q1258.62 30.1225 1262.39 28.1376 Q1266.15 26.1121 1271.54 26.1121 Q1272.31 26.1121 1273.24 26.2337 Q1274.18 26.3147 1275.31 26.5172 L1275.35 34.1734 Z" fill="#000000" fill-rule="nonzero" fill-opacity="1" /><path clip-path="url(#clip590)" d="M1320.15 48.0275 L1320.15 51.6733 L1285.88 51.6733 Q1286.37 59.3701 1290.5 63.421 Q1294.67 67.4314 1302.09 67.4314 Q1306.38 67.4314 1310.39 66.3781 Q1314.44 65.3249 1318.41 63.2184 L1318.41 70.267 Q1314.4 71.9684 1310.19 72.8596 Q1305.98 73.7508 1301.64 73.7508 Q1290.78 73.7508 1284.42 67.4314 Q1278.11 61.1119 1278.11 50.3365 Q1278.11 39.1965 1284.1 32.6746 Q1290.14 26.1121 1300.34 26.1121 Q1309.5 26.1121 1314.81 32.0264 Q1320.15 37.9003 1320.15 48.0275 M1312.7 45.84 Q1312.62 39.7232 1309.26 36.0774 Q1305.93 32.4315 1300.43 32.4315 Q1294.19 32.4315 1290.42 35.9558 Q1286.69 39.4801 1286.13 45.8805 L1312.7 45.84 Z" fill="#000000" fill-rule="nonzero" fill-opacity="1" /><path clip-path="url(#clip590)" d="M1367.27 43.6931 L1367.27 65.8515 L1380.39 65.8515 Q1386.99 65.8515 1390.15 63.1374 Q1393.35 60.3828 1393.35 54.752 Q1393.35 49.0808 1390.15 46.4072 Q1386.99 43.6931 1380.39 43.6931 L1367.27 43.6931 M1367.27 18.8205 L1367.27 37.0496 L1379.38 37.0496 Q1385.37 37.0496 1388.29 34.8216 Q1391.25 32.5531 1391.25 27.935 Q1391.25 23.3575 1388.29 21.089 Q1385.37 18.8205 1379.38 18.8205 L1367.27 18.8205 M1359.08 12.096 L1379.99 12.096 Q1389.34 12.096 1394.41 15.9849 Q1399.47 19.8737 1399.47 27.0438 Q1399.47 32.5936 1396.88 35.8748 Q1394.29 39.156 1389.26 39.9662 Q1395.3 41.2625 1398.62 45.3944 Q1401.98 49.4858 1401.98 55.6432 Q1401.98 63.745 1396.47 68.1605 Q1390.96 72.576 1380.8 72.576 L1359.08 72.576 L1359.08 12.096 Z" fill="#000000" fill-rule="nonzero" fill-opacity="1" /><path clip-path="url(#clip590)" d="M1436.29 49.7694 Q1427.26 49.7694 1423.78 51.8354 Q1420.29 53.9013 1420.29 58.8839 Q1420.29 62.8538 1422.88 65.2034 Q1425.52 67.5124 1430.01 67.5124 Q1436.21 67.5124 1439.94 63.1374 Q1443.71 58.7219 1443.71 51.4303 L1443.71 49.7694 L1436.29 49.7694 M1451.16 46.6907 L1451.16 72.576 L1443.71 72.576 L1443.71 65.6895 Q1441.15 69.8214 1437.35 71.8063 Q1433.54 73.7508 1428.03 73.7508 Q1421.06 73.7508 1416.93 69.8619 Q1412.84 65.9325 1412.84 59.3701 Q1412.84 51.7138 1417.94 47.825 Q1423.09 43.9361 1433.25 43.9361 L1443.71 43.9361 L1443.71 43.2069 Q1443.71 38.0623 1440.3 35.2672 Q1436.94 32.4315 1430.82 32.4315 Q1426.94 32.4315 1423.25 33.3632 Q1419.56 34.295 1416.16 36.1584 L1416.16 29.2718 Q1420.25 27.692 1424.1 26.9223 Q1427.95 26.1121 1431.59 26.1121 Q1441.44 26.1121 1446.3 31.2163 Q1451.16 36.3204 1451.16 46.6907 Z" fill="#000000" fill-rule="nonzero" fill-opacity="1" /><path clip-path="url(#clip590)" d="M1495.44 28.5427 L1495.44 35.5912 Q1492.28 33.9709 1488.87 33.1607 Q1485.47 32.3505 1481.83 32.3505 Q1476.28 32.3505 1473.48 34.0519 Q1470.73 35.7533 1470.73 39.156 Q1470.73 41.7486 1472.71 43.2475 Q1474.7 44.7058 1480.69 46.0426 L1483.24 46.6097 Q1491.18 48.3111 1494.5 51.4303 Q1497.87 54.509 1497.87 60.0587 Q1497.87 66.3781 1492.84 70.0644 Q1487.86 73.7508 1479.11 73.7508 Q1475.47 73.7508 1471.5 73.0216 Q1467.57 72.3329 1463.19 70.9151 L1463.19 63.2184 Q1467.32 65.3654 1471.33 66.4591 Q1475.34 67.5124 1479.27 67.5124 Q1484.54 67.5124 1487.37 65.73 Q1490.21 63.9071 1490.21 60.6258 Q1490.21 57.5877 1488.14 55.9673 Q1486.12 54.3469 1479.19 52.8481 L1476.6 52.2405 Q1469.67 50.7821 1466.59 47.7845 Q1463.51 44.7463 1463.51 39.4801 Q1463.51 33.0797 1468.05 29.5959 Q1472.59 26.1121 1480.93 26.1121 Q1485.07 26.1121 1488.71 26.7198 Q1492.36 27.3274 1495.44 28.5427 Z" fill="#000000" fill-rule="nonzero" fill-opacity="1" /><path clip-path="url(#clip590)" d="M1509.74 27.2059 L1517.19 27.2059 L1517.19 72.576 L1509.74 72.576 L1509.74 27.2059 M1509.74 9.54393 L1517.19 9.54393 L1517.19 18.9825 L1509.74 18.9825 L1509.74 9.54393 Z" fill="#000000" fill-rule="nonzero" fill-opacity="1" /><path clip-path="url(#clip590)" d="M1561.71 28.5427 L1561.71 35.5912 Q1558.55 33.9709 1555.15 33.1607 Q1551.74 32.3505 1548.1 32.3505 Q1542.55 32.3505 1539.75 34.0519 Q1537 35.7533 1537 39.156 Q1537 41.7486 1538.98 43.2475 Q1540.97 44.7058 1546.96 46.0426 L1549.52 46.6097 Q1557.46 48.3111 1560.78 51.4303 Q1564.14 54.509 1564.14 60.0587 Q1564.14 66.3781 1559.12 70.0644 Q1554.13 73.7508 1545.38 73.7508 Q1541.74 73.7508 1537.77 73.0216 Q1533.84 72.3329 1529.46 70.9151 L1529.46 63.2184 Q1533.6 65.3654 1537.61 66.4591 Q1541.62 67.5124 1545.55 67.5124 Q1550.81 67.5124 1553.65 65.73 Q1556.48 63.9071 1556.48 60.6258 Q1556.48 57.5877 1554.42 55.9673 Q1552.39 54.3469 1545.46 52.8481 L1542.87 52.2405 Q1535.95 50.7821 1532.87 47.7845 Q1529.79 44.7463 1529.79 39.4801 Q1529.79 33.0797 1534.32 29.5959 Q1538.86 26.1121 1547.21 26.1121 Q1551.34 26.1121 1554.98 26.7198 Q1558.63 27.3274 1561.71 28.5427 Z" fill="#000000" fill-rule="nonzero" fill-opacity="1" /><path clip-path="url(#clip590)" d="M1619.96 32.4315 Q1613.97 32.4315 1610.48 37.1306 Q1607 41.7891 1607 49.9314 Q1607 58.0738 1610.44 62.7728 Q1613.93 67.4314 1619.96 67.4314 Q1625.92 67.4314 1629.4 62.7323 Q1632.88 58.0333 1632.88 49.9314 Q1632.88 41.8701 1629.4 37.1711 Q1625.92 32.4315 1619.96 32.4315 M1619.96 26.1121 Q1629.68 26.1121 1635.23 32.4315 Q1640.78 38.7509 1640.78 49.9314 Q1640.78 61.0714 1635.23 67.4314 Q1629.68 73.7508 1619.96 73.7508 Q1610.2 73.7508 1604.65 67.4314 Q1599.14 61.0714 1599.14 49.9314 Q1599.14 38.7509 1604.65 32.4315 Q1610.2 26.1121 1619.96 26.1121 Z" fill="#000000" fill-rule="nonzero" fill-opacity="1" /><path clip-path="url(#clip590)" d="M1690.85 45.1919 L1690.85 72.576 L1683.4 72.576 L1683.4 45.4349 Q1683.4 38.994 1680.89 35.7938 Q1678.37 32.5936 1673.35 32.5936 Q1667.32 32.5936 1663.83 36.4419 Q1660.35 40.2903 1660.35 46.9338 L1660.35 72.576 L1652.85 72.576 L1652.85 27.2059 L1660.35 27.2059 L1660.35 34.2544 Q1663.02 30.163 1666.63 28.1376 Q1670.27 26.1121 1675.01 26.1121 Q1682.83 26.1121 1686.84 30.9732 Q1690.85 35.7938 1690.85 45.1919 Z" fill="#000000" fill-rule="nonzero" fill-opacity="1" /><path clip-path="url(#clip590)" d="M1731.4 9.54393 L1748.58 9.54393 L1748.58 15.3367 L1738.85 15.3367 L1738.85 77.7206 L1748.58 77.7206 L1748.58 83.5134 L1731.4 83.5134 L1731.4 9.54393 Z" fill="#000000" fill-rule="nonzero" fill-opacity="1" /><path clip-path="url(#clip590)" d="M1783.01 17.4837 Q1776.69 17.4837 1773.49 23.7221 Q1770.33 29.92 1770.33 42.3968 Q1770.33 54.833 1773.49 61.0714 Q1776.69 67.2693 1783.01 67.2693 Q1789.37 67.2693 1792.53 61.0714 Q1795.73 54.833 1795.73 42.3968 Q1795.73 29.92 1792.53 23.7221 Q1789.37 17.4837 1783.01 17.4837 M1783.01 11.0023 Q1793.18 11.0023 1798.52 19.0636 Q1803.91 27.0843 1803.91 42.3968 Q1803.91 57.6687 1798.52 65.73 Q1793.18 73.7508 1783.01 73.7508 Q1772.84 73.7508 1767.45 65.73 Q1762.11 57.6687 1762.11 42.3968 Q1762.11 27.0843 1767.45 19.0636 Q1772.84 11.0023 1783.01 11.0023 Z" fill="#000000" fill-rule="nonzero" fill-opacity="1" /><path clip-path="url(#clip590)" d="M1819.14 62.2867 L1827.69 62.2867 L1827.69 69.2543 L1821.05 82.2172 L1815.82 82.2172 L1819.14 69.2543 L1819.14 62.2867 Z" fill="#000000" fill-rule="nonzero" fill-opacity="1" /><path clip-path="url(#clip590)" d="M1872.45 65.6895 L1885.82 65.6895 L1885.82 19.5497 L1871.28 22.4663 L1871.28 15.0127 L1885.74 12.096 L1893.92 12.096 L1893.92 65.6895 L1907.29 65.6895 L1907.29 72.576 L1872.45 72.576 L1872.45 65.6895 Z" fill="#000000" fill-rule="nonzero" fill-opacity="1" /><path clip-path="url(#clip590)" d="M1940.18 9.54393 L1940.18 83.5134 L1923.01 83.5134 L1923.01 77.7206 L1932.69 77.7206 L1932.69 15.3367 L1923.01 15.3367 L1923.01 9.54393 L1940.18 9.54393 Z" fill="#000000" fill-rule="nonzero" fill-opacity="1" /><polyline clip-path="url(#clip592)" style="stroke:#009af9; stroke-linecap:round; stroke-linejoin:round; stroke-width:4; stroke-opacity:1; fill:none" points="271.369,594.615 291.577,594.615 311.784,594.615 331.992,594.615 352.199,594.615 372.407,594.615 392.615,594.615 412.822,594.615 433.03,594.615 453.238,594.615 473.445,594.615 493.653,594.615 513.861,594.615 534.068,594.615 554.276,594.615 574.483,594.615 594.691,594.615 614.899,594.615 635.106,594.615 655.314,594.615 675.522,594.615 695.729,594.615 715.937,594.615 736.145,594.615 756.352,594.615 776.56,594.615 796.768,594.615 816.975,594.615 837.183,594.615 857.39,594.615 877.598,594.615 897.806,594.615 918.013,594.615 938.221,594.615 958.429,594.615 978.636,594.615 998.844,594.615 1019.05,594.615 1039.26,594.615 1059.47,594.615 1079.67,594.615 1099.88,594.615 1120.09,594.615 1140.3,594.615 1160.51,594.615 1180.71,594.615 1200.92,594.615 1221.13,594.615 1241.34,594.615 1261.54,594.615 1281.75,594.615 1301.96,594.615 1322.17,594.615 1342.37,594.615 1362.58,594.615 1382.79,594.615 1403,594.615 1423.2,594.615 1443.41,594.615 1463.62,594.615 1483.83,594.615 1504.03,594.615 1524.24,594.615 1544.45,594.615 1564.66,594.615 1584.87,594.615 1605.07,594.615 1625.28,594.615 1645.49,594.615 1665.7,594.615 1685.9,594.615 1706.11,594.615 1726.32,594.615 1746.53,594.615 1766.73,594.615 1786.94,594.615 1807.15,594.615 1827.36,594.615 1847.56,594.615 1867.77,594.615 1887.98,594.615 1908.19,594.615 1928.4,594.615 1948.6,594.615 1968.81,594.615 1989.02,594.615 2009.23,594.615 2029.43,594.615 2049.64,594.615 2069.85,594.615 2090.06,594.615 2110.26,594.615 2130.47,594.615 2150.68,594.615 2170.89,594.615 2191.09,594.615 2211.3,594.615 2231.51,594.615 2251.72,594.615 2271.93,594.615 2292.13,594.615 "/>
<polyline clip-path="url(#clip592)" style="stroke:#e26f46; stroke-linecap:round; stroke-linejoin:round; stroke-width:4; stroke-opacity:1; fill:none" points="271.369,1187.96 291.577,1180.44 311.784,1172.91 331.992,1165.39 352.199,1157.87 372.407,1150.34 392.615,1142.82 412.822,1135.3 433.03,1127.77 453.238,1120.25 473.445,1112.73 493.653,1105.2 513.861,1097.68 534.068,1090.16 554.276,1082.63 574.483,1075.11 594.691,1067.59 614.899,1060.06 635.106,1052.54 655.314,1045.02 675.522,1037.49 695.729,1029.97 715.937,1022.45 736.145,1014.92 756.352,1007.4 776.56,999.876 796.768,992.353 816.975,984.83 837.183,977.306 857.39,969.783 877.598,962.26 897.806,954.737 918.013,947.213 938.221,939.69 958.429,932.167 978.636,924.643 998.844,917.12 1019.05,909.597 1039.26,902.073 1059.47,894.55 1079.67,887.027 1099.88,879.503 1120.09,871.98 1140.3,864.457 1160.51,856.934 1180.71,849.41 1200.92,841.887 1221.13,834.364 1241.34,826.84 1261.54,819.317 1281.75,811.794 1301.96,804.27 1322.17,796.747 1342.37,789.224 1362.58,781.7 1382.79,774.177 1403,766.654 1423.2,759.131 1443.41,751.607 1463.62,744.084 1483.83,736.561 1504.03,729.037 1524.24,721.514 1544.45,713.991 1564.66,706.467 1584.87,698.944 1605.07,691.421 1625.28,683.897 1645.49,676.374 1665.7,668.851 1685.9,661.328 1706.11,653.804 1726.32,646.281 1746.53,638.758 1766.73,631.234 1786.94,623.711 1807.15,616.188 1827.36,608.664 1847.56,601.141 1867.77,593.618 1887.98,586.095 1908.19,578.571 1928.4,571.048 1948.6,563.525 1968.81,556.001 1989.02,548.478 2009.23,540.955 2029.43,533.431 2049.64,525.908 2069.85,518.385 2090.06,510.861 2110.26,503.338 2130.47,495.815 2150.68,488.292 2170.89,480.768 2191.09,473.245 2211.3,465.722 2231.51,458.198 2251.72,450.675 2271.93,443.152 2292.13,435.628 "/>
<polyline clip-path="url(#clip592)" style="stroke:#3da44d; stroke-linecap:round; stroke-linejoin:round; stroke-width:4; stroke-opacity:1; fill:none" points="271.369,326.166 291.577,355.013 311.784,383.276 331.992,410.957 352.199,438.055 372.407,464.57 392.615,490.503 412.822,515.852 433.03,540.619 453.238,564.804 473.445,588.405 493.653,611.424 513.861,633.86 534.068,655.713 554.276,676.984 574.483,697.671 594.691,717.776 614.899,737.298 635.106,756.238 655.314,774.595 675.522,792.369 695.729,809.56 715.937,826.168 736.145,842.194 756.352,857.637 776.56,872.497 796.768,886.775 816.975,900.469 837.183,913.581 857.39,926.11 877.598,938.057 897.806,949.42 918.013,960.201 938.221,970.4 958.429,980.015 978.636,989.048 998.844,997.498 1019.05,1005.36 1039.26,1012.65 1059.47,1019.35 1079.67,1025.47 1099.88,1031.01 1120.09,1035.96 1140.3,1040.33 1160.51,1044.12 1180.71,1047.32 1200.92,1049.95 1221.13,1051.98 1241.34,1053.44 1261.54,1054.32 1281.75,1054.61 1301.96,1054.32 1322.17,1053.44 1342.37,1051.98 1362.58,1049.95 1382.79,1047.32 1403,1044.12 1423.2,1040.33 1443.41,1035.96 1463.62,1031.01 1483.83,1025.47 1504.03,1019.35 1524.24,1012.65 1544.45,1005.36 1564.66,997.498 1584.87,989.048 1605.07,980.015 1625.28,970.4 1645.49,960.201 1665.7,949.42 1685.9,938.057 1706.11,926.11 1726.32,913.581 1746.53,900.469 1766.73,886.775 1786.94,872.497 1807.15,857.637 1827.36,842.194 1847.56,826.168 1867.77,809.56 1887.98,792.369 1908.19,774.595 1928.4,756.238 1948.6,737.298 1968.81,717.776 1989.02,697.671 2009.23,676.984 2029.43,655.713 2049.64,633.86 2069.85,611.424 2090.06,588.405 2110.26,564.804 2130.47,540.619 2150.68,515.852 2170.89,490.503 2191.09,464.57 2211.3,438.055 2231.51,410.957 2251.72,383.276 2271.93,355.013 2292.13,326.166 "/>
<polyline clip-path="url(#clip592)" style="stroke:#c271d2; stroke-linecap:round; stroke-linejoin:round; stroke-width:4; stroke-opacity:1; fill:none" points="271.369,1386.4 291.577,1319.16 311.784,1255.29 331.992,1194.74 352.199,1137.43 372.407,1083.29 392.615,1032.26 412.822,984.255 433.03,939.217 453.238,897.076 473.445,857.762 493.653,821.206 513.861,787.339 534.068,756.092 554.276,727.396 574.483,701.183 594.691,677.383 614.899,655.927 635.106,636.747 655.314,619.773 675.522,604.937 695.729,592.169 715.937,581.401 736.145,572.564 756.352,565.588 776.56,560.405 796.768,556.946 816.975,555.142 837.183,554.924 857.39,556.222 877.598,558.969 897.806,563.094 918.013,568.53 938.221,575.207 958.429,583.056 978.636,592.008 998.844,601.995 1019.05,612.947 1039.26,624.795 1059.47,637.471 1079.67,650.905 1099.88,665.029 1120.09,679.773 1140.3,695.069 1160.51,710.848 1180.71,727.04 1200.92,743.577 1221.13,760.39 1241.34,777.41 1261.54,794.567 1281.75,811.794 1301.96,829.02 1322.17,846.178 1342.37,863.198 1362.58,880.01 1382.79,896.547 1403,912.74 1423.2,928.518 1443.41,943.814 1463.62,958.559 1483.83,972.682 1504.03,986.116 1524.24,998.792 1544.45,1010.64 1564.66,1021.59 1584.87,1031.58 1605.07,1040.53 1625.28,1048.38 1645.49,1055.06 1665.7,1060.49 1685.9,1064.62 1706.11,1067.37 1726.32,1068.66 1746.53,1068.45 1766.73,1066.64 1786.94,1063.18 1807.15,1058 1827.36,1051.02 1847.56,1042.19 1867.77,1031.42 1887.98,1018.65 1908.19,1003.81 1928.4,986.84 1948.6,967.66 1968.81,946.205 1989.02,922.405 2009.23,896.191 2029.43,867.496 2049.64,836.249 2069.85,802.382 2090.06,765.826 2110.26,726.511 2130.47,684.37 2150.68,639.333 2170.89,591.33 2191.09,540.294 2211.3,486.155 2231.51,428.844 2251.72,368.293 2271.93,304.432 2292.13,237.192 "/>
<polyline clip-path="url(#clip592)" style="stroke:#ac8d18; stroke-linecap:round; stroke-linejoin:round; stroke-width:4; stroke-opacity:1; fill:none" points="271.369,160.256 291.577,284.791 311.784,398.138 331.992,500.83 352.199,593.386 372.407,676.315 392.615,750.114 412.822,815.272 433.03,872.265 453.238,921.556 473.445,963.602 493.653,998.844 513.861,1027.72 534.068,1050.64 554.276,1068.02 574.483,1080.27 594.691,1087.76 614.899,1090.88 635.106,1090 655.314,1085.46 675.522,1077.62 695.729,1066.81 715.937,1053.35 736.145,1037.55 756.352,1019.71 776.56,1000.13 796.768,979.08 816.975,956.833 837.183,933.645 857.39,909.761 877.598,885.417 897.806,860.838 918.013,836.237 938.221,811.817 958.429,787.768 978.636,764.272 998.844,741.499 1019.05,719.606 1039.26,698.742 1059.47,679.044 1079.67,660.637 1099.88,643.637 1120.09,628.147 1140.3,614.26 1160.51,602.059 1180.71,591.615 1200.92,582.987 1221.13,576.226 1241.34,571.369 1261.54,568.444 1281.75,567.467 1301.96,568.444 1322.17,571.369 1342.37,576.226 1362.58,582.987 1382.79,591.615 1403,602.059 1423.2,614.26 1443.41,628.147 1463.62,643.637 1483.83,660.637 1504.03,679.044 1524.24,698.742 1544.45,719.606 1564.66,741.499 1584.87,764.272 1605.07,787.768 1625.28,811.817 1645.49,836.237 1665.7,860.838 1685.9,885.417 1706.11,909.761 1726.32,933.645 1746.53,956.833 1766.73,979.08 1786.94,1000.13 1807.15,1019.71 1827.36,1037.55 1847.56,1053.35 1867.77,1066.81 1887.98,1077.62 1908.19,1085.46 1928.4,1090 1948.6,1090.88 1968.81,1087.76 1989.02,1080.27 2009.23,1068.02 2029.43,1050.64 2049.64,1027.72 2069.85,998.844 2090.06,963.602 2110.26,921.556 2130.47,872.265 2150.68,815.272 2170.89,750.114 2191.09,676.315 2211.3,593.386 2231.51,500.83 2251.72,398.138 2271.93,284.791 2292.13,160.256 "/>
<path clip-path="url(#clip590)" d="M1861.07 1379.86 L2281.36 1379.86 L2281.36 1068.82 L1861.07 1068.82  Z" fill="#ffffff" fill-rule="evenodd" fill-opacity="1"/>
<polyline clip-path="url(#clip590)" style="stroke:#000000; stroke-linecap:round; stroke-linejoin:round; stroke-width:4; stroke-opacity:1; fill:none" points="1861.07,1379.86 2281.36,1379.86 2281.36,1068.82 1861.07,1068.82 1861.07,1379.86 "/>
<polyline clip-path="url(#clip590)" style="stroke:#009af9; stroke-linecap:round; stroke-linejoin:round; stroke-width:4; stroke-opacity:1; fill:none" points="1884.87,1120.66 2027.67,1120.66 "/>
<path clip-path="url(#clip590)" d="M2070.38 1115.95 L2070.38 1101.92 L2074.64 1101.92 L2074.64 1137.94 L2070.38 1137.94 L2070.38 1134.05 Q2069.04 1136.36 2066.98 1137.5 Q2064.94 1138.61 2062.07 1138.61 Q2057.37 1138.61 2054.41 1134.86 Q2051.47 1131.11 2051.47 1125 Q2051.47 1118.89 2054.41 1115.14 Q2057.37 1111.39 2062.07 1111.39 Q2064.94 1111.39 2066.98 1112.52 Q2069.04 1113.63 2070.38 1115.95 M2055.87 1125 Q2055.87 1129.7 2057.79 1132.38 Q2059.73 1135.04 2063.11 1135.04 Q2066.49 1135.04 2068.44 1132.38 Q2070.38 1129.7 2070.38 1125 Q2070.38 1120.3 2068.44 1117.64 Q2066.49 1114.95 2063.11 1114.95 Q2059.73 1114.95 2057.79 1117.64 Q2055.87 1120.3 2055.87 1125 Z" fill="#000000" fill-rule="nonzero" fill-opacity="1" /><path clip-path="url(#clip590)" d="M2105.59 1123.91 L2105.59 1125.99 L2086.01 1125.99 Q2086.28 1130.39 2088.64 1132.7 Q2091.03 1135 2095.26 1135 Q2097.72 1135 2100.01 1134.39 Q2102.32 1133.79 2104.59 1132.59 L2104.59 1136.62 Q2102.3 1137.59 2099.89 1138.1 Q2097.49 1138.61 2095.01 1138.61 Q2088.81 1138.61 2085.17 1135 Q2081.56 1131.39 2081.56 1125.23 Q2081.56 1118.86 2084.99 1115.14 Q2088.44 1111.39 2094.27 1111.39 Q2099.5 1111.39 2102.53 1114.77 Q2105.59 1118.12 2105.59 1123.91 M2101.33 1122.66 Q2101.28 1119.16 2099.36 1117.08 Q2097.46 1115 2094.32 1115 Q2090.75 1115 2088.6 1117.01 Q2086.47 1119.02 2086.14 1122.68 L2101.33 1122.66 Z" fill="#000000" fill-rule="nonzero" fill-opacity="1" /><path clip-path="url(#clip590)" d="M2129.64 1124.67 Q2129.64 1120.04 2127.72 1117.5 Q2125.82 1114.95 2122.37 1114.95 Q2118.95 1114.95 2117.02 1117.5 Q2115.13 1120.04 2115.13 1124.67 Q2115.13 1129.28 2117.02 1131.83 Q2118.95 1134.37 2122.37 1134.37 Q2125.82 1134.37 2127.72 1131.83 Q2129.64 1129.28 2129.64 1124.67 M2133.9 1134.72 Q2133.9 1141.34 2130.96 1144.56 Q2128.02 1147.8 2121.95 1147.8 Q2119.71 1147.8 2117.72 1147.45 Q2115.73 1147.13 2113.85 1146.43 L2113.85 1142.29 Q2115.73 1143.31 2117.56 1143.79 Q2119.38 1144.28 2121.28 1144.28 Q2125.47 1144.28 2127.56 1142.08 Q2129.64 1139.9 2129.64 1135.48 L2129.64 1133.38 Q2128.32 1135.67 2126.26 1136.8 Q2124.2 1137.94 2121.33 1137.94 Q2116.56 1137.94 2113.64 1134.3 Q2110.73 1130.67 2110.73 1124.67 Q2110.73 1118.65 2113.64 1115.02 Q2116.56 1111.39 2121.33 1111.39 Q2124.2 1111.39 2126.26 1112.52 Q2128.32 1113.65 2129.64 1115.95 L2129.64 1112.01 L2133.9 1112.01 L2133.9 1134.72 Z" fill="#000000" fill-rule="nonzero" fill-opacity="1" /><path clip-path="url(#clip590)" d="M2157.69 1115.99 Q2156.98 1115.58 2156.12 1115.39 Q2155.29 1115.18 2154.27 1115.18 Q2150.66 1115.18 2148.71 1117.54 Q2146.79 1119.88 2146.79 1124.28 L2146.79 1137.94 L2142.51 1137.94 L2142.51 1112.01 L2146.79 1112.01 L2146.79 1116.04 Q2148.13 1113.68 2150.29 1112.54 Q2152.44 1111.39 2155.52 1111.39 Q2155.96 1111.39 2156.49 1111.45 Q2157.02 1111.5 2157.67 1111.62 L2157.69 1115.99 Z" fill="#000000" fill-rule="nonzero" fill-opacity="1" /><path clip-path="url(#clip590)" d="M2183.3 1123.91 L2183.3 1125.99 L2163.71 1125.99 Q2163.99 1130.39 2166.35 1132.7 Q2168.74 1135 2172.97 1135 Q2175.43 1135 2177.72 1134.39 Q2180.03 1133.79 2182.3 1132.59 L2182.3 1136.62 Q2180.01 1137.59 2177.6 1138.1 Q2175.19 1138.61 2172.72 1138.61 Q2166.51 1138.61 2162.88 1135 Q2159.27 1131.39 2159.27 1125.23 Q2159.27 1118.86 2162.69 1115.14 Q2166.14 1111.39 2171.98 1111.39 Q2177.21 1111.39 2180.24 1114.77 Q2183.3 1118.12 2183.3 1123.91 M2179.04 1122.66 Q2178.99 1119.16 2177.07 1117.08 Q2175.17 1115 2172.02 1115 Q2168.46 1115 2166.31 1117.01 Q2164.18 1119.02 2163.85 1122.68 L2179.04 1122.66 Z" fill="#000000" fill-rule="nonzero" fill-opacity="1" /><path clip-path="url(#clip590)" d="M2212.46 1123.91 L2212.46 1125.99 L2192.88 1125.99 Q2193.16 1130.39 2195.52 1132.7 Q2197.9 1135 2202.14 1135 Q2204.59 1135 2206.88 1134.39 Q2209.2 1133.79 2211.47 1132.59 L2211.47 1136.62 Q2209.18 1137.59 2206.77 1138.1 Q2204.36 1138.61 2201.88 1138.61 Q2195.68 1138.61 2192.05 1135 Q2188.44 1131.39 2188.44 1125.23 Q2188.44 1118.86 2191.86 1115.14 Q2195.31 1111.39 2201.14 1111.39 Q2206.38 1111.39 2209.41 1114.77 Q2212.46 1118.12 2212.46 1123.91 M2208.2 1122.66 Q2208.16 1119.16 2206.24 1117.08 Q2204.34 1115 2201.19 1115 Q2197.63 1115 2195.47 1117.01 Q2193.34 1119.02 2193.02 1122.68 L2208.2 1122.66 Z" fill="#000000" fill-rule="nonzero" fill-opacity="1" /><path clip-path="url(#clip590)" d="M2245.12 1106.45 Q2241.51 1106.45 2239.69 1110.02 Q2237.88 1113.56 2237.88 1120.69 Q2237.88 1127.8 2239.69 1131.36 Q2241.51 1134.9 2245.12 1134.9 Q2248.76 1134.9 2250.56 1131.36 Q2252.39 1127.8 2252.39 1120.69 Q2252.39 1113.56 2250.56 1110.02 Q2248.76 1106.45 2245.12 1106.45 M2245.12 1102.75 Q2250.94 1102.75 2253.99 1107.36 Q2257.07 1111.94 2257.07 1120.69 Q2257.07 1129.42 2253.99 1134.02 Q2250.94 1138.61 2245.12 1138.61 Q2239.31 1138.61 2236.24 1134.02 Q2233.18 1129.42 2233.18 1120.69 Q2233.18 1111.94 2236.24 1107.36 Q2239.31 1102.75 2245.12 1102.75 Z" fill="#000000" fill-rule="nonzero" fill-opacity="1" /><polyline clip-path="url(#clip590)" style="stroke:#e26f46; stroke-linecap:round; stroke-linejoin:round; stroke-width:4; stroke-opacity:1; fill:none" points="1884.87,1172.5 2027.67,1172.5 "/>
<path clip-path="url(#clip590)" d="M2070.38 1167.79 L2070.38 1153.76 L2074.64 1153.76 L2074.64 1189.78 L2070.38 1189.78 L2070.38 1185.89 Q2069.04 1188.2 2066.98 1189.34 Q2064.94 1190.45 2062.07 1190.45 Q2057.37 1190.45 2054.41 1186.7 Q2051.47 1182.95 2051.47 1176.84 Q2051.47 1170.73 2054.41 1166.98 Q2057.37 1163.23 2062.07 1163.23 Q2064.94 1163.23 2066.98 1164.36 Q2069.04 1165.47 2070.38 1167.79 M2055.87 1176.84 Q2055.87 1181.54 2057.79 1184.22 Q2059.73 1186.88 2063.11 1186.88 Q2066.49 1186.88 2068.44 1184.22 Q2070.38 1181.54 2070.38 1176.84 Q2070.38 1172.14 2068.44 1169.48 Q2066.49 1166.79 2063.11 1166.79 Q2059.73 1166.79 2057.79 1169.48 Q2055.87 1172.14 2055.87 1176.84 Z" fill="#000000" fill-rule="nonzero" fill-opacity="1" /><path clip-path="url(#clip590)" d="M2105.59 1175.75 L2105.59 1177.83 L2086.01 1177.83 Q2086.28 1182.23 2088.64 1184.54 Q2091.03 1186.84 2095.26 1186.84 Q2097.72 1186.84 2100.01 1186.23 Q2102.32 1185.63 2104.59 1184.43 L2104.59 1188.46 Q2102.3 1189.43 2099.89 1189.94 Q2097.49 1190.45 2095.01 1190.45 Q2088.81 1190.45 2085.17 1186.84 Q2081.56 1183.23 2081.56 1177.07 Q2081.56 1170.7 2084.99 1166.98 Q2088.44 1163.23 2094.27 1163.23 Q2099.5 1163.23 2102.53 1166.61 Q2105.59 1169.96 2105.59 1175.75 M2101.33 1174.5 Q2101.28 1171 2099.36 1168.92 Q2097.46 1166.84 2094.32 1166.84 Q2090.75 1166.84 2088.6 1168.85 Q2086.47 1170.86 2086.14 1174.52 L2101.33 1174.5 Z" fill="#000000" fill-rule="nonzero" fill-opacity="1" /><path clip-path="url(#clip590)" d="M2129.64 1176.51 Q2129.64 1171.88 2127.72 1169.34 Q2125.82 1166.79 2122.37 1166.79 Q2118.95 1166.79 2117.02 1169.34 Q2115.13 1171.88 2115.13 1176.51 Q2115.13 1181.12 2117.02 1183.67 Q2118.95 1186.21 2122.37 1186.21 Q2125.82 1186.21 2127.72 1183.67 Q2129.64 1181.12 2129.64 1176.51 M2133.9 1186.56 Q2133.9 1193.18 2130.96 1196.4 Q2128.02 1199.64 2121.95 1199.64 Q2119.71 1199.64 2117.72 1199.29 Q2115.73 1198.97 2113.85 1198.27 L2113.85 1194.13 Q2115.73 1195.15 2117.56 1195.63 Q2119.38 1196.12 2121.28 1196.12 Q2125.47 1196.12 2127.56 1193.92 Q2129.64 1191.74 2129.64 1187.32 L2129.64 1185.22 Q2128.32 1187.51 2126.26 1188.64 Q2124.2 1189.78 2121.33 1189.78 Q2116.56 1189.78 2113.64 1186.14 Q2110.73 1182.51 2110.73 1176.51 Q2110.73 1170.49 2113.64 1166.86 Q2116.56 1163.23 2121.33 1163.23 Q2124.2 1163.23 2126.26 1164.36 Q2128.32 1165.49 2129.64 1167.79 L2129.64 1163.85 L2133.9 1163.85 L2133.9 1186.56 Z" fill="#000000" fill-rule="nonzero" fill-opacity="1" /><path clip-path="url(#clip590)" d="M2157.69 1167.83 Q2156.98 1167.42 2156.12 1167.23 Q2155.29 1167.02 2154.27 1167.02 Q2150.66 1167.02 2148.71 1169.38 Q2146.79 1171.72 2146.79 1176.12 L2146.79 1189.78 L2142.51 1189.78 L2142.51 1163.85 L2146.79 1163.85 L2146.79 1167.88 Q2148.13 1165.52 2150.29 1164.38 Q2152.44 1163.23 2155.52 1163.23 Q2155.96 1163.23 2156.49 1163.29 Q2157.02 1163.34 2157.67 1163.46 L2157.69 1167.83 Z" fill="#000000" fill-rule="nonzero" fill-opacity="1" /><path clip-path="url(#clip590)" d="M2183.3 1175.75 L2183.3 1177.83 L2163.71 1177.83 Q2163.99 1182.23 2166.35 1184.54 Q2168.74 1186.84 2172.97 1186.84 Q2175.43 1186.84 2177.72 1186.23 Q2180.03 1185.63 2182.3 1184.43 L2182.3 1188.46 Q2180.01 1189.43 2177.6 1189.94 Q2175.19 1190.45 2172.72 1190.45 Q2166.51 1190.45 2162.88 1186.84 Q2159.27 1183.23 2159.27 1177.07 Q2159.27 1170.7 2162.69 1166.98 Q2166.14 1163.23 2171.98 1163.23 Q2177.21 1163.23 2180.24 1166.61 Q2183.3 1169.96 2183.3 1175.75 M2179.04 1174.5 Q2178.99 1171 2177.07 1168.92 Q2175.17 1166.84 2172.02 1166.84 Q2168.46 1166.84 2166.31 1168.85 Q2164.18 1170.86 2163.85 1174.52 L2179.04 1174.5 Z" fill="#000000" fill-rule="nonzero" fill-opacity="1" /><path clip-path="url(#clip590)" d="M2212.46 1175.75 L2212.46 1177.83 L2192.88 1177.83 Q2193.16 1182.23 2195.52 1184.54 Q2197.9 1186.84 2202.14 1186.84 Q2204.59 1186.84 2206.88 1186.23 Q2209.2 1185.63 2211.47 1184.43 L2211.47 1188.46 Q2209.18 1189.43 2206.77 1189.94 Q2204.36 1190.45 2201.88 1190.45 Q2195.68 1190.45 2192.05 1186.84 Q2188.44 1183.23 2188.44 1177.07 Q2188.44 1170.7 2191.86 1166.98 Q2195.31 1163.23 2201.14 1163.23 Q2206.38 1163.23 2209.41 1166.61 Q2212.46 1169.96 2212.46 1175.75 M2208.2 1174.5 Q2208.16 1171 2206.24 1168.92 Q2204.34 1166.84 2201.19 1166.84 Q2197.63 1166.84 2195.47 1168.85 Q2193.34 1170.86 2193.02 1174.52 L2208.2 1174.5 Z" fill="#000000" fill-rule="nonzero" fill-opacity="1" /><path clip-path="url(#clip590)" d="M2235.94 1185.84 L2243.57 1185.84 L2243.57 1159.48 L2235.26 1161.14 L2235.26 1156.88 L2243.53 1155.22 L2248.2 1155.22 L2248.2 1185.84 L2255.84 1185.84 L2255.84 1189.78 L2235.94 1189.78 L2235.94 1185.84 Z" fill="#000000" fill-rule="nonzero" fill-opacity="1" /><polyline clip-path="url(#clip590)" style="stroke:#3da44d; stroke-linecap:round; stroke-linejoin:round; stroke-width:4; stroke-opacity:1; fill:none" points="1884.87,1224.34 2027.67,1224.34 "/>
<path clip-path="url(#clip590)" d="M2070.38 1219.63 L2070.38 1205.6 L2074.64 1205.6 L2074.64 1241.62 L2070.38 1241.62 L2070.38 1237.73 Q2069.04 1240.04 2066.98 1241.18 Q2064.94 1242.29 2062.07 1242.29 Q2057.37 1242.29 2054.41 1238.54 Q2051.47 1234.79 2051.47 1228.68 Q2051.47 1222.57 2054.41 1218.82 Q2057.37 1215.07 2062.07 1215.07 Q2064.94 1215.07 2066.98 1216.2 Q2069.04 1217.31 2070.38 1219.63 M2055.87 1228.68 Q2055.87 1233.38 2057.79 1236.06 Q2059.73 1238.72 2063.11 1238.72 Q2066.49 1238.72 2068.44 1236.06 Q2070.38 1233.38 2070.38 1228.68 Q2070.38 1223.98 2068.44 1221.32 Q2066.49 1218.63 2063.11 1218.63 Q2059.73 1218.63 2057.79 1221.32 Q2055.87 1223.98 2055.87 1228.68 Z" fill="#000000" fill-rule="nonzero" fill-opacity="1" /><path clip-path="url(#clip590)" d="M2105.59 1227.59 L2105.59 1229.67 L2086.01 1229.67 Q2086.28 1234.07 2088.64 1236.38 Q2091.03 1238.68 2095.26 1238.68 Q2097.72 1238.68 2100.01 1238.07 Q2102.32 1237.47 2104.59 1236.27 L2104.59 1240.3 Q2102.3 1241.27 2099.89 1241.78 Q2097.49 1242.29 2095.01 1242.29 Q2088.81 1242.29 2085.17 1238.68 Q2081.56 1235.07 2081.56 1228.91 Q2081.56 1222.54 2084.99 1218.82 Q2088.44 1215.07 2094.27 1215.07 Q2099.5 1215.07 2102.53 1218.45 Q2105.59 1221.8 2105.59 1227.59 M2101.33 1226.34 Q2101.28 1222.84 2099.36 1220.76 Q2097.46 1218.68 2094.32 1218.68 Q2090.75 1218.68 2088.6 1220.69 Q2086.47 1222.7 2086.14 1226.36 L2101.33 1226.34 Z" fill="#000000" fill-rule="nonzero" fill-opacity="1" /><path clip-path="url(#clip590)" d="M2129.64 1228.35 Q2129.64 1223.72 2127.72 1221.18 Q2125.82 1218.63 2122.37 1218.63 Q2118.95 1218.63 2117.02 1221.18 Q2115.13 1223.72 2115.13 1228.35 Q2115.13 1232.96 2117.02 1235.51 Q2118.95 1238.05 2122.37 1238.05 Q2125.82 1238.05 2127.72 1235.51 Q2129.64 1232.96 2129.64 1228.35 M2133.9 1238.4 Q2133.9 1245.02 2130.96 1248.24 Q2128.02 1251.48 2121.95 1251.48 Q2119.71 1251.48 2117.72 1251.13 Q2115.73 1250.81 2113.85 1250.11 L2113.85 1245.97 Q2115.73 1246.99 2117.56 1247.47 Q2119.38 1247.96 2121.28 1247.96 Q2125.47 1247.96 2127.56 1245.76 Q2129.64 1243.58 2129.64 1239.16 L2129.64 1237.06 Q2128.32 1239.35 2126.26 1240.48 Q2124.2 1241.62 2121.33 1241.62 Q2116.56 1241.62 2113.64 1237.98 Q2110.73 1234.35 2110.73 1228.35 Q2110.73 1222.33 2113.64 1218.7 Q2116.56 1215.07 2121.33 1215.07 Q2124.2 1215.07 2126.26 1216.2 Q2128.32 1217.33 2129.64 1219.63 L2129.64 1215.69 L2133.9 1215.69 L2133.9 1238.4 Z" fill="#000000" fill-rule="nonzero" fill-opacity="1" /><path clip-path="url(#clip590)" d="M2157.69 1219.67 Q2156.98 1219.26 2156.12 1219.07 Q2155.29 1218.86 2154.27 1218.86 Q2150.66 1218.86 2148.71 1221.22 Q2146.79 1223.56 2146.79 1227.96 L2146.79 1241.62 L2142.51 1241.62 L2142.51 1215.69 L2146.79 1215.69 L2146.79 1219.72 Q2148.13 1217.36 2150.29 1216.22 Q2152.44 1215.07 2155.52 1215.07 Q2155.96 1215.07 2156.49 1215.13 Q2157.02 1215.18 2157.67 1215.3 L2157.69 1219.67 Z" fill="#000000" fill-rule="nonzero" fill-opacity="1" /><path clip-path="url(#clip590)" d="M2183.3 1227.59 L2183.3 1229.67 L2163.71 1229.67 Q2163.99 1234.07 2166.35 1236.38 Q2168.74 1238.68 2172.97 1238.68 Q2175.43 1238.68 2177.72 1238.07 Q2180.03 1237.47 2182.3 1236.27 L2182.3 1240.3 Q2180.01 1241.27 2177.6 1241.78 Q2175.19 1242.29 2172.72 1242.29 Q2166.51 1242.29 2162.88 1238.68 Q2159.27 1235.07 2159.27 1228.91 Q2159.27 1222.54 2162.69 1218.82 Q2166.14 1215.07 2171.98 1215.07 Q2177.21 1215.07 2180.24 1218.45 Q2183.3 1221.8 2183.3 1227.59 M2179.04 1226.34 Q2178.99 1222.84 2177.07 1220.76 Q2175.17 1218.68 2172.02 1218.68 Q2168.46 1218.68 2166.31 1220.69 Q2164.18 1222.7 2163.85 1226.36 L2179.04 1226.34 Z" fill="#000000" fill-rule="nonzero" fill-opacity="1" /><path clip-path="url(#clip590)" d="M2212.46 1227.59 L2212.46 1229.67 L2192.88 1229.67 Q2193.16 1234.07 2195.52 1236.38 Q2197.9 1238.68 2202.14 1238.68 Q2204.59 1238.68 2206.88 1238.07 Q2209.2 1237.47 2211.47 1236.27 L2211.47 1240.3 Q2209.18 1241.27 2206.77 1241.78 Q2204.36 1242.29 2201.88 1242.29 Q2195.68 1242.29 2192.05 1238.68 Q2188.44 1235.07 2188.44 1228.91 Q2188.44 1222.54 2191.86 1218.82 Q2195.31 1215.07 2201.14 1215.07 Q2206.38 1215.07 2209.41 1218.45 Q2212.46 1221.8 2212.46 1227.59 M2208.2 1226.34 Q2208.16 1222.84 2206.24 1220.76 Q2204.34 1218.68 2201.19 1218.68 Q2197.63 1218.68 2195.47 1220.69 Q2193.34 1222.7 2193.02 1226.36 L2208.2 1226.34 Z" fill="#000000" fill-rule="nonzero" fill-opacity="1" /><path clip-path="url(#clip590)" d="M2239.15 1237.68 L2255.47 1237.68 L2255.47 1241.62 L2233.53 1241.62 L2233.53 1237.68 Q2236.19 1234.93 2240.77 1230.3 Q2245.38 1225.64 2246.56 1224.3 Q2248.81 1221.78 2249.69 1220.04 Q2250.59 1218.28 2250.59 1216.59 Q2250.59 1213.84 2248.64 1212.1 Q2246.72 1210.37 2243.62 1210.37 Q2241.42 1210.37 2238.97 1211.13 Q2236.54 1211.89 2233.76 1213.45 L2233.76 1208.72 Q2236.58 1207.59 2239.04 1207.01 Q2241.49 1206.43 2243.53 1206.43 Q2248.9 1206.43 2252.09 1209.12 Q2255.29 1211.8 2255.29 1216.29 Q2255.29 1218.42 2254.48 1220.34 Q2253.69 1222.24 2251.58 1224.83 Q2251 1225.51 2247.9 1228.72 Q2244.8 1231.92 2239.15 1237.68 Z" fill="#000000" fill-rule="nonzero" fill-opacity="1" /><polyline clip-path="url(#clip590)" style="stroke:#c271d2; stroke-linecap:round; stroke-linejoin:round; stroke-width:4; stroke-opacity:1; fill:none" points="1884.87,1276.18 2027.67,1276.18 "/>
<path clip-path="url(#clip590)" d="M2070.38 1271.47 L2070.38 1257.44 L2074.64 1257.44 L2074.64 1293.46 L2070.38 1293.46 L2070.38 1289.57 Q2069.04 1291.88 2066.98 1293.02 Q2064.94 1294.13 2062.07 1294.13 Q2057.37 1294.13 2054.41 1290.38 Q2051.47 1286.63 2051.47 1280.52 Q2051.47 1274.41 2054.41 1270.66 Q2057.37 1266.91 2062.07 1266.91 Q2064.94 1266.91 2066.98 1268.04 Q2069.04 1269.15 2070.38 1271.47 M2055.87 1280.52 Q2055.87 1285.22 2057.79 1287.9 Q2059.73 1290.56 2063.11 1290.56 Q2066.49 1290.56 2068.44 1287.9 Q2070.38 1285.22 2070.38 1280.52 Q2070.38 1275.82 2068.44 1273.16 Q2066.49 1270.47 2063.11 1270.47 Q2059.73 1270.47 2057.79 1273.16 Q2055.87 1275.82 2055.87 1280.52 Z" fill="#000000" fill-rule="nonzero" fill-opacity="1" /><path clip-path="url(#clip590)" d="M2105.59 1279.43 L2105.59 1281.51 L2086.01 1281.51 Q2086.28 1285.91 2088.64 1288.22 Q2091.03 1290.52 2095.26 1290.52 Q2097.72 1290.52 2100.01 1289.91 Q2102.32 1289.31 2104.59 1288.11 L2104.59 1292.14 Q2102.3 1293.11 2099.89 1293.62 Q2097.49 1294.13 2095.01 1294.13 Q2088.81 1294.13 2085.17 1290.52 Q2081.56 1286.91 2081.56 1280.75 Q2081.56 1274.38 2084.99 1270.66 Q2088.44 1266.91 2094.27 1266.91 Q2099.5 1266.91 2102.53 1270.29 Q2105.59 1273.64 2105.59 1279.43 M2101.33 1278.18 Q2101.28 1274.68 2099.36 1272.6 Q2097.46 1270.52 2094.32 1270.52 Q2090.75 1270.52 2088.6 1272.53 Q2086.47 1274.54 2086.14 1278.2 L2101.33 1278.18 Z" fill="#000000" fill-rule="nonzero" fill-opacity="1" /><path clip-path="url(#clip590)" d="M2129.64 1280.19 Q2129.64 1275.56 2127.72 1273.02 Q2125.82 1270.47 2122.37 1270.47 Q2118.95 1270.47 2117.02 1273.02 Q2115.13 1275.56 2115.13 1280.19 Q2115.13 1284.8 2117.02 1287.35 Q2118.95 1289.89 2122.37 1289.89 Q2125.82 1289.89 2127.72 1287.35 Q2129.64 1284.8 2129.64 1280.19 M2133.9 1290.24 Q2133.9 1296.86 2130.96 1300.08 Q2128.02 1303.32 2121.95 1303.32 Q2119.71 1303.32 2117.72 1302.97 Q2115.73 1302.65 2113.85 1301.95 L2113.85 1297.81 Q2115.73 1298.83 2117.56 1299.31 Q2119.38 1299.8 2121.28 1299.8 Q2125.47 1299.8 2127.56 1297.6 Q2129.64 1295.42 2129.64 1291 L2129.64 1288.9 Q2128.32 1291.19 2126.26 1292.32 Q2124.2 1293.46 2121.33 1293.46 Q2116.56 1293.46 2113.64 1289.82 Q2110.73 1286.19 2110.73 1280.19 Q2110.73 1274.17 2113.64 1270.54 Q2116.56 1266.91 2121.33 1266.91 Q2124.2 1266.91 2126.26 1268.04 Q2128.32 1269.17 2129.64 1271.47 L2129.64 1267.53 L2133.9 1267.53 L2133.9 1290.24 Z" fill="#000000" fill-rule="nonzero" fill-opacity="1" /><path clip-path="url(#clip590)" d="M2157.69 1271.51 Q2156.98 1271.1 2156.12 1270.91 Q2155.29 1270.7 2154.27 1270.7 Q2150.66 1270.7 2148.71 1273.06 Q2146.79 1275.4 2146.79 1279.8 L2146.79 1293.46 L2142.51 1293.46 L2142.51 1267.53 L2146.79 1267.53 L2146.79 1271.56 Q2148.13 1269.2 2150.29 1268.06 Q2152.44 1266.91 2155.52 1266.91 Q2155.96 1266.91 2156.49 1266.97 Q2157.02 1267.02 2157.67 1267.14 L2157.69 1271.51 Z" fill="#000000" fill-rule="nonzero" fill-opacity="1" /><path clip-path="url(#clip590)" d="M2183.3 1279.43 L2183.3 1281.51 L2163.71 1281.51 Q2163.99 1285.91 2166.35 1288.22 Q2168.74 1290.52 2172.97 1290.52 Q2175.43 1290.52 2177.72 1289.91 Q2180.03 1289.31 2182.3 1288.11 L2182.3 1292.14 Q2180.01 1293.11 2177.6 1293.62 Q2175.19 1294.13 2172.72 1294.13 Q2166.51 1294.13 2162.88 1290.52 Q2159.27 1286.91 2159.27 1280.75 Q2159.27 1274.38 2162.69 1270.66 Q2166.14 1266.91 2171.98 1266.91 Q2177.21 1266.91 2180.24 1270.29 Q2183.3 1273.64 2183.3 1279.43 M2179.04 1278.18 Q2178.99 1274.68 2177.07 1272.6 Q2175.17 1270.52 2172.02 1270.52 Q2168.46 1270.52 2166.31 1272.53 Q2164.18 1274.54 2163.85 1278.2 L2179.04 1278.18 Z" fill="#000000" fill-rule="nonzero" fill-opacity="1" /><path clip-path="url(#clip590)" d="M2212.46 1279.43 L2212.46 1281.51 L2192.88 1281.51 Q2193.16 1285.91 2195.52 1288.22 Q2197.9 1290.52 2202.14 1290.52 Q2204.59 1290.52 2206.88 1289.91 Q2209.2 1289.31 2211.47 1288.11 L2211.47 1292.14 Q2209.18 1293.11 2206.77 1293.62 Q2204.36 1294.13 2201.88 1294.13 Q2195.68 1294.13 2192.05 1290.52 Q2188.44 1286.91 2188.44 1280.75 Q2188.44 1274.38 2191.86 1270.66 Q2195.31 1266.91 2201.14 1266.91 Q2206.38 1266.91 2209.41 1270.29 Q2212.46 1273.64 2212.46 1279.43 M2208.2 1278.18 Q2208.16 1274.68 2206.24 1272.6 Q2204.34 1270.52 2201.19 1270.52 Q2197.63 1270.52 2195.47 1272.53 Q2193.34 1274.54 2193.02 1278.2 L2208.2 1278.18 Z" fill="#000000" fill-rule="nonzero" fill-opacity="1" /><path clip-path="url(#clip590)" d="M2249.29 1274.82 Q2252.65 1275.54 2254.52 1277.81 Q2256.42 1280.08 2256.42 1283.41 Q2256.42 1288.53 2252.9 1291.33 Q2249.38 1294.13 2242.9 1294.13 Q2240.73 1294.13 2238.41 1293.69 Q2236.12 1293.27 2233.67 1292.41 L2233.67 1287.9 Q2235.61 1289.03 2237.93 1289.61 Q2240.24 1290.19 2242.76 1290.19 Q2247.16 1290.19 2249.45 1288.46 Q2251.77 1286.72 2251.77 1283.41 Q2251.77 1280.35 2249.62 1278.64 Q2247.49 1276.91 2243.67 1276.91 L2239.64 1276.91 L2239.64 1273.06 L2243.85 1273.06 Q2247.3 1273.06 2249.13 1271.7 Q2250.96 1270.31 2250.96 1267.72 Q2250.96 1265.05 2249.06 1263.64 Q2247.19 1262.21 2243.67 1262.21 Q2241.75 1262.21 2239.55 1262.62 Q2237.35 1263.04 2234.71 1263.92 L2234.71 1259.75 Q2237.37 1259.01 2239.69 1258.64 Q2242.02 1258.27 2244.08 1258.27 Q2249.41 1258.27 2252.51 1260.7 Q2255.61 1263.11 2255.61 1267.23 Q2255.61 1270.1 2253.97 1272.09 Q2252.32 1274.06 2249.29 1274.82 Z" fill="#000000" fill-rule="nonzero" fill-opacity="1" /><polyline clip-path="url(#clip590)" style="stroke:#ac8d18; stroke-linecap:round; stroke-linejoin:round; stroke-width:4; stroke-opacity:1; fill:none" points="1884.87,1328.02 2027.67,1328.02 "/>
<path clip-path="url(#clip590)" d="M2070.38 1323.31 L2070.38 1309.28 L2074.64 1309.28 L2074.64 1345.3 L2070.38 1345.3 L2070.38 1341.41 Q2069.04 1343.72 2066.98 1344.86 Q2064.94 1345.97 2062.07 1345.97 Q2057.37 1345.97 2054.41 1342.22 Q2051.47 1338.47 2051.47 1332.36 Q2051.47 1326.25 2054.41 1322.5 Q2057.37 1318.75 2062.07 1318.75 Q2064.94 1318.75 2066.98 1319.88 Q2069.04 1320.99 2070.38 1323.31 M2055.87 1332.36 Q2055.87 1337.06 2057.79 1339.74 Q2059.73 1342.4 2063.11 1342.4 Q2066.49 1342.4 2068.44 1339.74 Q2070.38 1337.06 2070.38 1332.36 Q2070.38 1327.66 2068.44 1325 Q2066.49 1322.31 2063.11 1322.31 Q2059.73 1322.31 2057.79 1325 Q2055.87 1327.66 2055.87 1332.36 Z" fill="#000000" fill-rule="nonzero" fill-opacity="1" /><path clip-path="url(#clip590)" d="M2105.59 1331.27 L2105.59 1333.35 L2086.01 1333.35 Q2086.28 1337.75 2088.64 1340.06 Q2091.03 1342.36 2095.26 1342.36 Q2097.72 1342.36 2100.01 1341.75 Q2102.32 1341.15 2104.59 1339.95 L2104.59 1343.98 Q2102.3 1344.95 2099.89 1345.46 Q2097.49 1345.97 2095.01 1345.97 Q2088.81 1345.97 2085.17 1342.36 Q2081.56 1338.75 2081.56 1332.59 Q2081.56 1326.22 2084.99 1322.5 Q2088.44 1318.75 2094.27 1318.75 Q2099.5 1318.75 2102.53 1322.13 Q2105.59 1325.48 2105.59 1331.27 M2101.33 1330.02 Q2101.28 1326.52 2099.36 1324.44 Q2097.46 1322.36 2094.32 1322.36 Q2090.75 1322.36 2088.6 1324.37 Q2086.47 1326.38 2086.14 1330.04 L2101.33 1330.02 Z" fill="#000000" fill-rule="nonzero" fill-opacity="1" /><path clip-path="url(#clip590)" d="M2129.64 1332.03 Q2129.64 1327.4 2127.72 1324.86 Q2125.82 1322.31 2122.37 1322.31 Q2118.95 1322.31 2117.02 1324.86 Q2115.13 1327.4 2115.13 1332.03 Q2115.13 1336.64 2117.02 1339.19 Q2118.95 1341.73 2122.37 1341.73 Q2125.82 1341.73 2127.72 1339.19 Q2129.64 1336.64 2129.64 1332.03 M2133.9 1342.08 Q2133.9 1348.7 2130.96 1351.92 Q2128.02 1355.16 2121.95 1355.16 Q2119.71 1355.16 2117.72 1354.81 Q2115.73 1354.49 2113.85 1353.79 L2113.85 1349.65 Q2115.73 1350.67 2117.56 1351.15 Q2119.38 1351.64 2121.28 1351.64 Q2125.47 1351.64 2127.56 1349.44 Q2129.64 1347.26 2129.64 1342.84 L2129.64 1340.74 Q2128.32 1343.03 2126.26 1344.16 Q2124.2 1345.3 2121.33 1345.3 Q2116.56 1345.3 2113.64 1341.66 Q2110.73 1338.03 2110.73 1332.03 Q2110.73 1326.01 2113.64 1322.38 Q2116.56 1318.75 2121.33 1318.75 Q2124.2 1318.75 2126.26 1319.88 Q2128.32 1321.01 2129.64 1323.31 L2129.64 1319.37 L2133.9 1319.37 L2133.9 1342.08 Z" fill="#000000" fill-rule="nonzero" fill-opacity="1" /><path clip-path="url(#clip590)" d="M2157.69 1323.35 Q2156.98 1322.94 2156.12 1322.75 Q2155.29 1322.54 2154.27 1322.54 Q2150.66 1322.54 2148.71 1324.9 Q2146.79 1327.24 2146.79 1331.64 L2146.79 1345.3 L2142.51 1345.3 L2142.51 1319.37 L2146.79 1319.37 L2146.79 1323.4 Q2148.13 1321.04 2150.29 1319.9 Q2152.44 1318.75 2155.52 1318.75 Q2155.96 1318.75 2156.49 1318.81 Q2157.02 1318.86 2157.67 1318.98 L2157.69 1323.35 Z" fill="#000000" fill-rule="nonzero" fill-opacity="1" /><path clip-path="url(#clip590)" d="M2183.3 1331.27 L2183.3 1333.35 L2163.71 1333.35 Q2163.99 1337.75 2166.35 1340.06 Q2168.74 1342.36 2172.97 1342.36 Q2175.43 1342.36 2177.72 1341.75 Q2180.03 1341.15 2182.3 1339.95 L2182.3 1343.98 Q2180.01 1344.95 2177.6 1345.46 Q2175.19 1345.97 2172.72 1345.97 Q2166.51 1345.97 2162.88 1342.36 Q2159.27 1338.75 2159.27 1332.59 Q2159.27 1326.22 2162.69 1322.5 Q2166.14 1318.75 2171.98 1318.75 Q2177.21 1318.75 2180.24 1322.13 Q2183.3 1325.48 2183.3 1331.27 M2179.04 1330.02 Q2178.99 1326.52 2177.07 1324.44 Q2175.17 1322.36 2172.02 1322.36 Q2168.46 1322.36 2166.31 1324.37 Q2164.18 1326.38 2163.85 1330.04 L2179.04 1330.02 Z" fill="#000000" fill-rule="nonzero" fill-opacity="1" /><path clip-path="url(#clip590)" d="M2212.46 1331.27 L2212.46 1333.35 L2192.88 1333.35 Q2193.16 1337.75 2195.52 1340.06 Q2197.9 1342.36 2202.14 1342.36 Q2204.59 1342.36 2206.88 1341.75 Q2209.2 1341.15 2211.47 1339.95 L2211.47 1343.98 Q2209.18 1344.95 2206.77 1345.46 Q2204.36 1345.97 2201.88 1345.97 Q2195.68 1345.97 2192.05 1342.36 Q2188.44 1338.75 2188.44 1332.59 Q2188.44 1326.22 2191.86 1322.5 Q2195.31 1318.75 2201.14 1318.75 Q2206.38 1318.75 2209.41 1322.13 Q2212.46 1325.48 2212.46 1331.27 M2208.2 1330.02 Q2208.16 1326.52 2206.24 1324.44 Q2204.34 1322.36 2201.19 1322.36 Q2197.63 1322.36 2195.47 1324.37 Q2193.34 1326.38 2193.02 1330.04 L2208.2 1330.02 Z" fill="#000000" fill-rule="nonzero" fill-opacity="1" /><path clip-path="url(#clip590)" d="M2247.97 1314.81 L2236.17 1333.26 L2247.97 1333.26 L2247.97 1314.81 M2246.75 1310.74 L2252.62 1310.74 L2252.62 1333.26 L2257.56 1333.26 L2257.56 1337.15 L2252.62 1337.15 L2252.62 1345.3 L2247.97 1345.3 L2247.97 1337.15 L2232.37 1337.15 L2232.37 1332.63 L2246.75 1310.74 Z" fill="#000000" fill-rule="nonzero" fill-opacity="1" /></svg>
