<?xml version="1.0" encoding="utf-8"?>
<svg xmlns="http://www.w3.org/2000/svg" xmlns:xlink="http://www.w3.org/1999/xlink" width="600" height="400" viewBox="0 0 2400 1600">
<defs>
  <clipPath id="clip370">
    <rect x="0" y="0" width="2400" height="1600"/>
  </clipPath>
</defs>
<path clip-path="url(#clip370)" d="M0 1600 L2400 1600 L2400 0 L0 0  Z" fill="#ffffff" fill-rule="evenodd" fill-opacity="1"/>
<defs>
  <clipPath id="clip371">
    <rect x="257" y="123" width="2097" height="1301"/>
  </clipPath>
</defs>
<path clip-path="url(#clip370)" d="M257.204 1423.18 L2352.76 1423.18 L2352.76 123.472 L257.204 123.472  Z" fill="#ffffff" fill-rule="evenodd" fill-opacity="1"/>
<polyline clip-path="url(#clip371)" style="stroke:#000000; stroke-linecap:round; stroke-linejoin:round; stroke-width:2; stroke-opacity:0.1; fill:none" points="316.512,1423.18 316.512,123.472 "/>
<polyline clip-path="url(#clip371)" style="stroke:#000000; stroke-linecap:round; stroke-linejoin:round; stroke-width:2; stroke-opacity:0.1; fill:none" points="810.746,1423.18 810.746,123.472 "/>
<polyline clip-path="url(#clip371)" style="stroke:#000000; stroke-linecap:round; stroke-linejoin:round; stroke-width:2; stroke-opacity:0.1; fill:none" points="1304.98,1423.18 1304.98,123.472 "/>
<polyline clip-path="url(#clip371)" style="stroke:#000000; stroke-linecap:round; stroke-linejoin:round; stroke-width:2; stroke-opacity:0.1; fill:none" points="1799.21,1423.18 1799.21,123.472 "/>
<polyline clip-path="url(#clip371)" style="stroke:#000000; stroke-linecap:round; stroke-linejoin:round; stroke-width:2; stroke-opacity:0.1; fill:none" points="2293.45,1423.18 2293.45,123.472 "/>
<polyline clip-path="url(#clip371)" style="stroke:#000000; stroke-linecap:round; stroke-linejoin:round; stroke-width:2; stroke-opacity:0.1; fill:none" points="257.204,1386.4 2352.76,1386.4 "/>
<polyline clip-path="url(#clip371)" style="stroke:#000000; stroke-linecap:round; stroke-linejoin:round; stroke-width:2; stroke-opacity:0.1; fill:none" points="257.204,1079.86 2352.76,1079.86 "/>
<polyline clip-path="url(#clip371)" style="stroke:#000000; stroke-linecap:round; stroke-linejoin:round; stroke-width:2; stroke-opacity:0.1; fill:none" points="257.204,773.326 2352.76,773.326 "/>
<polyline clip-path="url(#clip371)" style="stroke:#000000; stroke-linecap:round; stroke-linejoin:round; stroke-width:2; stroke-opacity:0.1; fill:none" points="257.204,466.791 2352.76,466.791 "/>
<polyline clip-path="url(#clip371)" style="stroke:#000000; stroke-linecap:round; stroke-linejoin:round; stroke-width:2; stroke-opacity:0.1; fill:none" points="257.204,160.256 2352.76,160.256 "/>
<polyline clip-path="url(#clip370)" style="stroke:#000000; stroke-linecap:round; stroke-linejoin:round; stroke-width:4; stroke-opacity:1; fill:none" points="257.204,1423.18 2352.76,1423.18 "/>
<polyline clip-path="url(#clip370)" style="stroke:#000000; stroke-linecap:round; stroke-linejoin:round; stroke-width:4; stroke-opacity:1; fill:none" points="316.512,1423.18 316.512,1404.28 "/>
<polyline clip-path="url(#clip370)" style="stroke:#000000; stroke-linecap:round; stroke-linejoin:round; stroke-width:4; stroke-opacity:1; fill:none" points="810.746,1423.18 810.746,1404.28 "/>
<polyline clip-path="url(#clip370)" style="stroke:#000000; stroke-linecap:round; stroke-linejoin:round; stroke-width:4; stroke-opacity:1; fill:none" points="1304.98,1423.18 1304.98,1404.28 "/>
<polyline clip-path="url(#clip370)" style="stroke:#000000; stroke-linecap:round; stroke-linejoin:round; stroke-width:4; stroke-opacity:1; fill:none" points="1799.21,1423.18 1799.21,1404.28 "/>
<polyline clip-path="url(#clip370)" style="stroke:#000000; stroke-linecap:round; stroke-linejoin:round; stroke-width:4; stroke-opacity:1; fill:none" points="2293.45,1423.18 2293.45,1404.28 "/>
<path clip-path="url(#clip370)" d="M278.816 1454.1 Q275.204 1454.1 273.376 1457.66 Q271.57 1461.2 271.57 1468.33 Q271.57 1475.44 273.376 1479.01 Q275.204 1482.55 278.816 1482.55 Q282.45 1482.55 284.255 1479.01 Q286.084 1475.44 286.084 1468.33 Q286.084 1461.2 284.255 1457.66 Q282.45 1454.1 278.816 1454.1 M278.816 1450.39 Q284.626 1450.39 287.681 1455 Q290.76 1459.58 290.76 1468.33 Q290.76 1477.06 287.681 1481.67 Q284.626 1486.25 278.816 1486.25 Q273.005 1486.25 269.927 1481.67 Q266.871 1477.06 266.871 1468.33 Q266.871 1459.58 269.927 1455 Q273.005 1450.39 278.816 1450.39 Z" fill="#000000" fill-rule="nonzero" fill-opacity="1" /><path clip-path="url(#clip370)" d="M298.977 1479.7 L303.862 1479.7 L303.862 1485.58 L298.977 1485.58 L298.977 1479.7 Z" fill="#000000" fill-rule="nonzero" fill-opacity="1" /><path clip-path="url(#clip370)" d="M324.047 1454.1 Q320.436 1454.1 318.607 1457.66 Q316.801 1461.2 316.801 1468.33 Q316.801 1475.44 318.607 1479.01 Q320.436 1482.55 324.047 1482.55 Q327.681 1482.55 329.487 1479.01 Q331.315 1475.44 331.315 1468.33 Q331.315 1461.2 329.487 1457.66 Q327.681 1454.1 324.047 1454.1 M324.047 1450.39 Q329.857 1450.39 332.912 1455 Q335.991 1459.58 335.991 1468.33 Q335.991 1477.06 332.912 1481.67 Q329.857 1486.25 324.047 1486.25 Q318.237 1486.25 315.158 1481.67 Q312.102 1477.06 312.102 1468.33 Q312.102 1459.58 315.158 1455 Q318.237 1450.39 324.047 1450.39 Z" fill="#000000" fill-rule="nonzero" fill-opacity="1" /><path clip-path="url(#clip370)" d="M354.209 1454.1 Q350.598 1454.1 348.769 1457.66 Q346.963 1461.2 346.963 1468.33 Q346.963 1475.44 348.769 1479.01 Q350.598 1482.55 354.209 1482.55 Q357.843 1482.55 359.648 1479.01 Q361.477 1475.44 361.477 1468.33 Q361.477 1461.2 359.648 1457.66 Q357.843 1454.1 354.209 1454.1 M354.209 1450.39 Q360.019 1450.39 363.074 1455 Q366.153 1459.58 366.153 1468.33 Q366.153 1477.06 363.074 1481.67 Q360.019 1486.25 354.209 1486.25 Q348.399 1486.25 345.32 1481.67 Q342.264 1477.06 342.264 1468.33 Q342.264 1459.58 345.32 1455 Q348.399 1450.39 354.209 1450.39 Z" fill="#000000" fill-rule="nonzero" fill-opacity="1" /><path clip-path="url(#clip370)" d="M773.547 1454.1 Q769.936 1454.1 768.107 1457.66 Q766.302 1461.2 766.302 1468.33 Q766.302 1475.44 768.107 1479.01 Q769.936 1482.55 773.547 1482.55 Q777.181 1482.55 778.987 1479.01 Q780.816 1475.44 780.816 1468.33 Q780.816 1461.2 778.987 1457.66 Q777.181 1454.1 773.547 1454.1 M773.547 1450.39 Q779.357 1450.39 782.413 1455 Q785.492 1459.58 785.492 1468.33 Q785.492 1477.06 782.413 1481.67 Q779.357 1486.25 773.547 1486.25 Q767.737 1486.25 764.658 1481.67 Q761.603 1477.06 761.603 1468.33 Q761.603 1459.58 764.658 1455 Q767.737 1450.39 773.547 1450.39 Z" fill="#000000" fill-rule="nonzero" fill-opacity="1" /><path clip-path="url(#clip370)" d="M793.709 1479.7 L798.593 1479.7 L798.593 1485.58 L793.709 1485.58 L793.709 1479.7 Z" fill="#000000" fill-rule="nonzero" fill-opacity="1" /><path clip-path="url(#clip370)" d="M812.806 1481.64 L829.126 1481.64 L829.126 1485.58 L807.181 1485.58 L807.181 1481.64 Q809.843 1478.89 814.427 1474.26 Q819.033 1469.61 820.214 1468.27 Q822.459 1465.74 823.339 1464.01 Q824.241 1462.25 824.241 1460.56 Q824.241 1457.8 822.297 1456.07 Q820.376 1454.33 817.274 1454.33 Q815.075 1454.33 812.621 1455.09 Q810.19 1455.86 807.413 1457.41 L807.413 1452.69 Q810.237 1451.55 812.69 1450.97 Q815.144 1450.39 817.181 1450.39 Q822.552 1450.39 825.746 1453.08 Q828.94 1455.77 828.94 1460.26 Q828.94 1462.39 828.13 1464.31 Q827.343 1466.2 825.237 1468.8 Q824.658 1469.47 821.556 1472.69 Q818.454 1475.88 812.806 1481.64 Z" fill="#000000" fill-rule="nonzero" fill-opacity="1" /><path clip-path="url(#clip370)" d="M838.987 1451.02 L857.343 1451.02 L857.343 1454.96 L843.269 1454.96 L843.269 1463.43 Q844.288 1463.08 845.306 1462.92 Q846.325 1462.73 847.343 1462.73 Q853.13 1462.73 856.51 1465.9 Q859.889 1469.08 859.889 1474.49 Q859.889 1480.07 856.417 1483.17 Q852.945 1486.25 846.625 1486.25 Q844.45 1486.25 842.181 1485.88 Q839.936 1485.51 837.528 1484.77 L837.528 1480.07 Q839.612 1481.2 841.834 1481.76 Q844.056 1482.32 846.533 1482.32 Q850.537 1482.32 852.875 1480.21 Q855.213 1478.1 855.213 1474.49 Q855.213 1470.88 852.875 1468.77 Q850.537 1466.67 846.533 1466.67 Q844.658 1466.67 842.783 1467.08 Q840.931 1467.5 838.987 1468.38 L838.987 1451.02 Z" fill="#000000" fill-rule="nonzero" fill-opacity="1" /><path clip-path="url(#clip370)" d="M1267.28 1454.1 Q1263.67 1454.1 1261.84 1457.66 Q1260.04 1461.2 1260.04 1468.33 Q1260.04 1475.44 1261.84 1479.01 Q1263.67 1482.55 1267.28 1482.55 Q1270.92 1482.55 1272.72 1479.01 Q1274.55 1475.44 1274.55 1468.33 Q1274.55 1461.2 1272.72 1457.66 Q1270.92 1454.1 1267.28 1454.1 M1267.28 1450.39 Q1273.09 1450.39 1276.15 1455 Q1279.23 1459.58 1279.23 1468.33 Q1279.23 1477.06 1276.15 1481.67 Q1273.09 1486.25 1267.28 1486.25 Q1261.47 1486.25 1258.39 1481.67 Q1255.34 1477.06 1255.34 1468.33 Q1255.34 1459.58 1258.39 1455 Q1261.47 1450.39 1267.28 1450.39 Z" fill="#000000" fill-rule="nonzero" fill-opacity="1" /><path clip-path="url(#clip370)" d="M1287.45 1479.7 L1292.33 1479.7 L1292.33 1485.58 L1287.45 1485.58 L1287.45 1479.7 Z" fill="#000000" fill-rule="nonzero" fill-opacity="1" /><path clip-path="url(#clip370)" d="M1302.56 1451.02 L1320.92 1451.02 L1320.92 1454.96 L1306.84 1454.96 L1306.84 1463.43 Q1307.86 1463.08 1308.88 1462.92 Q1309.9 1462.73 1310.92 1462.73 Q1316.7 1462.73 1320.08 1465.9 Q1323.46 1469.08 1323.46 1474.49 Q1323.46 1480.07 1319.99 1483.17 Q1316.52 1486.25 1310.2 1486.25 Q1308.02 1486.25 1305.76 1485.88 Q1303.51 1485.51 1301.1 1484.77 L1301.1 1480.07 Q1303.19 1481.2 1305.41 1481.76 Q1307.63 1482.32 1310.11 1482.32 Q1314.11 1482.32 1316.45 1480.21 Q1318.79 1478.1 1318.79 1474.49 Q1318.79 1470.88 1316.45 1468.77 Q1314.11 1466.67 1310.11 1466.67 Q1308.23 1466.67 1306.36 1467.08 Q1304.51 1467.5 1302.56 1468.38 L1302.56 1451.02 Z" fill="#000000" fill-rule="nonzero" fill-opacity="1" /><path clip-path="url(#clip370)" d="M1342.68 1454.1 Q1339.07 1454.1 1337.24 1457.66 Q1335.43 1461.2 1335.43 1468.33 Q1335.43 1475.44 1337.24 1479.01 Q1339.07 1482.55 1342.68 1482.55 Q1346.31 1482.55 1348.12 1479.01 Q1349.95 1475.44 1349.95 1468.33 Q1349.95 1461.2 1348.12 1457.66 Q1346.31 1454.1 1342.68 1454.1 M1342.68 1450.39 Q1348.49 1450.39 1351.54 1455 Q1354.62 1459.58 1354.62 1468.33 Q1354.62 1477.06 1351.54 1481.67 Q1348.49 1486.25 1342.68 1486.25 Q1336.87 1486.25 1333.79 1481.67 Q1330.73 1477.06 1330.73 1468.33 Q1330.73 1459.58 1333.79 1455 Q1336.87 1450.39 1342.68 1450.39 Z" fill="#000000" fill-rule="nonzero" fill-opacity="1" /><path clip-path="url(#clip370)" d="M1762.02 1454.1 Q1758.4 1454.1 1756.58 1457.66 Q1754.77 1461.2 1754.77 1468.33 Q1754.77 1475.44 1756.58 1479.01 Q1758.4 1482.55 1762.02 1482.55 Q1765.65 1482.55 1767.45 1479.01 Q1769.28 1475.44 1769.28 1468.33 Q1769.28 1461.2 1767.45 1457.66 Q1765.65 1454.1 1762.02 1454.1 M1762.02 1450.39 Q1767.83 1450.39 1770.88 1455 Q1773.96 1459.58 1773.96 1468.33 Q1773.96 1477.06 1770.88 1481.67 Q1767.83 1486.25 1762.02 1486.25 Q1756.2 1486.25 1753.13 1481.67 Q1750.07 1477.06 1750.07 1468.33 Q1750.07 1459.58 1753.13 1455 Q1756.2 1450.39 1762.02 1450.39 Z" fill="#000000" fill-rule="nonzero" fill-opacity="1" /><path clip-path="url(#clip370)" d="M1782.18 1479.7 L1787.06 1479.7 L1787.06 1485.58 L1782.18 1485.58 L1782.18 1479.7 Z" fill="#000000" fill-rule="nonzero" fill-opacity="1" /><path clip-path="url(#clip370)" d="M1796.07 1451.02 L1818.29 1451.02 L1818.29 1453.01 L1805.74 1485.58 L1800.86 1485.58 L1812.66 1454.96 L1796.07 1454.96 L1796.07 1451.02 Z" fill="#000000" fill-rule="nonzero" fill-opacity="1" /><path clip-path="url(#clip370)" d="M1827.45 1451.02 L1845.81 1451.02 L1845.81 1454.96 L1831.74 1454.96 L1831.74 1463.43 Q1832.76 1463.08 1833.77 1462.92 Q1834.79 1462.73 1835.81 1462.73 Q1841.6 1462.73 1844.98 1465.9 Q1848.36 1469.08 1848.36 1474.49 Q1848.36 1480.07 1844.88 1483.17 Q1841.41 1486.25 1835.09 1486.25 Q1832.92 1486.25 1830.65 1485.88 Q1828.4 1485.51 1826 1484.77 L1826 1480.07 Q1828.08 1481.2 1830.3 1481.76 Q1832.52 1482.32 1835 1482.32 Q1839.01 1482.32 1841.34 1480.21 Q1843.68 1478.1 1843.68 1474.49 Q1843.68 1470.88 1841.34 1468.77 Q1839.01 1466.67 1835 1466.67 Q1833.13 1466.67 1831.25 1467.08 Q1829.4 1467.5 1827.45 1468.38 L1827.45 1451.02 Z" fill="#000000" fill-rule="nonzero" fill-opacity="1" /><path clip-path="url(#clip370)" d="M2245.52 1481.64 L2253.16 1481.64 L2253.16 1455.28 L2244.85 1456.95 L2244.85 1452.69 L2253.11 1451.02 L2257.79 1451.02 L2257.79 1481.64 L2265.43 1481.64 L2265.43 1485.58 L2245.52 1485.58 L2245.52 1481.64 Z" fill="#000000" fill-rule="nonzero" fill-opacity="1" /><path clip-path="url(#clip370)" d="M2274.87 1479.7 L2279.76 1479.7 L2279.76 1485.58 L2274.87 1485.58 L2274.87 1479.7 Z" fill="#000000" fill-rule="nonzero" fill-opacity="1" /><path clip-path="url(#clip370)" d="M2299.94 1454.1 Q2296.33 1454.1 2294.5 1457.66 Q2292.7 1461.2 2292.7 1468.33 Q2292.7 1475.44 2294.5 1479.01 Q2296.33 1482.55 2299.94 1482.55 Q2303.58 1482.55 2305.38 1479.01 Q2307.21 1475.44 2307.21 1468.33 Q2307.21 1461.2 2305.38 1457.66 Q2303.58 1454.1 2299.94 1454.1 M2299.94 1450.39 Q2305.75 1450.39 2308.81 1455 Q2311.89 1459.58 2311.89 1468.33 Q2311.89 1477.06 2308.81 1481.67 Q2305.75 1486.25 2299.94 1486.25 Q2294.13 1486.25 2291.05 1481.67 Q2288 1477.06 2288 1468.33 Q2288 1459.58 2291.05 1455 Q2294.13 1450.39 2299.94 1450.39 Z" fill="#000000" fill-rule="nonzero" fill-opacity="1" /><path clip-path="url(#clip370)" d="M2330.1 1454.1 Q2326.49 1454.1 2324.66 1457.66 Q2322.86 1461.2 2322.86 1468.33 Q2322.86 1475.44 2324.66 1479.01 Q2326.49 1482.55 2330.1 1482.55 Q2333.74 1482.55 2335.54 1479.01 Q2337.37 1475.44 2337.37 1468.33 Q2337.37 1461.2 2335.54 1457.66 Q2333.74 1454.1 2330.1 1454.1 M2330.1 1450.39 Q2335.91 1450.39 2338.97 1455 Q2342.05 1459.58 2342.05 1468.33 Q2342.05 1477.06 2338.97 1481.67 Q2335.91 1486.25 2330.1 1486.25 Q2324.29 1486.25 2321.21 1481.67 Q2318.16 1477.06 2318.16 1468.33 Q2318.16 1459.58 2321.21 1455 Q2324.29 1450.39 2330.1 1450.39 Z" fill="#000000" fill-rule="nonzero" fill-opacity="1" /><path clip-path="url(#clip370)" d="M1291.47 1532.4 L1319.29 1532.4 L1319.29 1537.74 L1297.26 1563.37 L1319.29 1563.37 L1319.29 1568.04 L1290.67 1568.04 L1290.67 1562.7 L1312.7 1537.07 L1291.47 1537.07 L1291.47 1532.4 Z" fill="#000000" fill-rule="nonzero" fill-opacity="1" /><polyline clip-path="url(#clip370)" style="stroke:#000000; stroke-linecap:round; stroke-linejoin:round; stroke-width:4; stroke-opacity:1; fill:none" points="257.204,1423.18 257.204,123.472 "/>
<polyline clip-path="url(#clip370)" style="stroke:#000000; stroke-linecap:round; stroke-linejoin:round; stroke-width:4; stroke-opacity:1; fill:none" points="257.204,1386.4 276.102,1386.4 "/>
<polyline clip-path="url(#clip370)" style="stroke:#000000; stroke-linecap:round; stroke-linejoin:round; stroke-width:4; stroke-opacity:1; fill:none" points="257.204,1079.86 276.102,1079.86 "/>
<polyline clip-path="url(#clip370)" style="stroke:#000000; stroke-linecap:round; stroke-linejoin:round; stroke-width:4; stroke-opacity:1; fill:none" points="257.204,773.326 276.102,773.326 "/>
<polyline clip-path="url(#clip370)" style="stroke:#000000; stroke-linecap:round; stroke-linejoin:round; stroke-width:4; stroke-opacity:1; fill:none" points="257.204,466.791 276.102,466.791 "/>
<polyline clip-path="url(#clip370)" style="stroke:#000000; stroke-linecap:round; stroke-linejoin:round; stroke-width:4; stroke-opacity:1; fill:none" points="257.204,160.256 276.102,160.256 "/>
<path clip-path="url(#clip370)" d="M114.26 1386.85 L143.936 1386.85 L143.936 1390.78 L114.26 1390.78 L114.26 1386.85 Z" fill="#000000" fill-rule="nonzero" fill-opacity="1" /><path clip-path="url(#clip370)" d="M154.839 1399.74 L162.477 1399.74 L162.477 1373.37 L154.167 1375.04 L154.167 1370.78 L162.431 1369.12 L167.107 1369.12 L167.107 1399.74 L174.746 1399.74 L174.746 1403.68 L154.839 1403.68 L154.839 1399.74 Z" fill="#000000" fill-rule="nonzero" fill-opacity="1" /><path clip-path="url(#clip370)" d="M184.19 1397.8 L189.075 1397.8 L189.075 1403.68 L184.19 1403.68 L184.19 1397.8 Z" fill="#000000" fill-rule="nonzero" fill-opacity="1" /><path clip-path="url(#clip370)" d="M209.26 1372.19 Q205.649 1372.19 203.82 1375.76 Q202.014 1379.3 202.014 1386.43 Q202.014 1393.54 203.82 1397.1 Q205.649 1400.64 209.26 1400.64 Q212.894 1400.64 214.699 1397.1 Q216.528 1393.54 216.528 1386.43 Q216.528 1379.3 214.699 1375.76 Q212.894 1372.19 209.26 1372.19 M209.26 1368.49 Q215.07 1368.49 218.125 1373.1 Q221.204 1377.68 221.204 1386.43 Q221.204 1395.16 218.125 1399.76 Q215.07 1404.35 209.26 1404.35 Q203.449 1404.35 200.371 1399.76 Q197.315 1395.16 197.315 1386.43 Q197.315 1377.68 200.371 1373.1 Q203.449 1368.49 209.26 1368.49 Z" fill="#000000" fill-rule="nonzero" fill-opacity="1" /><path clip-path="url(#clip370)" d="M115.256 1080.31 L144.931 1080.31 L144.931 1084.25 L115.256 1084.25 L115.256 1080.31 Z" fill="#000000" fill-rule="nonzero" fill-opacity="1" /><path clip-path="url(#clip370)" d="M165.024 1065.66 Q161.413 1065.66 159.584 1069.22 Q157.778 1072.77 157.778 1079.9 Q157.778 1087 159.584 1090.57 Q161.413 1094.11 165.024 1094.11 Q168.658 1094.11 170.464 1090.57 Q172.292 1087 172.292 1079.9 Q172.292 1072.77 170.464 1069.22 Q168.658 1065.66 165.024 1065.66 M165.024 1061.96 Q170.834 1061.96 173.889 1066.56 Q176.968 1071.15 176.968 1079.9 Q176.968 1088.62 173.889 1093.23 Q170.834 1097.81 165.024 1097.81 Q159.214 1097.81 156.135 1093.23 Q153.079 1088.62 153.079 1079.9 Q153.079 1071.15 156.135 1066.56 Q159.214 1061.96 165.024 1061.96 Z" fill="#000000" fill-rule="nonzero" fill-opacity="1" /><path clip-path="url(#clip370)" d="M185.186 1091.26 L190.07 1091.26 L190.07 1097.14 L185.186 1097.14 L185.186 1091.26 Z" fill="#000000" fill-rule="nonzero" fill-opacity="1" /><path clip-path="url(#clip370)" d="M200.301 1062.58 L218.658 1062.58 L218.658 1066.52 L204.584 1066.52 L204.584 1074.99 Q205.602 1074.64 206.621 1074.48 Q207.639 1074.29 208.658 1074.29 Q214.445 1074.29 217.824 1077.47 Q221.204 1080.64 221.204 1086.05 Q221.204 1091.63 217.732 1094.73 Q214.26 1097.81 207.94 1097.81 Q205.764 1097.81 203.496 1097.44 Q201.25 1097.07 198.843 1096.33 L198.843 1091.63 Q200.926 1092.77 203.149 1093.32 Q205.371 1093.88 207.848 1093.88 Q211.852 1093.88 214.19 1091.77 Q216.528 1089.66 216.528 1086.05 Q216.528 1082.44 214.19 1080.34 Q211.852 1078.23 207.848 1078.23 Q205.973 1078.23 204.098 1078.65 Q202.246 1079.06 200.301 1079.94 L200.301 1062.58 Z" fill="#000000" fill-rule="nonzero" fill-opacity="1" /><path clip-path="url(#clip370)" d="M164.028 759.125 Q160.417 759.125 158.589 762.689 Q156.783 766.231 156.783 773.361 Q156.783 780.467 158.589 784.032 Q160.417 787.574 164.028 787.574 Q167.663 787.574 169.468 784.032 Q171.297 780.467 171.297 773.361 Q171.297 766.231 169.468 762.689 Q167.663 759.125 164.028 759.125 M164.028 755.421 Q169.839 755.421 172.894 760.027 Q175.973 764.611 175.973 773.361 Q175.973 782.088 172.894 786.694 Q169.839 791.277 164.028 791.277 Q158.218 791.277 155.14 786.694 Q152.084 782.088 152.084 773.361 Q152.084 764.611 155.14 760.027 Q158.218 755.421 164.028 755.421 Z" fill="#000000" fill-rule="nonzero" fill-opacity="1" /><path clip-path="url(#clip370)" d="M184.19 784.726 L189.075 784.726 L189.075 790.606 L184.19 790.606 L184.19 784.726 Z" fill="#000000" fill-rule="nonzero" fill-opacity="1" /><path clip-path="url(#clip370)" d="M209.26 759.125 Q205.649 759.125 203.82 762.689 Q202.014 766.231 202.014 773.361 Q202.014 780.467 203.82 784.032 Q205.649 787.574 209.26 787.574 Q212.894 787.574 214.699 784.032 Q216.528 780.467 216.528 773.361 Q216.528 766.231 214.699 762.689 Q212.894 759.125 209.26 759.125 M209.26 755.421 Q215.07 755.421 218.125 760.027 Q221.204 764.611 221.204 773.361 Q221.204 782.088 218.125 786.694 Q215.07 791.277 209.26 791.277 Q203.449 791.277 200.371 786.694 Q197.315 782.088 197.315 773.361 Q197.315 764.611 200.371 760.027 Q203.449 755.421 209.26 755.421 Z" fill="#000000" fill-rule="nonzero" fill-opacity="1" /><path clip-path="url(#clip370)" d="M165.024 452.59 Q161.413 452.59 159.584 456.155 Q157.778 459.696 157.778 466.826 Q157.778 473.932 159.584 477.497 Q161.413 481.039 165.024 481.039 Q168.658 481.039 170.464 477.497 Q172.292 473.932 172.292 466.826 Q172.292 459.696 170.464 456.155 Q168.658 452.59 165.024 452.59 M165.024 448.886 Q170.834 448.886 173.889 453.493 Q176.968 458.076 176.968 466.826 Q176.968 475.553 173.889 480.159 Q170.834 484.742 165.024 484.742 Q159.214 484.742 156.135 480.159 Q153.079 475.553 153.079 466.826 Q153.079 458.076 156.135 453.493 Q159.214 448.886 165.024 448.886 Z" fill="#000000" fill-rule="nonzero" fill-opacity="1" /><path clip-path="url(#clip370)" d="M185.186 478.192 L190.07 478.192 L190.07 484.071 L185.186 484.071 L185.186 478.192 Z" fill="#000000" fill-rule="nonzero" fill-opacity="1" /><path clip-path="url(#clip370)" d="M200.301 449.511 L218.658 449.511 L218.658 453.446 L204.584 453.446 L204.584 461.918 Q205.602 461.571 206.621 461.409 Q207.639 461.224 208.658 461.224 Q214.445 461.224 217.824 464.395 Q221.204 467.567 221.204 472.983 Q221.204 478.562 217.732 481.664 Q214.26 484.742 207.94 484.742 Q205.764 484.742 203.496 484.372 Q201.25 484.002 198.843 483.261 L198.843 478.562 Q200.926 479.696 203.149 480.252 Q205.371 480.807 207.848 480.807 Q211.852 480.807 214.19 478.701 Q216.528 476.594 216.528 472.983 Q216.528 469.372 214.19 467.266 Q211.852 465.159 207.848 465.159 Q205.973 465.159 204.098 465.576 Q202.246 465.993 200.301 466.872 L200.301 449.511 Z" fill="#000000" fill-rule="nonzero" fill-opacity="1" /><path clip-path="url(#clip370)" d="M154.839 173.601 L162.477 173.601 L162.477 147.236 L154.167 148.902 L154.167 144.643 L162.431 142.976 L167.107 142.976 L167.107 173.601 L174.746 173.601 L174.746 177.536 L154.839 177.536 L154.839 173.601 Z" fill="#000000" fill-rule="nonzero" fill-opacity="1" /><path clip-path="url(#clip370)" d="M184.19 171.657 L189.075 171.657 L189.075 177.536 L184.19 177.536 L184.19 171.657 Z" fill="#000000" fill-rule="nonzero" fill-opacity="1" /><path clip-path="url(#clip370)" d="M209.26 146.055 Q205.649 146.055 203.82 149.62 Q202.014 153.161 202.014 160.291 Q202.014 167.397 203.82 170.962 Q205.649 174.504 209.26 174.504 Q212.894 174.504 214.699 170.962 Q216.528 167.397 216.528 160.291 Q216.528 153.161 214.699 149.62 Q212.894 146.055 209.26 146.055 M209.26 142.351 Q215.07 142.351 218.125 146.958 Q221.204 151.541 221.204 160.291 Q221.204 169.018 218.125 173.624 Q215.07 178.208 209.26 178.208 Q203.449 178.208 200.371 173.624 Q197.315 169.018 197.315 160.291 Q197.315 151.541 200.371 146.958 Q203.449 142.351 209.26 142.351 Z" fill="#000000" fill-rule="nonzero" fill-opacity="1" /><path clip-path="url(#clip370)" d="M41.3104 989.776 L58.7206 989.776 L58.7206 979.463 Q58.7206 974.275 56.5881 971.793 Q54.4238 969.278 49.9996 969.278 Q45.5436 969.278 43.4429 971.793 Q41.3104 974.275 41.3104 979.463 L41.3104 989.776 M21.7677 989.776 L36.0905 989.776 L36.0905 980.259 Q36.0905 975.549 34.34 973.257 Q32.5576 970.933 28.9291 970.933 Q25.3325 970.933 23.5501 973.257 Q21.7677 975.549 21.7677 980.259 L21.7677 989.776 M16.4842 996.205 L16.4842 979.782 Q16.4842 972.429 19.5397 968.451 Q22.5952 964.472 28.2289 964.472 Q32.5894 964.472 35.1675 966.509 Q37.7456 968.546 38.3822 972.493 Q39.4007 967.751 42.6472 965.141 Q45.8619 962.499 50.6998 962.499 Q57.0655 962.499 60.5348 966.828 Q64.0042 971.156 64.0042 979.145 L64.0042 996.205 L16.4842 996.205 Z" fill="#000000" fill-rule="nonzero" fill-opacity="1" /><path clip-path="url(#clip370)" d="M46.0847 935.54 Q46.0847 942.638 47.7079 945.375 Q49.3312 948.112 53.2461 948.112 Q56.3653 948.112 58.2114 946.075 Q60.0256 944.006 60.0256 940.474 Q60.0256 935.604 56.5881 932.676 Q53.1188 929.715 47.3897 929.715 L46.0847 929.715 L46.0847 935.54 M43.6657 923.859 L64.0042 923.859 L64.0042 929.715 L58.5933 929.715 Q61.8398 931.721 63.3994 934.713 Q64.9272 937.704 64.9272 942.033 Q64.9272 947.508 61.8716 950.754 Q58.7843 953.969 53.6281 953.969 Q47.6125 953.969 44.5569 949.958 Q41.5014 945.916 41.5014 937.927 L41.5014 929.715 L40.9285 929.715 Q36.8862 929.715 34.6901 932.389 Q32.4621 935.031 32.4621 939.837 Q32.4621 942.892 33.1941 945.789 Q33.9262 948.685 35.3903 951.359 L29.9795 951.359 Q28.7381 948.144 28.1334 945.12 Q27.4968 942.097 27.4968 939.232 Q27.4968 931.498 31.5072 927.678 Q35.5176 923.859 43.6657 923.859 Z" fill="#000000" fill-rule="nonzero" fill-opacity="1" /><path clip-path="url(#clip370)" d="M29.4065 889.07 L34.9447 889.07 Q33.6716 891.553 33.035 894.227 Q32.3984 896.9 32.3984 899.765 Q32.3984 904.125 33.7352 906.322 Q35.072 908.486 37.7456 908.486 Q39.7826 908.486 40.9603 906.926 Q42.1061 905.367 43.1565 900.656 L43.6021 898.651 Q44.9389 892.412 47.3897 889.803 Q49.8086 887.161 54.1691 887.161 Q59.1344 887.161 62.0308 891.107 Q64.9272 895.022 64.9272 901.897 Q64.9272 904.762 64.3543 907.881 Q63.8132 910.968 62.6992 914.406 L56.6518 914.406 Q58.3387 911.159 59.198 908.008 Q60.0256 904.857 60.0256 901.77 Q60.0256 897.632 58.6251 895.404 Q57.1929 893.176 54.6147 893.176 Q52.2276 893.176 50.9545 894.8 Q49.6813 896.391 48.5037 901.834 L48.0262 903.871 Q46.8804 909.313 44.5251 911.732 Q42.138 914.151 38.0002 914.151 Q32.9713 914.151 30.2341 910.587 Q27.4968 907.022 27.4968 900.465 Q27.4968 897.219 27.9743 894.354 Q28.4517 891.489 29.4065 889.07 Z" fill="#000000" fill-rule="nonzero" fill-opacity="1" /><path clip-path="url(#clip370)" d="M28.3562 877.835 L28.3562 871.979 L64.0042 871.979 L64.0042 877.835 L28.3562 877.835 M14.479 877.835 L14.479 871.979 L21.895 871.979 L21.895 877.835 L14.479 877.835 Z" fill="#000000" fill-rule="nonzero" fill-opacity="1" /><path clip-path="url(#clip370)" d="M29.4065 836.999 L34.9447 836.999 Q33.6716 839.482 33.035 842.155 Q32.3984 844.829 32.3984 847.693 Q32.3984 852.054 33.7352 854.25 Q35.072 856.414 37.7456 856.414 Q39.7826 856.414 40.9603 854.855 Q42.1061 853.295 43.1565 848.585 L43.6021 846.579 Q44.9389 840.341 47.3897 837.731 Q49.8086 835.089 54.1691 835.089 Q59.1344 835.089 62.0308 839.036 Q64.9272 842.951 64.9272 849.826 Q64.9272 852.69 64.3543 855.81 Q63.8132 858.897 62.6992 862.334 L56.6518 862.334 Q58.3387 859.088 59.198 855.937 Q60.0256 852.786 60.0256 849.699 Q60.0256 845.561 58.6251 843.333 Q57.1929 841.105 54.6147 841.105 Q52.2276 841.105 50.9545 842.728 Q49.6813 844.32 48.5037 849.762 L48.0262 851.799 Q46.8804 857.242 44.5251 859.661 Q42.138 862.08 38.0002 862.08 Q32.9713 862.08 30.2341 858.515 Q27.4968 854.95 27.4968 848.394 Q27.4968 845.147 27.9743 842.283 Q28.4517 839.418 29.4065 836.999 Z" fill="#000000" fill-rule="nonzero" fill-opacity="1" /><path clip-path="url(#clip370)" d="M14.479 786.996 L19.3487 786.996 L19.3487 792.598 Q19.3487 795.749 20.6219 796.99 Q21.895 798.2 25.2052 798.2 L28.3562 798.2 L28.3562 788.556 L32.9077 788.556 L32.9077 798.2 L64.0042 798.2 L64.0042 804.088 L32.9077 804.088 L32.9077 809.69 L28.3562 809.69 L28.3562 804.088 L25.8736 804.088 Q19.9216 804.088 17.2162 801.319 Q14.479 798.55 14.479 792.535 L14.479 786.996 Z" fill="#000000" fill-rule="nonzero" fill-opacity="1" /><path clip-path="url(#clip370)" d="M49.9359 782.699 L28.3562 782.699 L28.3562 776.843 L49.7131 776.843 Q54.7739 776.843 57.3202 774.87 Q59.8346 772.896 59.8346 768.95 Q59.8346 764.207 56.8109 761.47 Q53.7872 758.701 48.5673 758.701 L28.3562 758.701 L28.3562 752.844 L64.0042 752.844 L64.0042 758.701 L58.5296 758.701 Q61.7762 760.833 63.3676 763.666 Q64.9272 766.467 64.9272 770.191 Q64.9272 776.334 61.1078 779.517 Q57.2883 782.699 49.9359 782.699 M27.4968 767.963 L27.4968 767.963 Z" fill="#000000" fill-rule="nonzero" fill-opacity="1" /><path clip-path="url(#clip370)" d="M42.4881 711.149 L64.0042 711.149 L64.0042 717.005 L42.679 717.005 Q37.6183 717.005 35.1038 718.979 Q32.5894 720.952 32.5894 724.899 Q32.5894 729.641 35.6131 732.379 Q38.6368 735.116 43.8567 735.116 L64.0042 735.116 L64.0042 741.004 L28.3562 741.004 L28.3562 735.116 L33.8944 735.116 Q30.6797 733.015 29.0883 730.182 Q27.4968 727.318 27.4968 723.594 Q27.4968 717.451 31.3163 714.3 Q35.1038 711.149 42.4881 711.149 Z" fill="#000000" fill-rule="nonzero" fill-opacity="1" /><path clip-path="url(#clip370)" d="M29.7248 673.814 L35.1993 673.814 Q33.8307 676.297 33.1623 678.811 Q32.4621 681.294 32.4621 683.84 Q32.4621 689.537 36.0905 692.688 Q39.6872 695.839 46.212 695.839 Q52.7369 695.839 56.3653 692.688 Q59.9619 689.537 59.9619 683.84 Q59.9619 681.294 59.2935 678.811 Q58.5933 676.297 57.2247 673.814 L62.6355 673.814 Q63.7814 676.265 64.3543 678.907 Q64.9272 681.517 64.9272 684.477 Q64.9272 692.529 59.8664 697.272 Q54.8057 702.014 46.212 702.014 Q37.491 702.014 32.4939 697.24 Q27.4968 692.434 27.4968 684.095 Q27.4968 681.389 28.0697 678.811 Q28.6108 676.233 29.7248 673.814 Z" fill="#000000" fill-rule="nonzero" fill-opacity="1" /><path clip-path="url(#clip370)" d="M18.2347 657.836 L28.3562 657.836 L28.3562 645.773 L32.9077 645.773 L32.9077 657.836 L52.2594 657.836 Q56.6199 657.836 57.8613 656.658 Q59.1026 655.449 59.1026 651.789 L59.1026 645.773 L64.0042 645.773 L64.0042 651.789 Q64.0042 658.568 61.4897 661.146 Q58.9434 663.724 52.2594 663.724 L32.9077 663.724 L32.9077 668.021 L28.3562 668.021 L28.3562 663.724 L18.2347 663.724 L18.2347 657.836 Z" fill="#000000" fill-rule="nonzero" fill-opacity="1" /><path clip-path="url(#clip370)" d="M28.3562 638.071 L28.3562 632.214 L64.0042 632.214 L64.0042 638.071 L28.3562 638.071 M14.479 638.071 L14.479 632.214 L21.895 632.214 L21.895 638.071 L14.479 638.071 Z" fill="#000000" fill-rule="nonzero" fill-opacity="1" /><path clip-path="url(#clip370)" d="M32.4621 606.147 Q32.4621 610.857 36.1542 613.594 Q39.8145 616.332 46.212 616.332 Q52.6095 616.332 56.3017 613.626 Q59.9619 610.889 59.9619 606.147 Q59.9619 601.468 56.2698 598.731 Q52.5777 595.993 46.212 595.993 Q39.8781 595.993 36.186 598.731 Q32.4621 601.468 32.4621 606.147 M27.4968 606.147 Q27.4968 598.508 32.4621 594.147 Q37.4273 589.787 46.212 589.787 Q54.9649 589.787 59.9619 594.147 Q64.9272 598.508 64.9272 606.147 Q64.9272 613.817 59.9619 618.178 Q54.9649 622.506 46.212 622.506 Q37.4273 622.506 32.4621 618.178 Q27.4968 613.817 27.4968 606.147 Z" fill="#000000" fill-rule="nonzero" fill-opacity="1" /><path clip-path="url(#clip370)" d="M42.4881 550.447 L64.0042 550.447 L64.0042 556.303 L42.679 556.303 Q37.6183 556.303 35.1038 558.276 Q32.5894 560.25 32.5894 564.197 Q32.5894 568.939 35.6131 571.676 Q38.6368 574.414 43.8567 574.414 L64.0042 574.414 L64.0042 580.302 L28.3562 580.302 L28.3562 574.414 L33.8944 574.414 Q30.6797 572.313 29.0883 569.48 Q27.4968 566.616 27.4968 562.892 Q27.4968 556.749 31.3163 553.598 Q35.1038 550.447 42.4881 550.447 Z" fill="#000000" fill-rule="nonzero" fill-opacity="1" /><path clip-path="url(#clip370)" d="M685.475 14.0809 L685.475 22.0612 Q680.817 19.8332 676.685 18.7395 Q672.553 17.6457 668.704 17.6457 Q662.02 17.6457 658.375 20.2383 Q654.769 22.8309 654.769 27.611 Q654.769 31.6214 657.159 33.6873 Q659.59 35.7128 666.314 36.9686 L671.257 37.9813 Q680.412 39.7232 684.746 44.1387 Q689.121 48.5136 689.121 55.8863 Q689.121 64.6767 683.207 69.2137 Q677.333 73.7508 665.95 73.7508 Q661.656 73.7508 656.795 72.7785 Q651.974 71.8063 646.789 69.9024 L646.789 61.4765 Q651.772 64.2716 656.552 65.6895 Q661.332 67.1073 665.95 67.1073 Q672.958 67.1073 676.766 64.3527 Q680.574 61.598 680.574 56.4939 Q680.574 52.0379 677.819 49.5264 Q675.105 47.0148 668.866 45.759 L663.884 44.7868 Q654.729 42.9639 650.637 39.075 Q646.546 35.1862 646.546 28.2591 Q646.546 20.2383 652.177 15.6203 Q657.848 11.0023 667.773 11.0023 Q672.026 11.0023 676.442 11.7719 Q680.857 12.5416 685.475 14.0809 Z" fill="#000000" fill-rule="nonzero" fill-opacity="1" /><path clip-path="url(#clip370)" d="M739.271 45.1919 L739.271 72.576 L731.818 72.576 L731.818 45.4349 Q731.818 38.994 729.306 35.7938 Q726.794 32.5936 721.771 32.5936 Q715.735 32.5936 712.252 36.4419 Q708.768 40.2903 708.768 46.9338 L708.768 72.576 L701.274 72.576 L701.274 9.54393 L708.768 9.54393 L708.768 34.2544 Q711.441 30.163 715.047 28.1376 Q718.693 26.1121 723.432 26.1121 Q731.25 26.1121 735.261 30.9732 Q739.271 35.7938 739.271 45.1919 Z" fill="#000000" fill-rule="nonzero" fill-opacity="1" /><path clip-path="url(#clip370)" d="M754.138 27.2059 L761.592 27.2059 L761.592 72.576 L754.138 72.576 L754.138 27.2059 M754.138 9.54393 L761.592 9.54393 L761.592 18.9825 L754.138 18.9825 L754.138 9.54393 Z" fill="#000000" fill-rule="nonzero" fill-opacity="1" /><path clip-path="url(#clip370)" d="M800.156 9.54393 L800.156 15.7418 L793.027 15.7418 Q789.016 15.7418 787.436 17.3622 Q785.897 18.9825 785.897 23.1955 L785.897 27.2059 L798.171 27.2059 L798.171 32.9987 L785.897 32.9987 L785.897 72.576 L778.403 72.576 L778.403 32.9987 L771.273 32.9987 L771.273 27.2059 L778.403 27.2059 L778.403 24.0462 Q778.403 16.471 781.927 13.0277 Q785.452 9.54393 793.108 9.54393 L800.156 9.54393 Z" fill="#000000" fill-rule="nonzero" fill-opacity="1" /><path clip-path="url(#clip370)" d="M812.309 14.324 L812.309 27.2059 L827.662 27.2059 L827.662 32.9987 L812.309 32.9987 L812.309 57.6282 Q812.309 63.1779 813.808 64.7578 Q815.347 66.3376 820.006 66.3376 L827.662 66.3376 L827.662 72.576 L820.006 72.576 Q811.377 72.576 808.096 69.3758 Q804.815 66.1351 804.815 57.6282 L804.815 32.9987 L799.346 32.9987 L799.346 27.2059 L804.815 27.2059 L804.815 14.324 L812.309 14.324 Z" fill="#000000" fill-rule="nonzero" fill-opacity="1" /><path clip-path="url(#clip370)" d="M876.273 48.0275 L876.273 51.6733 L842.002 51.6733 Q842.488 59.3701 846.62 63.421 Q850.793 67.4314 858.206 67.4314 Q862.5 67.4314 866.51 66.3781 Q870.561 65.3249 874.531 63.2184 L874.531 70.267 Q870.52 71.9684 866.308 72.8596 Q862.095 73.7508 857.76 73.7508 Q846.904 73.7508 840.544 67.4314 Q834.224 61.1119 834.224 50.3365 Q834.224 39.1965 840.22 32.6746 Q846.256 26.1121 856.464 26.1121 Q865.619 26.1121 870.926 32.0264 Q876.273 37.9003 876.273 48.0275 M868.819 45.84 Q868.738 39.7232 865.376 36.0774 Q862.054 32.4315 856.545 32.4315 Q850.306 32.4315 846.539 35.9558 Q842.812 39.4801 842.245 45.8805 L868.819 45.84 Z" fill="#000000" fill-rule="nonzero" fill-opacity="1" /><path clip-path="url(#clip370)" d="M918.362 34.0924 L918.362 9.54393 L925.815 9.54393 L925.815 72.576 L918.362 72.576 L918.362 65.7705 Q916.012 69.8214 912.407 71.8063 Q908.842 73.7508 903.819 73.7508 Q895.596 73.7508 890.41 67.1883 Q885.266 60.6258 885.266 49.9314 Q885.266 39.2371 890.41 32.6746 Q895.596 26.1121 903.819 26.1121 Q908.842 26.1121 912.407 28.0971 Q916.012 30.0415 918.362 34.0924 M892.962 49.9314 Q892.962 58.1548 896.325 62.8538 Q899.728 67.5124 905.642 67.5124 Q911.556 67.5124 914.959 62.8538 Q918.362 58.1548 918.362 49.9314 Q918.362 41.7081 914.959 37.0496 Q911.556 32.3505 905.642 32.3505 Q899.728 32.3505 896.325 37.0496 Q892.962 41.7081 892.962 49.9314 Z" fill="#000000" fill-rule="nonzero" fill-opacity="1" /><path clip-path="url(#clip370)" d="M967.864 12.096 L976.047 12.096 L976.047 65.6895 L1005.5 65.6895 L1005.5 72.576 L967.864 72.576 L967.864 12.096 Z" fill="#000000" fill-rule="nonzero" fill-opacity="1" /><path clip-path="url(#clip370)" d="M1051.11 48.0275 L1051.11 51.6733 L1016.84 51.6733 Q1017.33 59.3701 1021.46 63.421 Q1025.63 67.4314 1033.04 67.4314 Q1037.34 67.4314 1041.35 66.3781 Q1045.4 65.3249 1049.37 63.2184 L1049.37 70.267 Q1045.36 71.9684 1041.14 72.8596 Q1036.93 73.7508 1032.6 73.7508 Q1021.74 73.7508 1015.38 67.4314 Q1009.06 61.1119 1009.06 50.3365 Q1009.06 39.1965 1015.06 32.6746 Q1021.09 26.1121 1031.3 26.1121 Q1040.46 26.1121 1045.76 32.0264 Q1051.11 37.9003 1051.11 48.0275 M1043.66 45.84 Q1043.58 39.7232 1040.21 36.0774 Q1036.89 32.4315 1031.38 32.4315 Q1025.14 32.4315 1021.38 35.9558 Q1017.65 39.4801 1017.08 45.8805 L1043.66 45.84 Z" fill="#000000" fill-rule="nonzero" fill-opacity="1" /><path clip-path="url(#clip370)" d="M1093.2 49.3643 Q1093.2 41.2625 1089.84 36.8065 Q1086.51 32.3505 1080.48 32.3505 Q1074.48 32.3505 1071.12 36.8065 Q1067.8 41.2625 1067.8 49.3643 Q1067.8 57.4256 1071.12 61.8816 Q1074.48 66.3376 1080.48 66.3376 Q1086.51 66.3376 1089.84 61.8816 Q1093.2 57.4256 1093.2 49.3643 M1100.65 66.9452 Q1100.65 78.5308 1095.51 84.1616 Q1090.36 89.8329 1079.75 89.8329 Q1075.82 89.8329 1072.34 89.2252 Q1068.85 88.6581 1065.57 87.4428 L1065.57 80.1917 Q1068.85 81.9741 1072.05 82.8248 Q1075.25 83.6755 1078.57 83.6755 Q1085.91 83.6755 1089.55 79.8271 Q1093.2 76.0193 1093.2 68.282 L1093.2 64.5957 Q1090.89 68.6061 1087.28 70.5911 Q1083.68 72.576 1078.66 72.576 Q1070.31 72.576 1065.21 66.2161 Q1060.1 59.8562 1060.1 49.3643 Q1060.1 38.832 1065.21 32.472 Q1070.31 26.1121 1078.66 26.1121 Q1083.68 26.1121 1087.28 28.0971 Q1090.89 30.082 1093.2 34.0924 L1093.2 27.2059 L1100.65 27.2059 L1100.65 66.9452 Z" fill="#000000" fill-rule="nonzero" fill-opacity="1" /><path clip-path="url(#clip370)" d="M1154.81 48.0275 L1154.81 51.6733 L1120.54 51.6733 Q1121.03 59.3701 1125.16 63.421 Q1129.33 67.4314 1136.75 67.4314 Q1141.04 67.4314 1145.05 66.3781 Q1149.1 65.3249 1153.07 63.2184 L1153.07 70.267 Q1149.06 71.9684 1144.85 72.8596 Q1140.63 73.7508 1136.3 73.7508 Q1125.44 73.7508 1119.08 67.4314 Q1112.76 61.1119 1112.76 50.3365 Q1112.76 39.1965 1118.76 32.6746 Q1124.8 26.1121 1135 26.1121 Q1144.16 26.1121 1149.47 32.0264 Q1154.81 37.9003 1154.81 48.0275 M1147.36 45.84 Q1147.28 39.7232 1143.92 36.0774 Q1140.59 32.4315 1135.09 32.4315 Q1128.85 32.4315 1125.08 35.9558 Q1121.35 39.4801 1120.79 45.8805 L1147.36 45.84 Z" fill="#000000" fill-rule="nonzero" fill-opacity="1" /><path clip-path="url(#clip370)" d="M1204.76 45.1919 L1204.76 72.576 L1197.31 72.576 L1197.31 45.4349 Q1197.31 38.994 1194.8 35.7938 Q1192.28 32.5936 1187.26 32.5936 Q1181.22 32.5936 1177.74 36.4419 Q1174.26 40.2903 1174.26 46.9338 L1174.26 72.576 L1166.76 72.576 L1166.76 27.2059 L1174.26 27.2059 L1174.26 34.2544 Q1176.93 30.163 1180.54 28.1376 Q1184.18 26.1121 1188.92 26.1121 Q1196.74 26.1121 1200.75 30.9732 Q1204.76 35.7938 1204.76 45.1919 Z" fill="#000000" fill-rule="nonzero" fill-opacity="1" /><path clip-path="url(#clip370)" d="M1249.48 34.0924 L1249.48 9.54393 L1256.94 9.54393 L1256.94 72.576 L1249.48 72.576 L1249.48 65.7705 Q1247.13 69.8214 1243.53 71.8063 Q1239.96 73.7508 1234.94 73.7508 Q1226.72 73.7508 1221.53 67.1883 Q1216.39 60.6258 1216.39 49.9314 Q1216.39 39.2371 1221.53 32.6746 Q1226.72 26.1121 1234.94 26.1121 Q1239.96 26.1121 1243.53 28.0971 Q1247.13 30.0415 1249.48 34.0924 M1224.08 49.9314 Q1224.08 58.1548 1227.45 62.8538 Q1230.85 67.5124 1236.76 67.5124 Q1242.68 67.5124 1246.08 62.8538 Q1249.48 58.1548 1249.48 49.9314 Q1249.48 41.7081 1246.08 37.0496 Q1242.68 32.3505 1236.76 32.3505 Q1230.85 32.3505 1227.45 37.0496 Q1224.08 41.7081 1224.08 49.9314 Z" fill="#000000" fill-rule="nonzero" fill-opacity="1" /><path clip-path="url(#clip370)" d="M1298.58 34.1734 Q1297.32 33.4443 1295.82 33.1202 Q1294.37 32.7556 1292.58 32.7556 Q1286.26 32.7556 1282.86 36.8875 Q1279.5 40.9789 1279.5 48.6757 L1279.5 72.576 L1272.01 72.576 L1272.01 27.2059 L1279.5 27.2059 L1279.5 34.2544 Q1281.85 30.1225 1285.62 28.1376 Q1289.38 26.1121 1294.77 26.1121 Q1295.54 26.1121 1296.47 26.2337 Q1297.4 26.3147 1298.54 26.5172 L1298.58 34.1734 Z" fill="#000000" fill-rule="nonzero" fill-opacity="1" /><path clip-path="url(#clip370)" d="M1343.38 48.0275 L1343.38 51.6733 L1309.11 51.6733 Q1309.6 59.3701 1313.73 63.421 Q1317.9 67.4314 1325.32 67.4314 Q1329.61 67.4314 1333.62 66.3781 Q1337.67 65.3249 1341.64 63.2184 L1341.64 70.267 Q1337.63 71.9684 1333.42 72.8596 Q1329.2 73.7508 1324.87 73.7508 Q1314.01 73.7508 1307.65 67.4314 Q1301.33 61.1119 1301.33 50.3365 Q1301.33 39.1965 1307.33 32.6746 Q1313.37 26.1121 1323.57 26.1121 Q1332.73 26.1121 1338.04 32.0264 Q1343.38 37.9003 1343.38 48.0275 M1335.93 45.84 Q1335.85 39.7232 1332.49 36.0774 Q1329.16 32.4315 1323.65 32.4315 Q1317.42 32.4315 1313.65 35.9558 Q1309.92 39.4801 1309.35 45.8805 L1335.93 45.84 Z" fill="#000000" fill-rule="nonzero" fill-opacity="1" /><path clip-path="url(#clip370)" d="M1390.49 43.6931 L1390.49 65.8515 L1403.62 65.8515 Q1410.22 65.8515 1413.38 63.1374 Q1416.58 60.3828 1416.58 54.752 Q1416.58 49.0808 1413.38 46.4072 Q1410.22 43.6931 1403.62 43.6931 L1390.49 43.6931 M1390.49 18.8205 L1390.49 37.0496 L1402.61 37.0496 Q1408.6 37.0496 1411.52 34.8216 Q1414.48 32.5531 1414.48 27.935 Q1414.48 23.3575 1411.52 21.089 Q1408.6 18.8205 1402.61 18.8205 L1390.49 18.8205 M1382.31 12.096 L1403.21 12.096 Q1412.57 12.096 1417.64 15.9849 Q1422.7 19.8737 1422.7 27.0438 Q1422.7 32.5936 1420.11 35.8748 Q1417.51 39.156 1412.49 39.9662 Q1418.53 41.2625 1421.85 45.3944 Q1425.21 49.4858 1425.21 55.6432 Q1425.21 63.745 1419.7 68.1605 Q1414.19 72.576 1404.02 72.576 L1382.31 72.576 L1382.31 12.096 Z" fill="#000000" fill-rule="nonzero" fill-opacity="1" /><path clip-path="url(#clip370)" d="M1459.52 49.7694 Q1450.49 49.7694 1447 51.8354 Q1443.52 53.9013 1443.52 58.8839 Q1443.52 62.8538 1446.11 65.2034 Q1448.75 67.5124 1453.24 67.5124 Q1459.44 67.5124 1463.17 63.1374 Q1466.94 58.7219 1466.94 51.4303 L1466.94 49.7694 L1459.52 49.7694 M1474.39 46.6907 L1474.39 72.576 L1466.94 72.576 L1466.94 65.6895 Q1464.38 69.8214 1460.58 71.8063 Q1456.77 73.7508 1451.26 73.7508 Q1444.29 73.7508 1440.16 69.8619 Q1436.07 65.9325 1436.07 59.3701 Q1436.07 51.7138 1441.17 47.825 Q1446.32 43.9361 1456.48 43.9361 L1466.94 43.9361 L1466.94 43.2069 Q1466.94 38.0623 1463.53 35.2672 Q1460.17 32.4315 1454.05 32.4315 Q1450.16 32.4315 1446.48 33.3632 Q1442.79 34.295 1439.39 36.1584 L1439.39 29.2718 Q1443.48 27.692 1447.33 26.9223 Q1451.18 26.1121 1454.82 26.1121 Q1464.67 26.1121 1469.53 31.2163 Q1474.39 36.3204 1474.39 46.6907 Z" fill="#000000" fill-rule="nonzero" fill-opacity="1" /><path clip-path="url(#clip370)" d="M1518.67 28.5427 L1518.67 35.5912 Q1515.51 33.9709 1512.1 33.1607 Q1508.7 32.3505 1505.05 32.3505 Q1499.5 32.3505 1496.71 34.0519 Q1493.95 35.7533 1493.95 39.156 Q1493.95 41.7486 1495.94 43.2475 Q1497.92 44.7058 1503.92 46.0426 L1506.47 46.6097 Q1514.41 48.3111 1517.73 51.4303 Q1521.1 54.509 1521.1 60.0587 Q1521.1 66.3781 1516.07 70.0644 Q1511.09 73.7508 1502.34 73.7508 Q1498.69 73.7508 1494.72 73.0216 Q1490.79 72.3329 1486.42 70.9151 L1486.42 63.2184 Q1490.55 65.3654 1494.56 66.4591 Q1498.57 67.5124 1502.5 67.5124 Q1507.77 67.5124 1510.6 65.73 Q1513.44 63.9071 1513.44 60.6258 Q1513.44 57.5877 1511.37 55.9673 Q1509.35 54.3469 1502.42 52.8481 L1499.83 52.2405 Q1492.9 50.7821 1489.82 47.7845 Q1486.74 44.7463 1486.74 39.4801 Q1486.74 33.0797 1491.28 29.5959 Q1495.82 26.1121 1504.16 26.1121 Q1508.29 26.1121 1511.94 26.7198 Q1515.59 27.3274 1518.67 28.5427 Z" fill="#000000" fill-rule="nonzero" fill-opacity="1" /><path clip-path="url(#clip370)" d="M1532.96 27.2059 L1540.42 27.2059 L1540.42 72.576 L1532.96 72.576 L1532.96 27.2059 M1532.96 9.54393 L1540.42 9.54393 L1540.42 18.9825 L1532.96 18.9825 L1532.96 9.54393 Z" fill="#000000" fill-rule="nonzero" fill-opacity="1" /><path clip-path="url(#clip370)" d="M1584.94 28.5427 L1584.94 35.5912 Q1581.78 33.9709 1578.38 33.1607 Q1574.97 32.3505 1571.33 32.3505 Q1565.78 32.3505 1562.98 34.0519 Q1560.23 35.7533 1560.23 39.156 Q1560.23 41.7486 1562.21 43.2475 Q1564.2 44.7058 1570.19 46.0426 L1572.74 46.6097 Q1580.68 48.3111 1584.01 51.4303 Q1587.37 54.509 1587.37 60.0587 Q1587.37 66.3781 1582.35 70.0644 Q1577.36 73.7508 1568.61 73.7508 Q1564.97 73.7508 1561 73.0216 Q1557.07 72.3329 1552.69 70.9151 L1552.69 63.2184 Q1556.82 65.3654 1560.84 66.4591 Q1564.85 67.5124 1568.77 67.5124 Q1574.04 67.5124 1576.88 65.73 Q1579.71 63.9071 1579.71 60.6258 Q1579.71 57.5877 1577.65 55.9673 Q1575.62 54.3469 1568.69 52.8481 L1566.1 52.2405 Q1559.17 50.7821 1556.1 47.7845 Q1553.02 44.7463 1553.02 39.4801 Q1553.02 33.0797 1557.55 29.5959 Q1562.09 26.1121 1570.44 26.1121 Q1574.57 26.1121 1578.21 26.7198 Q1581.86 27.3274 1584.94 28.5427 Z" fill="#000000" fill-rule="nonzero" fill-opacity="1" /><path clip-path="url(#clip370)" d="M1643.19 32.4315 Q1637.19 32.4315 1633.71 37.1306 Q1630.23 41.7891 1630.23 49.9314 Q1630.23 58.0738 1633.67 62.7728 Q1637.15 67.4314 1643.19 67.4314 Q1649.14 67.4314 1652.63 62.7323 Q1656.11 58.0333 1656.11 49.9314 Q1656.11 41.8701 1652.63 37.1711 Q1649.14 32.4315 1643.19 32.4315 M1643.19 26.1121 Q1652.91 26.1121 1658.46 32.4315 Q1664.01 38.7509 1664.01 49.9314 Q1664.01 61.0714 1658.46 67.4314 Q1652.91 73.7508 1643.19 73.7508 Q1633.43 73.7508 1627.88 67.4314 Q1622.37 61.0714 1622.37 49.9314 Q1622.37 38.7509 1627.88 32.4315 Q1633.43 26.1121 1643.19 26.1121 Z" fill="#000000" fill-rule="nonzero" fill-opacity="1" /><path clip-path="url(#clip370)" d="M1714.08 45.1919 L1714.08 72.576 L1706.63 72.576 L1706.63 45.4349 Q1706.63 38.994 1704.12 35.7938 Q1701.6 32.5936 1696.58 32.5936 Q1690.55 32.5936 1687.06 36.4419 Q1683.58 40.2903 1683.58 46.9338 L1683.58 72.576 L1676.08 72.576 L1676.08 27.2059 L1683.58 27.2059 L1683.58 34.2544 Q1686.25 30.163 1689.86 28.1376 Q1693.5 26.1121 1698.24 26.1121 Q1706.06 26.1121 1710.07 30.9732 Q1714.08 35.7938 1714.08 45.1919 Z" fill="#000000" fill-rule="nonzero" fill-opacity="1" /><path clip-path="url(#clip370)" d="M1754.63 9.54393 L1771.81 9.54393 L1771.81 15.3367 L1762.08 15.3367 L1762.08 77.7206 L1771.81 77.7206 L1771.81 83.5134 L1754.63 83.5134 L1754.63 9.54393 Z" fill="#000000" fill-rule="nonzero" fill-opacity="1" /><path clip-path="url(#clip370)" d="M1806.24 17.4837 Q1799.92 17.4837 1796.72 23.7221 Q1793.56 29.92 1793.56 42.3968 Q1793.56 54.833 1796.72 61.0714 Q1799.92 67.2693 1806.24 67.2693 Q1812.6 67.2693 1815.76 61.0714 Q1818.96 54.833 1818.96 42.3968 Q1818.96 29.92 1815.76 23.7221 Q1812.6 17.4837 1806.24 17.4837 M1806.24 11.0023 Q1816.41 11.0023 1821.75 19.0636 Q1827.14 27.0843 1827.14 42.3968 Q1827.14 57.6687 1821.75 65.73 Q1816.41 73.7508 1806.24 73.7508 Q1796.07 73.7508 1790.68 65.73 Q1785.34 57.6687 1785.34 42.3968 Q1785.34 27.0843 1790.68 19.0636 Q1796.07 11.0023 1806.24 11.0023 Z" fill="#000000" fill-rule="nonzero" fill-opacity="1" /><path clip-path="url(#clip370)" d="M1842.37 62.2867 L1850.92 62.2867 L1850.92 69.2543 L1844.28 82.2172 L1839.05 82.2172 L1842.37 69.2543 L1842.37 62.2867 Z" fill="#000000" fill-rule="nonzero" fill-opacity="1" /><path clip-path="url(#clip370)" d="M1895.68 65.6895 L1909.05 65.6895 L1909.05 19.5497 L1894.51 22.4663 L1894.51 15.0127 L1908.97 12.096 L1917.15 12.096 L1917.15 65.6895 L1930.52 65.6895 L1930.52 72.576 L1895.68 72.576 L1895.68 65.6895 Z" fill="#000000" fill-rule="nonzero" fill-opacity="1" /><path clip-path="url(#clip370)" d="M1963.41 9.54393 L1963.41 83.5134 L1946.24 83.5134 L1946.24 77.7206 L1955.92 77.7206 L1955.92 15.3367 L1946.24 15.3367 L1946.24 9.54393 L1963.41 9.54393 Z" fill="#000000" fill-rule="nonzero" fill-opacity="1" /><polyline clip-path="url(#clip371)" style="stroke:#009af9; stroke-linecap:round; stroke-linejoin:round; stroke-width:4; stroke-opacity:1; fill:none" points="316.512,160.256 336.281,160.256 356.051,160.256 375.82,160.256 395.59,160.256 415.359,160.256 435.128,160.256 454.898,160.256 474.667,160.256 494.436,160.256 514.206,160.256 533.975,160.256 553.744,160.256 573.514,160.256 593.283,160.256 613.052,160.256 632.822,160.256 652.591,160.256 672.361,160.256 692.13,160.256 711.899,160.256 731.669,160.256 751.438,160.256 771.207,160.256 790.977,160.256 810.746,160.256 830.515,160.256 850.285,160.256 870.054,160.256 889.823,160.256 909.593,160.256 929.362,160.256 949.132,160.256 968.901,160.256 988.67,160.256 1008.44,160.256 1028.21,160.256 1047.98,160.256 1067.75,160.256 1087.52,160.256 1107.29,160.256 1127.06,160.256 1146.83,160.256 1166.59,160.256 1186.36,160.256 1206.13,160.256 1225.9,160.256 1245.67,160.256 1265.44,160.256 1285.21,160.256 1304.98,160.256 1324.75,160.256 1344.52,160.256 1364.29,160.256 1384.06,160.256 1403.83,160.256 1423.6,160.256 1443.37,160.256 1463.13,160.256 1482.9,160.256 1502.67,160.256 1522.44,160.256 1542.21,160.256 1561.98,160.256 1581.75,160.256 1601.52,160.256 1621.29,160.256 1641.06,160.256 1660.83,160.256 1680.6,160.256 1700.37,160.256 1720.14,160.256 1739.91,160.256 1759.68,160.256 1779.44,160.256 1799.21,160.256 1818.98,160.256 1838.75,160.256 1858.52,160.256 1878.29,160.256 1898.06,160.256 1917.83,160.256 1937.6,160.256 1957.37,160.256 1977.14,160.256 1996.91,160.256 2016.68,160.256 2036.45,160.256 2056.22,160.256 2075.98,160.256 2095.75,160.256 2115.52,160.256 2135.29,160.256 2155.06,160.256 2174.83,160.256 2194.6,160.256 2214.37,160.256 2234.14,160.256 2253.91,160.256 2273.68,160.256 2293.45,160.256 "/>
<polyline clip-path="url(#clip371)" style="stroke:#e26f46; stroke-linecap:round; stroke-linejoin:round; stroke-width:4; stroke-opacity:1; fill:none" points="316.512,1386.4 336.281,1374.13 356.051,1361.87 375.82,1349.61 395.59,1337.35 415.359,1325.09 435.128,1312.83 454.898,1300.57 474.667,1288.3 494.436,1276.04 514.206,1263.78 533.975,1251.52 553.744,1239.26 573.514,1227 593.283,1214.74 613.052,1202.47 632.822,1190.21 652.591,1177.95 672.361,1165.69 692.13,1153.43 711.899,1141.17 731.669,1128.91 751.438,1116.65 771.207,1104.38 790.977,1092.12 810.746,1079.86 830.515,1067.6 850.285,1055.34 870.054,1043.08 889.823,1030.82 909.593,1018.55 929.362,1006.29 949.132,994.031 968.901,981.77 988.67,969.508 1008.44,957.247 1028.21,944.985 1047.98,932.724 1067.75,920.463 1087.52,908.201 1107.29,895.94 1127.06,883.679 1146.83,871.417 1166.59,859.156 1186.36,846.894 1206.13,834.633 1225.9,822.372 1245.67,810.11 1265.44,797.849 1285.21,785.587 1304.98,773.326 1324.75,761.065 1344.52,748.803 1364.29,736.542 1384.06,724.28 1403.83,712.019 1423.6,699.758 1443.37,687.496 1463.13,675.235 1482.9,662.973 1502.67,650.712 1522.44,638.451 1542.21,626.189 1561.98,613.928 1581.75,601.666 1601.52,589.405 1621.29,577.144 1641.06,564.882 1660.83,552.621 1680.6,540.36 1700.37,528.098 1720.14,515.837 1739.91,503.575 1759.68,491.314 1779.44,479.053 1799.21,466.791 1818.98,454.53 1838.75,442.268 1858.52,430.007 1878.29,417.746 1898.06,405.484 1917.83,393.223 1937.6,380.961 1957.37,368.7 1977.14,356.439 1996.91,344.177 2016.68,331.916 2036.45,319.654 2056.22,307.393 2075.98,295.132 2095.75,282.87 2115.52,270.609 2135.29,258.347 2155.06,246.086 2174.83,233.825 2194.6,221.563 2214.37,209.302 2234.14,197.04 2253.91,184.779 2273.68,172.518 2293.45,160.256 "/>
<polyline clip-path="url(#clip371)" style="stroke:#3da44d; stroke-linecap:round; stroke-linejoin:round; stroke-width:4; stroke-opacity:1; fill:none" points="316.512,160.256 336.281,196.673 356.051,232.353 375.82,267.298 395.59,301.508 415.359,334.981 435.128,367.719 454.898,399.721 474.667,430.988 494.436,461.519 514.206,491.314 533.975,520.373 553.744,548.697 573.514,576.285 593.283,603.138 613.052,629.255 632.822,654.636 652.591,679.281 672.361,703.191 692.13,726.365 711.899,748.803 731.669,770.506 751.438,791.473 771.207,811.704 790.977,831.2 810.746,849.96 830.515,867.984 850.285,885.273 870.054,901.825 889.823,917.643 909.593,932.724 929.362,947.07 949.132,960.68 968.901,973.555 988.67,985.693 1008.44,997.096 1028.21,1007.76 1047.98,1017.7 1067.75,1026.89 1087.52,1035.35 1107.29,1043.08 1127.06,1050.07 1146.83,1056.32 1166.59,1061.84 1186.36,1066.62 1206.13,1070.66 1225.9,1073.98 1245.67,1076.55 1265.44,1078.39 1285.21,1079.49 1304.98,1079.86 1324.75,1079.49 1344.52,1078.39 1364.29,1076.55 1384.06,1073.98 1403.83,1070.66 1423.6,1066.62 1443.37,1061.84 1463.13,1056.32 1482.9,1050.07 1502.67,1043.08 1522.44,1035.35 1542.21,1026.89 1561.98,1017.7 1581.75,1007.76 1601.52,997.096 1621.29,985.693 1641.06,973.555 1660.83,960.68 1680.6,947.07 1700.37,932.724 1720.14,917.643 1739.91,901.825 1759.68,885.273 1779.44,867.984 1799.21,849.96 1818.98,831.2 1838.75,811.704 1858.52,791.473 1878.29,770.506 1898.06,748.803 1917.83,726.365 1937.6,703.191 1957.37,679.281 1977.14,654.636 1996.91,629.255 2016.68,603.138 2036.45,576.285 2056.22,548.697 2075.98,520.373 2095.75,491.314 2115.52,461.519 2135.29,430.988 2155.06,399.721 2174.83,367.719 2194.6,334.981 2214.37,301.508 2234.14,267.298 2253.91,232.353 2273.68,196.673 2293.45,160.256 "/>
<polyline clip-path="url(#clip371)" style="stroke:#c271d2; stroke-linecap:round; stroke-linejoin:round; stroke-width:4; stroke-opacity:1; fill:none" points="316.512,1386.4 336.281,1314.65 356.051,1246.52 375.82,1181.91 395.59,1120.76 415.359,1063 435.128,1008.55 454.898,957.333 474.667,909.28 494.436,864.318 514.206,822.372 533.975,783.368 553.744,747.234 573.514,713.895 593.283,683.278 613.052,655.31 632.822,629.917 652.591,607.025 672.361,586.56 692.13,568.45 711.899,552.621 731.669,538.998 751.438,527.51 771.207,518.081 790.977,510.638 810.746,505.108 830.515,501.417 850.285,499.492 870.054,499.259 889.823,500.645 909.593,503.575 929.362,507.977 949.132,513.777 968.901,520.901 988.67,529.275 1008.44,538.827 1028.21,549.482 1047.98,561.167 1067.75,573.809 1087.52,587.333 1107.29,601.666 1127.06,616.736 1146.83,632.467 1166.59,648.787 1186.36,665.622 1206.13,682.898 1225.9,700.542 1245.67,718.481 1265.44,736.64 1285.21,754.946 1304.98,773.326 1324.75,791.706 1344.52,810.012 1364.29,828.171 1384.06,846.11 1403.83,863.754 1423.6,881.03 1443.37,897.865 1463.13,914.185 1482.9,929.916 1502.67,944.985 1522.44,959.319 1542.21,972.843 1561.98,985.485 1581.75,997.17 1601.52,1007.83 1621.29,1017.38 1641.06,1025.75 1660.83,1032.88 1680.6,1038.67 1700.37,1043.08 1720.14,1046.01 1739.91,1047.39 1759.68,1047.16 1779.44,1045.23 1799.21,1041.54 1818.98,1036.01 1838.75,1028.57 1858.52,1019.14 1878.29,1007.65 1898.06,994.031 1917.83,978.202 1937.6,960.092 1957.37,939.627 1977.14,916.735 1996.91,891.342 2016.68,863.374 2036.45,832.757 2056.22,799.418 2075.98,763.284 2095.75,724.28 2115.52,682.334 2135.29,637.372 2155.06,589.319 2174.83,538.103 2194.6,483.651 2214.37,425.887 2234.14,364.74 2253.91,300.134 2273.68,231.998 2293.45,160.256 "/>
<polyline clip-path="url(#clip371)" style="stroke:#ac8d18; stroke-linecap:round; stroke-linejoin:round; stroke-width:4; stroke-opacity:1; fill:none" points="316.512,160.256 336.281,277.438 356.051,384.093 375.82,480.722 395.59,567.813 415.359,645.846 435.128,715.288 454.898,776.599 474.667,830.227 494.436,876.608 514.206,916.171 533.975,949.333 553.744,976.5 573.514,998.07 593.283,1014.43 613.052,1025.95 632.822,1033 652.591,1035.94 672.361,1035.1 692.13,1030.84 711.899,1023.46 731.669,1013.28 751.438,1000.62 771.207,985.749 790.977,968.967 810.746,950.541 830.515,930.736 850.285,909.802 870.054,887.983 889.823,865.509 909.593,842.603 929.362,819.475 949.132,796.326 968.901,773.348 988.67,750.719 1008.44,728.61 1028.21,707.181 1047.98,686.581 1067.75,666.949 1087.52,648.414 1107.29,631.094 1127.06,615.097 1146.83,600.522 1166.59,587.455 1186.36,575.974 1206.13,566.147 1225.9,558.029 1245.67,551.667 1265.44,547.096 1285.21,544.344 1304.98,543.425 1324.75,544.344 1344.52,547.096 1364.29,551.667 1384.06,558.029 1403.83,566.147 1423.6,575.974 1443.37,587.455 1463.13,600.522 1482.9,615.097 1502.67,631.094 1522.44,648.414 1542.21,666.949 1561.98,686.581 1581.75,707.181 1601.52,728.61 1621.29,750.719 1641.06,773.348 1660.83,796.326 1680.6,819.475 1700.37,842.603 1720.14,865.509 1739.91,887.983 1759.68,909.802 1779.44,930.736 1799.21,950.541 1818.98,968.967 1838.75,985.749 1858.52,1000.62 1878.29,1013.28 1898.06,1023.46 1917.83,1030.84 1937.6,1035.1 1957.37,1035.94 1977.14,1033 1996.91,1025.95 2016.68,1014.43 2036.45,998.07 2056.22,976.5 2075.98,949.333 2095.75,916.171 2115.52,876.608 2135.29,830.227 2155.06,776.599 2174.83,715.288 2194.6,645.846 2214.37,567.813 2234.14,480.722 2253.91,384.093 2273.68,277.438 2293.45,160.256 "/>
<path clip-path="url(#clip370)" d="M1867.26 1379.86 L2282.9 1379.86 L2282.9 1068.82 L1867.26 1068.82  Z" fill="#ffffff" fill-rule="evenodd" fill-opacity="1"/>
<polyline clip-path="url(#clip370)" style="stroke:#000000; stroke-linecap:round; stroke-linejoin:round; stroke-width:4; stroke-opacity:1; fill:none" points="1867.26,1379.86 2282.9,1379.86 2282.9,1068.82 1867.26,1068.82 1867.26,1379.86 "/>
<polyline clip-path="url(#clip370)" style="stroke:#009af9; stroke-linecap:round; stroke-linejoin:round; stroke-width:4; stroke-opacity:1; fill:none" points="1890.55,1120.66 2030.25,1120.66 "/>
<path clip-path="url(#clip370)" d="M2072.45 1115.95 L2072.45 1101.92 L2076.7 1101.92 L2076.7 1137.94 L2072.45 1137.94 L2072.45 1134.05 Q2071.1 1136.36 2069.04 1137.5 Q2067.01 1138.61 2064.14 1138.61 Q2059.44 1138.61 2056.47 1134.86 Q2053.53 1131.11 2053.53 1125 Q2053.53 1118.89 2056.47 1115.14 Q2059.44 1111.39 2064.14 1111.39 Q2067.01 1111.39 2069.04 1112.52 Q2071.1 1113.63 2072.45 1115.95 M2057.93 1125 Q2057.93 1129.7 2059.85 1132.38 Q2061.8 1135.04 2065.18 1135.04 Q2068.56 1135.04 2070.5 1132.38 Q2072.45 1129.7 2072.45 1125 Q2072.45 1120.3 2070.5 1117.64 Q2068.56 1114.95 2065.18 1114.95 Q2061.8 1114.95 2059.85 1117.64 Q2057.93 1120.3 2057.93 1125 Z" fill="#000000" fill-rule="nonzero" fill-opacity="1" /><path clip-path="url(#clip370)" d="M2107.65 1123.91 L2107.65 1125.99 L2088.07 1125.99 Q2088.35 1130.39 2090.71 1132.7 Q2093.09 1135 2097.33 1135 Q2099.78 1135 2102.07 1134.39 Q2104.39 1133.79 2106.66 1132.59 L2106.66 1136.62 Q2104.37 1137.59 2101.96 1138.1 Q2099.55 1138.61 2097.07 1138.61 Q2090.87 1138.61 2087.24 1135 Q2083.63 1131.39 2083.63 1125.23 Q2083.63 1118.86 2087.05 1115.14 Q2090.5 1111.39 2096.33 1111.39 Q2101.57 1111.39 2104.6 1114.77 Q2107.65 1118.12 2107.65 1123.91 M2103.39 1122.66 Q2103.35 1119.16 2101.43 1117.08 Q2099.53 1115 2096.38 1115 Q2092.82 1115 2090.66 1117.01 Q2088.53 1119.02 2088.21 1122.68 L2103.39 1122.66 Z" fill="#000000" fill-rule="nonzero" fill-opacity="1" /><path clip-path="url(#clip370)" d="M2131.7 1124.67 Q2131.7 1120.04 2129.78 1117.5 Q2127.88 1114.95 2124.44 1114.95 Q2121.01 1114.95 2119.09 1117.5 Q2117.19 1120.04 2117.19 1124.67 Q2117.19 1129.28 2119.09 1131.83 Q2121.01 1134.37 2124.44 1134.37 Q2127.88 1134.37 2129.78 1131.83 Q2131.7 1129.28 2131.7 1124.67 M2135.96 1134.72 Q2135.96 1141.34 2133.02 1144.56 Q2130.08 1147.8 2124.02 1147.8 Q2121.77 1147.8 2119.78 1147.45 Q2117.79 1147.13 2115.92 1146.43 L2115.92 1142.29 Q2117.79 1143.31 2119.62 1143.79 Q2121.45 1144.28 2123.35 1144.28 Q2127.54 1144.28 2129.62 1142.08 Q2131.7 1139.9 2131.7 1135.48 L2131.7 1133.38 Q2130.38 1135.67 2128.32 1136.8 Q2126.26 1137.94 2123.39 1137.94 Q2118.63 1137.94 2115.71 1134.3 Q2112.79 1130.67 2112.79 1124.67 Q2112.79 1118.65 2115.71 1115.02 Q2118.63 1111.39 2123.39 1111.39 Q2126.26 1111.39 2128.32 1112.52 Q2130.38 1113.65 2131.7 1115.95 L2131.7 1112.01 L2135.96 1112.01 L2135.96 1134.72 Z" fill="#000000" fill-rule="nonzero" fill-opacity="1" /><path clip-path="url(#clip370)" d="M2159.76 1115.99 Q2159.04 1115.58 2158.19 1115.39 Q2157.35 1115.18 2156.33 1115.18 Q2152.72 1115.18 2150.78 1117.54 Q2148.86 1119.88 2148.86 1124.28 L2148.86 1137.94 L2144.57 1137.94 L2144.57 1112.01 L2148.86 1112.01 L2148.86 1116.04 Q2150.2 1113.68 2152.35 1112.54 Q2154.51 1111.39 2157.58 1111.39 Q2158.02 1111.39 2158.56 1111.45 Q2159.09 1111.5 2159.74 1111.62 L2159.76 1115.99 Z" fill="#000000" fill-rule="nonzero" fill-opacity="1" /><path clip-path="url(#clip370)" d="M2185.36 1123.91 L2185.36 1125.99 L2165.78 1125.99 Q2166.06 1130.39 2168.42 1132.7 Q2170.8 1135 2175.04 1135 Q2177.49 1135 2179.78 1134.39 Q2182.1 1133.79 2184.37 1132.59 L2184.37 1136.62 Q2182.07 1137.59 2179.67 1138.1 Q2177.26 1138.61 2174.78 1138.61 Q2168.58 1138.61 2164.94 1135 Q2161.33 1131.39 2161.33 1125.23 Q2161.33 1118.86 2164.76 1115.14 Q2168.21 1111.39 2174.04 1111.39 Q2179.27 1111.39 2182.31 1114.77 Q2185.36 1118.12 2185.36 1123.91 M2181.1 1122.66 Q2181.06 1119.16 2179.13 1117.08 Q2177.24 1115 2174.09 1115 Q2170.52 1115 2168.37 1117.01 Q2166.24 1119.02 2165.92 1122.68 L2181.1 1122.66 Z" fill="#000000" fill-rule="nonzero" fill-opacity="1" /><path clip-path="url(#clip370)" d="M2214.53 1123.91 L2214.53 1125.99 L2194.94 1125.99 Q2195.22 1130.39 2197.58 1132.7 Q2199.97 1135 2204.2 1135 Q2206.66 1135 2208.95 1134.39 Q2211.26 1133.79 2213.53 1132.59 L2213.53 1136.62 Q2211.24 1137.59 2208.83 1138.1 Q2206.43 1138.61 2203.95 1138.61 Q2197.75 1138.61 2194.11 1135 Q2190.5 1131.39 2190.5 1125.23 Q2190.5 1118.86 2193.93 1115.14 Q2197.38 1111.39 2203.21 1111.39 Q2208.44 1111.39 2211.47 1114.77 Q2214.53 1118.12 2214.53 1123.91 M2210.27 1122.66 Q2210.22 1119.16 2208.3 1117.08 Q2206.4 1115 2203.25 1115 Q2199.69 1115 2197.54 1117.01 Q2195.41 1119.02 2195.08 1122.68 L2210.27 1122.66 Z" fill="#000000" fill-rule="nonzero" fill-opacity="1" /><path clip-path="url(#clip370)" d="M2247.19 1106.45 Q2243.58 1106.45 2241.75 1110.02 Q2239.94 1113.56 2239.94 1120.69 Q2239.94 1127.8 2241.75 1131.36 Q2243.58 1134.9 2247.19 1134.9 Q2250.82 1134.9 2252.63 1131.36 Q2254.46 1127.8 2254.46 1120.69 Q2254.46 1113.56 2252.63 1110.02 Q2250.82 1106.45 2247.19 1106.45 M2247.19 1102.75 Q2253 1102.75 2256.06 1107.36 Q2259.13 1111.94 2259.13 1120.69 Q2259.13 1129.42 2256.06 1134.02 Q2253 1138.61 2247.19 1138.61 Q2241.38 1138.61 2238.3 1134.02 Q2235.25 1129.42 2235.25 1120.69 Q2235.25 1111.94 2238.3 1107.36 Q2241.38 1102.75 2247.19 1102.75 Z" fill="#000000" fill-rule="nonzero" fill-opacity="1" /><polyline clip-path="url(#clip370)" style="stroke:#e26f46; stroke-linecap:round; stroke-linejoin:round; stroke-width:4; stroke-opacity:1; fill:none" points="1890.55,1172.5 2030.25,1172.5 "/>
<path clip-path="url(#clip370)" d="M2072.45 1167.79 L2072.45 1153.76 L2076.7 1153.76 L2076.7 1189.78 L2072.45 1189.78 L2072.45 1185.89 Q2071.1 1188.2 2069.04 1189.34 Q2067.01 1190.45 2064.14 1190.45 Q2059.44 1190.45 2056.47 1186.7 Q2053.53 1182.95 2053.53 1176.84 Q2053.53 1170.73 2056.47 1166.98 Q2059.44 1163.23 2064.14 1163.23 Q2067.01 1163.23 2069.04 1164.36 Q2071.1 1165.47 2072.45 1167.79 M2057.93 1176.84 Q2057.93 1181.54 2059.85 1184.22 Q2061.8 1186.88 2065.18 1186.88 Q2068.56 1186.88 2070.5 1184.22 Q2072.45 1181.54 2072.45 1176.84 Q2072.45 1172.14 2070.5 1169.48 Q2068.56 1166.79 2065.18 1166.79 Q2061.8 1166.79 2059.85 1169.48 Q2057.93 1172.14 2057.93 1176.84 Z" fill="#000000" fill-rule="nonzero" fill-opacity="1" /><path clip-path="url(#clip370)" d="M2107.65 1175.75 L2107.65 1177.83 L2088.07 1177.83 Q2088.35 1182.23 2090.71 1184.54 Q2093.09 1186.84 2097.33 1186.84 Q2099.78 1186.84 2102.07 1186.23 Q2104.39 1185.63 2106.66 1184.43 L2106.66 1188.46 Q2104.37 1189.43 2101.96 1189.94 Q2099.55 1190.45 2097.07 1190.45 Q2090.87 1190.45 2087.24 1186.84 Q2083.63 1183.23 2083.63 1177.07 Q2083.63 1170.7 2087.05 1166.98 Q2090.5 1163.23 2096.33 1163.23 Q2101.57 1163.23 2104.6 1166.61 Q2107.65 1169.96 2107.65 1175.75 M2103.39 1174.5 Q2103.35 1171 2101.43 1168.92 Q2099.53 1166.84 2096.38 1166.84 Q2092.82 1166.84 2090.66 1168.85 Q2088.53 1170.86 2088.21 1174.52 L2103.39 1174.5 Z" fill="#000000" fill-rule="nonzero" fill-opacity="1" /><path clip-path="url(#clip370)" d="M2131.7 1176.51 Q2131.7 1171.88 2129.78 1169.34 Q2127.88 1166.79 2124.44 1166.79 Q2121.01 1166.79 2119.09 1169.34 Q2117.19 1171.88 2117.19 1176.51 Q2117.19 1181.12 2119.09 1183.67 Q2121.01 1186.21 2124.44 1186.21 Q2127.88 1186.21 2129.78 1183.67 Q2131.7 1181.12 2131.7 1176.51 M2135.96 1186.56 Q2135.96 1193.18 2133.02 1196.4 Q2130.08 1199.64 2124.02 1199.64 Q2121.77 1199.64 2119.78 1199.29 Q2117.79 1198.97 2115.92 1198.27 L2115.92 1194.13 Q2117.79 1195.15 2119.62 1195.63 Q2121.45 1196.12 2123.35 1196.12 Q2127.54 1196.12 2129.62 1193.92 Q2131.7 1191.74 2131.7 1187.32 L2131.7 1185.22 Q2130.38 1187.51 2128.32 1188.64 Q2126.26 1189.78 2123.39 1189.78 Q2118.63 1189.78 2115.71 1186.14 Q2112.79 1182.51 2112.79 1176.51 Q2112.79 1170.49 2115.71 1166.86 Q2118.63 1163.23 2123.39 1163.23 Q2126.26 1163.23 2128.32 1164.36 Q2130.38 1165.49 2131.7 1167.79 L2131.7 1163.85 L2135.96 1163.85 L2135.96 1186.56 Z" fill="#000000" fill-rule="nonzero" fill-opacity="1" /><path clip-path="url(#clip370)" d="M2159.76 1167.83 Q2159.04 1167.42 2158.19 1167.23 Q2157.35 1167.02 2156.33 1167.02 Q2152.72 1167.02 2150.78 1169.38 Q2148.86 1171.72 2148.86 1176.12 L2148.86 1189.78 L2144.57 1189.78 L2144.57 1163.85 L2148.86 1163.85 L2148.86 1167.88 Q2150.2 1165.52 2152.35 1164.38 Q2154.51 1163.23 2157.58 1163.23 Q2158.02 1163.23 2158.56 1163.29 Q2159.09 1163.34 2159.74 1163.46 L2159.76 1167.83 Z" fill="#000000" fill-rule="nonzero" fill-opacity="1" /><path clip-path="url(#clip370)" d="M2185.36 1175.75 L2185.36 1177.83 L2165.78 1177.83 Q2166.06 1182.23 2168.42 1184.54 Q2170.8 1186.84 2175.04 1186.84 Q2177.49 1186.84 2179.78 1186.23 Q2182.1 1185.63 2184.37 1184.43 L2184.37 1188.46 Q2182.07 1189.43 2179.67 1189.94 Q2177.26 1190.45 2174.78 1190.45 Q2168.58 1190.45 2164.94 1186.84 Q2161.33 1183.23 2161.33 1177.07 Q2161.33 1170.7 2164.76 1166.98 Q2168.21 1163.23 2174.04 1163.23 Q2179.27 1163.23 2182.31 1166.61 Q2185.36 1169.96 2185.36 1175.75 M2181.1 1174.5 Q2181.06 1171 2179.13 1168.92 Q2177.24 1166.84 2174.09 1166.84 Q2170.52 1166.84 2168.37 1168.85 Q2166.24 1170.86 2165.92 1174.52 L2181.1 1174.5 Z" fill="#000000" fill-rule="nonzero" fill-opacity="1" /><path clip-path="url(#clip370)" d="M2214.53 1175.75 L2214.53 1177.83 L2194.94 1177.83 Q2195.22 1182.23 2197.58 1184.54 Q2199.97 1186.84 2204.2 1186.84 Q2206.66 1186.84 2208.95 1186.23 Q2211.26 1185.63 2213.53 1184.43 L2213.53 1188.46 Q2211.24 1189.43 2208.83 1189.94 Q2206.43 1190.45 2203.95 1190.45 Q2197.75 1190.45 2194.11 1186.84 Q2190.5 1183.23 2190.5 1177.07 Q2190.5 1170.7 2193.93 1166.98 Q2197.38 1163.23 2203.21 1163.23 Q2208.44 1163.23 2211.47 1166.61 Q2214.53 1169.96 2214.53 1175.75 M2210.27 1174.5 Q2210.22 1171 2208.3 1168.92 Q2206.4 1166.84 2203.25 1166.84 Q2199.69 1166.84 2197.54 1168.85 Q2195.41 1170.86 2195.08 1174.52 L2210.27 1174.5 Z" fill="#000000" fill-rule="nonzero" fill-opacity="1" /><path clip-path="url(#clip370)" d="M2238 1185.84 L2245.64 1185.84 L2245.64 1159.48 L2237.33 1161.14 L2237.33 1156.88 L2245.59 1155.22 L2250.27 1155.22 L2250.27 1185.84 L2257.91 1185.84 L2257.91 1189.78 L2238 1189.78 L2238 1185.84 Z" fill="#000000" fill-rule="nonzero" fill-opacity="1" /><polyline clip-path="url(#clip370)" style="stroke:#3da44d; stroke-linecap:round; stroke-linejoin:round; stroke-width:4; stroke-opacity:1; fill:none" points="1890.55,1224.34 2030.25,1224.34 "/>
<path clip-path="url(#clip370)" d="M2072.45 1219.63 L2072.45 1205.6 L2076.7 1205.6 L2076.7 1241.62 L2072.45 1241.62 L2072.45 1237.73 Q2071.1 1240.04 2069.04 1241.18 Q2067.01 1242.29 2064.14 1242.29 Q2059.44 1242.29 2056.47 1238.54 Q2053.53 1234.79 2053.53 1228.68 Q2053.53 1222.57 2056.47 1218.82 Q2059.44 1215.07 2064.14 1215.07 Q2067.01 1215.07 2069.04 1216.2 Q2071.1 1217.31 2072.45 1219.63 M2057.93 1228.68 Q2057.93 1233.38 2059.85 1236.06 Q2061.8 1238.72 2065.18 1238.72 Q2068.56 1238.72 2070.5 1236.06 Q2072.45 1233.38 2072.45 1228.68 Q2072.45 1223.98 2070.5 1221.32 Q2068.56 1218.63 2065.18 1218.63 Q2061.8 1218.63 2059.85 1221.32 Q2057.93 1223.98 2057.93 1228.68 Z" fill="#000000" fill-rule="nonzero" fill-opacity="1" /><path clip-path="url(#clip370)" d="M2107.65 1227.59 L2107.65 1229.67 L2088.07 1229.67 Q2088.35 1234.07 2090.71 1236.38 Q2093.09 1238.68 2097.33 1238.68 Q2099.78 1238.68 2102.07 1238.07 Q2104.39 1237.47 2106.66 1236.27 L2106.66 1240.3 Q2104.37 1241.27 2101.96 1241.78 Q2099.55 1242.29 2097.07 1242.29 Q2090.87 1242.29 2087.24 1238.68 Q2083.63 1235.07 2083.63 1228.91 Q2083.63 1222.54 2087.05 1218.82 Q2090.5 1215.07 2096.33 1215.07 Q2101.57 1215.07 2104.6 1218.45 Q2107.65 1221.8 2107.65 1227.59 M2103.39 1226.34 Q2103.35 1222.84 2101.43 1220.76 Q2099.53 1218.68 2096.38 1218.68 Q2092.82 1218.68 2090.66 1220.69 Q2088.53 1222.7 2088.21 1226.36 L2103.39 1226.34 Z" fill="#000000" fill-rule="nonzero" fill-opacity="1" /><path clip-path="url(#clip370)" d="M2131.7 1228.35 Q2131.7 1223.72 2129.78 1221.18 Q2127.88 1218.63 2124.44 1218.63 Q2121.01 1218.63 2119.09 1221.18 Q2117.19 1223.72 2117.19 1228.35 Q2117.19 1232.96 2119.09 1235.51 Q2121.01 1238.05 2124.44 1238.05 Q2127.88 1238.05 2129.78 1235.51 Q2131.7 1232.96 2131.7 1228.35 M2135.96 1238.4 Q2135.96 1245.02 2133.02 1248.24 Q2130.08 1251.48 2124.02 1251.48 Q2121.77 1251.48 2119.78 1251.13 Q2117.79 1250.81 2115.92 1250.11 L2115.92 1245.97 Q2117.79 1246.99 2119.62 1247.47 Q2121.45 1247.96 2123.35 1247.96 Q2127.54 1247.96 2129.62 1245.76 Q2131.7 1243.58 2131.7 1239.16 L2131.7 1237.06 Q2130.38 1239.35 2128.32 1240.48 Q2126.26 1241.62 2123.39 1241.62 Q2118.63 1241.62 2115.71 1237.98 Q2112.79 1234.35 2112.79 1228.35 Q2112.79 1222.33 2115.71 1218.7 Q2118.63 1215.07 2123.39 1215.07 Q2126.26 1215.07 2128.32 1216.2 Q2130.38 1217.33 2131.7 1219.63 L2131.7 1215.69 L2135.96 1215.69 L2135.96 1238.4 Z" fill="#000000" fill-rule="nonzero" fill-opacity="1" /><path clip-path="url(#clip370)" d="M2159.76 1219.67 Q2159.04 1219.26 2158.19 1219.07 Q2157.35 1218.86 2156.33 1218.86 Q2152.72 1218.86 2150.78 1221.22 Q2148.86 1223.56 2148.86 1227.96 L2148.86 1241.62 L2144.57 1241.62 L2144.57 1215.69 L2148.86 1215.69 L2148.86 1219.72 Q2150.2 1217.36 2152.35 1216.22 Q2154.51 1215.07 2157.58 1215.07 Q2158.02 1215.07 2158.56 1215.13 Q2159.09 1215.18 2159.74 1215.3 L2159.76 1219.67 Z" fill="#000000" fill-rule="nonzero" fill-opacity="1" /><path clip-path="url(#clip370)" d="M2185.36 1227.59 L2185.36 1229.67 L2165.78 1229.67 Q2166.06 1234.07 2168.42 1236.38 Q2170.8 1238.68 2175.04 1238.68 Q2177.49 1238.68 2179.78 1238.07 Q2182.1 1237.47 2184.37 1236.27 L2184.37 1240.3 Q2182.07 1241.27 2179.67 1241.78 Q2177.26 1242.29 2174.78 1242.29 Q2168.58 1242.29 2164.94 1238.68 Q2161.33 1235.07 2161.33 1228.91 Q2161.33 1222.54 2164.76 1218.82 Q2168.21 1215.07 2174.04 1215.07 Q2179.27 1215.07 2182.31 1218.45 Q2185.36 1221.8 2185.36 1227.59 M2181.1 1226.34 Q2181.06 1222.84 2179.13 1220.76 Q2177.24 1218.68 2174.09 1218.68 Q2170.52 1218.68 2168.37 1220.69 Q2166.24 1222.7 2165.92 1226.36 L2181.1 1226.34 Z" fill="#000000" fill-rule="nonzero" fill-opacity="1" /><path clip-path="url(#clip370)" d="M2214.53 1227.59 L2214.53 1229.67 L2194.94 1229.67 Q2195.22 1234.07 2197.58 1236.38 Q2199.97 1238.68 2204.2 1238.68 Q2206.66 1238.68 2208.95 1238.07 Q2211.26 1237.47 2213.53 1236.27 L2213.53 1240.3 Q2211.24 1241.27 2208.83 1241.78 Q2206.43 1242.29 2203.95 1242.29 Q2197.75 1242.29 2194.11 1238.68 Q2190.5 1235.07 2190.5 1228.91 Q2190.5 1222.54 2193.93 1218.82 Q2197.38 1215.07 2203.21 1215.07 Q2208.44 1215.07 2211.47 1218.45 Q2214.53 1221.8 2214.53 1227.59 M2210.27 1226.34 Q2210.22 1222.84 2208.3 1220.76 Q2206.4 1218.68 2203.25 1218.68 Q2199.69 1218.68 2197.54 1220.69 Q2195.41 1222.7 2195.08 1226.36 L2210.27 1226.34 Z" fill="#000000" fill-rule="nonzero" fill-opacity="1" /><path clip-path="url(#clip370)" d="M2241.22 1237.68 L2257.54 1237.68 L2257.54 1241.62 L2235.59 1241.62 L2235.59 1237.68 Q2238.25 1234.93 2242.84 1230.3 Q2247.44 1225.64 2248.62 1224.3 Q2250.87 1221.78 2251.75 1220.04 Q2252.65 1218.28 2252.65 1216.59 Q2252.65 1213.84 2250.71 1212.1 Q2248.79 1210.37 2245.69 1210.37 Q2243.49 1210.37 2241.03 1211.13 Q2238.6 1211.89 2235.82 1213.45 L2235.82 1208.72 Q2238.65 1207.59 2241.1 1207.01 Q2243.56 1206.43 2245.59 1206.43 Q2250.96 1206.43 2254.16 1209.12 Q2257.35 1211.8 2257.35 1216.29 Q2257.35 1218.42 2256.54 1220.34 Q2255.75 1222.24 2253.65 1224.83 Q2253.07 1225.51 2249.97 1228.72 Q2246.87 1231.92 2241.22 1237.68 Z" fill="#000000" fill-rule="nonzero" fill-opacity="1" /><polyline clip-path="url(#clip370)" style="stroke:#c271d2; stroke-linecap:round; stroke-linejoin:round; stroke-width:4; stroke-opacity:1; fill:none" points="1890.55,1276.18 2030.25,1276.18 "/>
<path clip-path="url(#clip370)" d="M2072.45 1271.47 L2072.45 1257.44 L2076.7 1257.44 L2076.7 1293.46 L2072.45 1293.46 L2072.45 1289.57 Q2071.1 1291.88 2069.04 1293.02 Q2067.01 1294.13 2064.14 1294.13 Q2059.44 1294.13 2056.47 1290.38 Q2053.53 1286.63 2053.53 1280.52 Q2053.53 1274.41 2056.47 1270.66 Q2059.44 1266.91 2064.14 1266.91 Q2067.01 1266.91 2069.04 1268.04 Q2071.1 1269.15 2072.45 1271.47 M2057.93 1280.52 Q2057.93 1285.22 2059.85 1287.9 Q2061.8 1290.56 2065.18 1290.56 Q2068.56 1290.56 2070.5 1287.9 Q2072.45 1285.22 2072.45 1280.52 Q2072.45 1275.82 2070.5 1273.16 Q2068.56 1270.47 2065.18 1270.47 Q2061.8 1270.47 2059.85 1273.16 Q2057.93 1275.82 2057.93 1280.52 Z" fill="#000000" fill-rule="nonzero" fill-opacity="1" /><path clip-path="url(#clip370)" d="M2107.65 1279.43 L2107.65 1281.51 L2088.07 1281.51 Q2088.35 1285.91 2090.71 1288.22 Q2093.09 1290.52 2097.33 1290.52 Q2099.78 1290.52 2102.07 1289.91 Q2104.39 1289.31 2106.66 1288.11 L2106.66 1292.14 Q2104.37 1293.11 2101.96 1293.62 Q2099.55 1294.13 2097.07 1294.13 Q2090.87 1294.13 2087.24 1290.52 Q2083.63 1286.91 2083.63 1280.75 Q2083.63 1274.38 2087.05 1270.66 Q2090.5 1266.91 2096.33 1266.91 Q2101.57 1266.91 2104.6 1270.29 Q2107.65 1273.64 2107.65 1279.43 M2103.39 1278.18 Q2103.35 1274.68 2101.43 1272.6 Q2099.53 1270.52 2096.38 1270.52 Q2092.82 1270.52 2090.66 1272.53 Q2088.53 1274.54 2088.21 1278.2 L2103.39 1278.18 Z" fill="#000000" fill-rule="nonzero" fill-opacity="1" /><path clip-path="url(#clip370)" d="M2131.7 1280.19 Q2131.7 1275.56 2129.78 1273.02 Q2127.88 1270.47 2124.44 1270.47 Q2121.01 1270.47 2119.09 1273.02 Q2117.19 1275.56 2117.19 1280.19 Q2117.19 1284.8 2119.09 1287.35 Q2121.01 1289.89 2124.44 1289.89 Q2127.88 1289.89 2129.78 1287.35 Q2131.7 1284.8 2131.7 1280.19 M2135.96 1290.24 Q2135.96 1296.86 2133.02 1300.08 Q2130.08 1303.32 2124.02 1303.32 Q2121.77 1303.32 2119.78 1302.97 Q2117.79 1302.65 2115.92 1301.95 L2115.92 1297.81 Q2117.79 1298.83 2119.62 1299.31 Q2121.45 1299.8 2123.35 1299.8 Q2127.54 1299.8 2129.62 1297.6 Q2131.7 1295.42 2131.7 1291 L2131.7 1288.9 Q2130.38 1291.19 2128.32 1292.32 Q2126.26 1293.46 2123.39 1293.46 Q2118.63 1293.46 2115.71 1289.82 Q2112.79 1286.19 2112.79 1280.19 Q2112.79 1274.17 2115.71 1270.54 Q2118.63 1266.91 2123.39 1266.91 Q2126.26 1266.91 2128.32 1268.04 Q2130.38 1269.17 2131.7 1271.47 L2131.7 1267.53 L2135.96 1267.53 L2135.96 1290.24 Z" fill="#000000" fill-rule="nonzero" fill-opacity="1" /><path clip-path="url(#clip370)" d="M2159.76 1271.51 Q2159.04 1271.1 2158.19 1270.91 Q2157.35 1270.7 2156.33 1270.7 Q2152.72 1270.7 2150.78 1273.06 Q2148.86 1275.4 2148.86 1279.8 L2148.86 1293.46 L2144.57 1293.46 L2144.57 1267.53 L2148.86 1267.53 L2148.86 1271.56 Q2150.2 1269.2 2152.35 1268.06 Q2154.51 1266.91 2157.58 1266.91 Q2158.02 1266.91 2158.56 1266.97 Q2159.09 1267.02 2159.74 1267.14 L2159.76 1271.51 Z" fill="#000000" fill-rule="nonzero" fill-opacity="1" /><path clip-path="url(#clip370)" d="M2185.36 1279.43 L2185.36 1281.51 L2165.78 1281.51 Q2166.06 1285.91 2168.42 1288.22 Q2170.8 1290.52 2175.04 1290.52 Q2177.49 1290.52 2179.78 1289.91 Q2182.1 1289.31 2184.37 1288.11 L2184.37 1292.14 Q2182.07 1293.11 2179.67 1293.62 Q2177.26 1294.13 2174.78 1294.13 Q2168.58 1294.13 2164.94 1290.52 Q2161.33 1286.91 2161.33 1280.75 Q2161.33 1274.38 2164.76 1270.66 Q2168.21 1266.91 2174.04 1266.91 Q2179.27 1266.91 2182.31 1270.29 Q2185.36 1273.64 2185.36 1279.43 M2181.1 1278.18 Q2181.06 1274.68 2179.13 1272.6 Q2177.24 1270.52 2174.09 1270.52 Q2170.52 1270.52 2168.37 1272.53 Q2166.24 1274.54 2165.92 1278.2 L2181.1 1278.18 Z" fill="#000000" fill-rule="nonzero" fill-opacity="1" /><path clip-path="url(#clip370)" d="M2214.53 1279.43 L2214.53 1281.51 L2194.94 1281.51 Q2195.22 1285.91 2197.58 1288.22 Q2199.97 1290.52 2204.2 1290.52 Q2206.66 1290.52 2208.95 1289.91 Q2211.26 1289.31 2213.53 1288.11 L2213.53 1292.14 Q2211.24 1293.11 2208.83 1293.62 Q2206.43 1294.13 2203.95 1294.13 Q2197.75 1294.13 2194.11 1290.52 Q2190.5 1286.91 2190.5 1280.75 Q2190.5 1274.38 2193.93 1270.66 Q2197.38 1266.91 2203.21 1266.91 Q2208.44 1266.91 2211.47 1270.29 Q2214.53 1273.64 2214.53 1279.43 M2210.27 1278.18 Q2210.22 1274.68 2208.3 1272.6 Q2206.4 1270.52 2203.25 1270.52 Q2199.69 1270.52 2197.54 1272.53 Q2195.41 1274.54 2195.08 1278.2 L2210.27 1278.18 Z" fill="#000000" fill-rule="nonzero" fill-opacity="1" /><path clip-path="url(#clip370)" d="M2251.36 1274.82 Q2254.71 1275.54 2256.59 1277.81 Q2258.49 1280.08 2258.49 1283.41 Q2258.49 1288.53 2254.97 1291.33 Q2251.45 1294.13 2244.97 1294.13 Q2242.79 1294.13 2240.48 1293.69 Q2238.19 1293.27 2235.73 1292.41 L2235.73 1287.9 Q2237.68 1289.03 2239.99 1289.61 Q2242.31 1290.19 2244.83 1290.19 Q2249.23 1290.19 2251.52 1288.46 Q2253.83 1286.72 2253.83 1283.41 Q2253.83 1280.35 2251.68 1278.64 Q2249.55 1276.91 2245.73 1276.91 L2241.7 1276.91 L2241.7 1273.06 L2245.92 1273.06 Q2249.37 1273.06 2251.19 1271.7 Q2253.02 1270.31 2253.02 1267.72 Q2253.02 1265.05 2251.12 1263.64 Q2249.25 1262.21 2245.73 1262.21 Q2243.81 1262.21 2241.61 1262.62 Q2239.41 1263.04 2236.77 1263.92 L2236.77 1259.75 Q2239.44 1259.01 2241.75 1258.64 Q2244.09 1258.27 2246.15 1258.27 Q2251.47 1258.27 2254.57 1260.7 Q2257.68 1263.11 2257.68 1267.23 Q2257.68 1270.1 2256.03 1272.09 Q2254.39 1274.06 2251.36 1274.82 Z" fill="#000000" fill-rule="nonzero" fill-opacity="1" /><polyline clip-path="url(#clip370)" style="stroke:#ac8d18; stroke-linecap:round; stroke-linejoin:round; stroke-width:4; stroke-opacity:1; fill:none" points="1890.55,1328.02 2030.25,1328.02 "/>
<path clip-path="url(#clip370)" d="M2072.45 1323.31 L2072.45 1309.28 L2076.7 1309.28 L2076.7 1345.3 L2072.45 1345.3 L2072.45 1341.41 Q2071.1 1343.72 2069.04 1344.86 Q2067.01 1345.97 2064.14 1345.97 Q2059.44 1345.97 2056.47 1342.22 Q2053.53 1338.47 2053.53 1332.36 Q2053.53 1326.25 2056.47 1322.5 Q2059.44 1318.75 2064.14 1318.75 Q2067.01 1318.75 2069.04 1319.88 Q2071.1 1320.99 2072.45 1323.31 M2057.93 1332.36 Q2057.93 1337.06 2059.85 1339.74 Q2061.8 1342.4 2065.18 1342.4 Q2068.56 1342.4 2070.5 1339.74 Q2072.45 1337.06 2072.45 1332.36 Q2072.45 1327.66 2070.5 1325 Q2068.56 1322.31 2065.18 1322.31 Q2061.8 1322.31 2059.85 1325 Q2057.93 1327.66 2057.93 1332.36 Z" fill="#000000" fill-rule="nonzero" fill-opacity="1" /><path clip-path="url(#clip370)" d="M2107.65 1331.27 L2107.65 1333.35 L2088.07 1333.35 Q2088.35 1337.75 2090.71 1340.06 Q2093.09 1342.36 2097.33 1342.36 Q2099.78 1342.36 2102.07 1341.75 Q2104.39 1341.15 2106.66 1339.95 L2106.66 1343.98 Q2104.37 1344.95 2101.96 1345.46 Q2099.55 1345.97 2097.07 1345.97 Q2090.87 1345.97 2087.24 1342.36 Q2083.63 1338.75 2083.63 1332.59 Q2083.63 1326.22 2087.05 1322.5 Q2090.5 1318.75 2096.33 1318.75 Q2101.57 1318.75 2104.6 1322.13 Q2107.65 1325.48 2107.65 1331.27 M2103.39 1330.02 Q2103.35 1326.52 2101.43 1324.44 Q2099.53 1322.36 2096.38 1322.36 Q2092.82 1322.36 2090.66 1324.37 Q2088.53 1326.38 2088.21 1330.04 L2103.39 1330.02 Z" fill="#000000" fill-rule="nonzero" fill-opacity="1" /><path clip-path="url(#clip370)" d="M2131.7 1332.03 Q2131.7 1327.4 2129.78 1324.86 Q2127.88 1322.31 2124.44 1322.31 Q2121.01 1322.31 2119.09 1324.86 Q2117.19 1327.4 2117.19 1332.03 Q2117.19 1336.64 2119.09 1339.19 Q2121.01 1341.73 2124.44 1341.73 Q2127.88 1341.73 2129.78 1339.19 Q2131.7 1336.64 2131.7 1332.03 M2135.96 1342.08 Q2135.96 1348.7 2133.02 1351.92 Q2130.08 1355.16 2124.02 1355.16 Q2121.77 1355.16 2119.78 1354.81 Q2117.79 1354.49 2115.92 1353.79 L2115.92 1349.65 Q2117.79 1350.67 2119.62 1351.15 Q2121.45 1351.64 2123.35 1351.64 Q2127.54 1351.64 2129.62 1349.44 Q2131.7 1347.26 2131.7 1342.84 L2131.7 1340.74 Q2130.38 1343.03 2128.32 1344.16 Q2126.26 1345.3 2123.39 1345.3 Q2118.63 1345.3 2115.71 1341.66 Q2112.79 1338.03 2112.79 1332.03 Q2112.79 1326.01 2115.71 1322.38 Q2118.63 1318.75 2123.39 1318.75 Q2126.26 1318.75 2128.32 1319.88 Q2130.38 1321.01 2131.7 1323.31 L2131.7 1319.37 L2135.96 1319.37 L2135.96 1342.08 Z" fill="#000000" fill-rule="nonzero" fill-opacity="1" /><path clip-path="url(#clip370)" d="M2159.76 1323.35 Q2159.04 1322.94 2158.19 1322.75 Q2157.35 1322.54 2156.33 1322.54 Q2152.72 1322.54 2150.78 1324.9 Q2148.86 1327.24 2148.86 1331.64 L2148.86 1345.3 L2144.57 1345.3 L2144.57 1319.37 L2148.86 1319.37 L2148.86 1323.4 Q2150.2 1321.04 2152.35 1319.9 Q2154.51 1318.75 2157.58 1318.75 Q2158.02 1318.75 2158.56 1318.81 Q2159.09 1318.86 2159.74 1318.98 L2159.76 1323.35 Z" fill="#000000" fill-rule="nonzero" fill-opacity="1" /><path clip-path="url(#clip370)" d="M2185.36 1331.27 L2185.36 1333.35 L2165.78 1333.35 Q2166.06 1337.75 2168.42 1340.06 Q2170.8 1342.36 2175.04 1342.36 Q2177.49 1342.36 2179.78 1341.75 Q2182.1 1341.15 2184.37 1339.95 L2184.37 1343.98 Q2182.07 1344.95 2179.67 1345.46 Q2177.26 1345.97 2174.78 1345.97 Q2168.58 1345.97 2164.94 1342.36 Q2161.33 1338.75 2161.33 1332.59 Q2161.33 1326.22 2164.76 1322.5 Q2168.21 1318.75 2174.04 1318.75 Q2179.27 1318.75 2182.31 1322.13 Q2185.36 1325.48 2185.36 1331.27 M2181.1 1330.02 Q2181.06 1326.52 2179.13 1324.44 Q2177.24 1322.36 2174.09 1322.36 Q2170.52 1322.36 2168.37 1324.37 Q2166.24 1326.38 2165.92 1330.04 L2181.1 1330.02 Z" fill="#000000" fill-rule="nonzero" fill-opacity="1" /><path clip-path="url(#clip370)" d="M2214.53 1331.27 L2214.53 1333.35 L2194.94 1333.35 Q2195.22 1337.75 2197.58 1340.06 Q2199.97 1342.36 2204.2 1342.36 Q2206.66 1342.36 2208.95 1341.75 Q2211.26 1341.15 2213.53 1339.95 L2213.53 1343.98 Q2211.24 1344.95 2208.83 1345.46 Q2206.43 1345.97 2203.95 1345.97 Q2197.75 1345.97 2194.11 1342.36 Q2190.5 1338.75 2190.5 1332.59 Q2190.5 1326.22 2193.93 1322.5 Q2197.38 1318.75 2203.21 1318.75 Q2208.44 1318.75 2211.47 1322.13 Q2214.53 1325.48 2214.53 1331.27 M2210.27 1330.02 Q2210.22 1326.52 2208.3 1324.44 Q2206.4 1322.36 2203.25 1322.36 Q2199.69 1322.36 2197.54 1324.37 Q2195.41 1326.38 2195.08 1330.04 L2210.27 1330.02 Z" fill="#000000" fill-rule="nonzero" fill-opacity="1" /><path clip-path="url(#clip370)" d="M2250.04 1314.81 L2238.23 1333.26 L2250.04 1333.26 L2250.04 1314.81 M2248.81 1310.74 L2254.69 1310.74 L2254.69 1333.26 L2259.62 1333.26 L2259.62 1337.15 L2254.69 1337.15 L2254.69 1345.3 L2250.04 1345.3 L2250.04 1337.15 L2234.44 1337.15 L2234.44 1332.63 L2248.81 1310.74 Z" fill="#000000" fill-rule="nonzero" fill-opacity="1" /></svg>
